<svg width="650" height="644" viewBox="0 0 650 644" fill="none" xmlns="http://www.w3.org/2000/svg">
<g opacity="0.1">
<path fill-rule="evenodd" clip-rule="evenodd" d="M471.711 644C415.634 575.614 345.885 516.442 263.464 471.215C181.034 425.981 93.5311 398.865 5.49207 388.168C41.187 337.95 81.9957 290.791 127.268 247.101C183.301 297.065 245.592 341.758 314.297 379.457C382.998 417.161 454.221 445.728 526.582 466.215C513.625 527.639 495.327 587.151 471.711 644Z" fill="url(#paint0_linear)"/>
<path fill-rule="evenodd" clip-rule="evenodd" d="M5.49153 388.169L0 110.917L5.49153 388.169ZM127.268 247.101C80.2973 205.222 37.6568 159.696 0 110.917C18.8304 135.305 38.9037 158.884 60.1428 181.594C38.9037 158.884 18.8304 135.305 0 110.917C87.5476 96.7725 173.909 66.2484 254.483 17.8204C335.052 -30.6075 402.401 -92.4683 455.728 -163L699.731 -29.1037L455.728 -163C481.577 -107.122 502.215 -48.3738 517.597 12.4926C446.101 35.8051 376.064 67.1458 308.907 107.509C241.749 147.872 181.277 194.978 127.268 247.101Z" fill="url(#paint1_linear)"/>
<path fill-rule="evenodd" clip-rule="evenodd" d="M5.49153 388.169L0 110.917C37.6568 159.696 80.2973 205.222 127.268 247.101C81.9952 290.791 41.1865 337.95 5.49153 388.169Z" fill="#D23D3C"/>
<path d="M471.71 644L710.222 500.64C648.678 494.981 587.235 483.391 526.581 466.215C542.044 392.939 549.79 316.905 548.242 238.843C546.694 160.776 535.943 85.1063 517.596 12.4927C577.519 -7.04821 638.454 -21.0389 699.73 -29.1035C668.268 53.422 651.647 143.119 653.503 236.777C655.359 330.435 675.514 419.412 710.226 500.64L471.71 644Z" fill="url(#paint2_linear)"/>
<path d="M471.71 644C495.325 587.152 513.623 527.64 526.581 466.215C587.235 483.392 648.678 494.981 710.222 500.64L471.71 644Z" fill="#913838"/>
<path d="M517.598 12.4926C502.216 -48.3738 481.578 -107.122 455.729 -163L699.732 -29.1037C638.456 -21.0391 577.521 -7.04839 517.598 12.4926Z" fill="#D73D3D"/>
</g>
<path d="M566.45 178.28L566.42 178.29C566.43 178.3 566.44 178.29 566.45 178.28Z" fill="#B1CBC0"/>
<path d="M565.36 178.13C565.32 178.3 565.16 178.35 565.22 178.53C565.21 178.61 565.24 178.71 565.26 178.79C565.39 178.83 565.26 178.89 565.36 178.95L565.29 178.97C565.33 178.99 565.35 179 565.31 179.02H565.29C565.34 179.04 565.31 179.07 565.34 179.08H565.32L565.33 179.11H565.3C565.36 179.15 565.36 179.21 565.34 179.23H565.44C565.34 179.31 565.52 179.33 565.41 179.41H565.39C565.62 179.51 565.23 179.56 565.45 179.65C565.42 179.64 565.41 179.66 565.38 179.65C565.4 179.69 565.42 179.75 565.58 179.75C565.58 179.78 565.53 179.78 565.46 179.78C565.53 179.78 565.56 179.81 565.56 179.83H565.53L565.56 179.9L565.7 179.89C565.66 179.93 565.53 179.9 565.56 179.94H565.68C565.66 179.99 565.48 180.02 565.38 180.07C565.33 180.27 565.63 180.51 565.42 180.71L565.32 180.72C565.19 180.72 565.52 180.77 565.39 180.78L565.45 180.8C565.43 180.81 565.4 180.82 565.37 180.81C565.36 180.83 565.39 180.83 565.43 180.85L565.35 180.87C565.29 180.95 565.45 181.02 565.41 181.11C565.25 181.21 565.4 181.41 565.48 181.53C565.68 181.69 565.16 181.88 565.38 182.03C565.36 182.04 565.4 182.05 565.42 182.05L565.4 182.2C565.4 182.2 565.35 182.93 566.42 182.38H566.45C566.52 182.3 566.53 182.25 566.39 182.18C566.56 182.17 566.41 182.11 566.46 182.08H566.47C566.34 182.03 566.57 181.98 566.46 181.93C566.47 181.93 566.52 181.93 566.52 181.94C566.5 181.9 566.46 181.86 566.56 181.84C566.53 181.76 566.58 181.64 566.42 181.58H566.45C566.35 181.55 566.43 181.54 566.38 181.51H566.41C566.31 181.48 566.39 181.41 566.35 181.38H566.42L566.4 181.31L566.39 181.34C566.21 181.33 566.51 181.29 566.39 181.24C566.41 181.19 566.01 181.14 566.09 181.1C565.99 181.08 566.23 181.12 566.16 181.09C566.26 181.09 566.22 181.11 566.3 181.1C566.25 181.07 566.4 181.05 566.33 181H566.4C566.26 180.95 566.5 180.9 566.37 180.86C566.31 180.81 566.59 180.82 566.45 180.76L566.55 180.74C566.57 180.72 566.43 180.72 566.48 180.7C566.54 180.7 566.53 180.67 566.58 180.68C566.68 180.62 566.44 180.56 566.61 180.48C566.49 180.46 566.56 180.42 566.47 180.41C566.52 180.41 566.48 180.33 566.6 180.37L566.66 180.39C566.8 180.34 566.58 180.31 566.61 180.26C566.59 180.27 566.59 180.29 566.54 180.28L566.55 180.24L566.61 180.25L566.65 180.19H566.57C566.61 180.16 566.74 180.15 566.63 180.11C566.57 180.09 566.53 180.14 566.5 180.11C566.55 180.07 566.63 180.01 566.65 179.95C566.55 179.95 566.57 179.94 566.55 179.93H566.62C566.52 179.87 566.78 179.91 566.7 179.85H566.75L566.59 179.84C566.44 179.79 566.74 179.81 566.54 179.76C566.55 179.78 566.38 179.77 566.41 179.74L566.48 179.75C566.46 179.74 566.43 179.73 566.45 179.72C566.49 179.73 566.55 179.72 566.55 179.7L566.65 179.71L566.52 179.67C566.6 179.64 566.5 179.59 566.6 179.57C566.6 179.57 566.65 179.5 566.54 179.47C566.61 179.48 566.64 179.45 566.72 179.46C566.64 179.44 566.58 179.39 566.66 179.36H566.67C566.77 179.28 566.55 179.23 566.66 179.16C566.56 179.16 566.62 179.13 566.51 179.14C566.41 179.07 566.74 179.01 566.39 178.98C566.37 178.95 566.47 178.94 566.49 178.92L566.51 178.93C566.48 178.87 566.48 178.85 566.49 178.8C566.46 178.78 566.29 178.77 566.34 178.73C566.4 178.74 566.39 178.73 566.39 178.71C566.4 178.72 566.42 178.72 566.47 178.7C566.45 178.7 566.44 178.69 566.43 178.69C566.43 178.66 566.41 178.67 566.4 178.68H566.36C566.44 178.65 566.35 178.61 566.46 178.6C566.43 178.52 566.32 178.47 566.28 178.4C566.34 178.39 566.38 178.41 566.41 178.43L566.39 178.38C566.47 178.38 566.44 178.41 566.45 178.42C566.58 178.37 566.32 178.32 566.44 178.24L566.38 178.23H566.39C566.359 178.23 566.328 178.224 566.3 178.21C566.37 178.2 566.46 178.21 566.46 178.18C566.53 178.16 566.43 178.11 566.39 178.08C566.38 178.1 566.34 178.09 566.31 178.08C566.31 178.06 566.38 178.06 566.35 178.04H566.45C566.35 178.05 566.35 178 566.32 177.99C566.39 177.98 566.38 178.01 566.42 178.02C566.41 177.96 566.42 177.99 566.41 177.92C566.34 177.89 566.31 177.93 566.24 177.91C566.22 177.88 566.16 177.85 566.21 177.81L566.13 177.82C566.06 177.76 566.07 177.72 566.16 177.69C565.48 177.27 565.23 177.59 565.23 177.59C565.03 177.77 565.26 177.85 565.33 178.05L565.36 178.13Z" fill="#B1CBC0"/>
<path d="M566.45 188.28L566.42 188.29C566.43 188.3 566.44 188.29 566.45 188.28Z" fill="#B1CBC0"/>
<path d="M565.36 188.13C565.32 188.3 565.16 188.35 565.22 188.53C565.21 188.61 565.24 188.71 565.26 188.79C565.39 188.83 565.26 188.89 565.36 188.95L565.29 188.97C565.33 188.99 565.35 189 565.31 189.02H565.29C565.34 189.04 565.31 189.07 565.34 189.08H565.32L565.33 189.11H565.3C565.36 189.15 565.36 189.21 565.34 189.23H565.44C565.34 189.31 565.52 189.33 565.41 189.41H565.39C565.62 189.51 565.23 189.56 565.45 189.65C565.42 189.64 565.41 189.66 565.38 189.65C565.4 189.69 565.42 189.75 565.58 189.75C565.58 189.78 565.53 189.78 565.46 189.78C565.53 189.78 565.56 189.81 565.56 189.83H565.53L565.56 189.9L565.7 189.89C565.66 189.93 565.53 189.9 565.56 189.94H565.68C565.66 189.99 565.48 190.02 565.38 190.07C565.33 190.27 565.63 190.51 565.42 190.71L565.32 190.72C565.19 190.72 565.52 190.77 565.39 190.78L565.45 190.8C565.43 190.81 565.4 190.82 565.37 190.81C565.36 190.83 565.39 190.83 565.43 190.85L565.35 190.87C565.29 190.95 565.45 191.02 565.41 191.11C565.25 191.21 565.4 191.41 565.48 191.53C565.68 191.69 565.16 191.88 565.38 192.03C565.36 192.04 565.4 192.05 565.42 192.05L565.4 192.2C565.4 192.2 565.35 192.93 566.42 192.38H566.45C566.52 192.3 566.53 192.25 566.39 192.18C566.56 192.17 566.41 192.11 566.46 192.08H566.47C566.34 192.03 566.57 191.98 566.46 191.93C566.47 191.93 566.52 191.93 566.52 191.94C566.5 191.9 566.46 191.86 566.56 191.84C566.53 191.76 566.58 191.64 566.42 191.58H566.45C566.35 191.55 566.43 191.54 566.38 191.51H566.41C566.31 191.48 566.39 191.41 566.35 191.38H566.42L566.4 191.31L566.39 191.34C566.21 191.33 566.51 191.29 566.39 191.24C566.41 191.19 566.01 191.14 566.09 191.1C565.99 191.08 566.23 191.12 566.16 191.09C566.26 191.09 566.22 191.11 566.3 191.1C566.25 191.07 566.4 191.05 566.33 191H566.4C566.26 190.95 566.5 190.9 566.37 190.86C566.31 190.81 566.59 190.82 566.45 190.76L566.55 190.74C566.57 190.72 566.43 190.72 566.48 190.7C566.54 190.7 566.53 190.67 566.58 190.68C566.68 190.62 566.44 190.56 566.61 190.48C566.49 190.46 566.56 190.42 566.47 190.41C566.52 190.41 566.48 190.33 566.6 190.37L566.66 190.39C566.8 190.34 566.58 190.31 566.61 190.26C566.59 190.27 566.59 190.29 566.54 190.28L566.55 190.24L566.61 190.25L566.65 190.19H566.57C566.61 190.16 566.74 190.15 566.63 190.11C566.57 190.09 566.53 190.14 566.5 190.11C566.55 190.07 566.63 190.01 566.65 189.95C566.55 189.95 566.57 189.94 566.55 189.93H566.62C566.52 189.87 566.78 189.91 566.7 189.85H566.75L566.59 189.84C566.44 189.79 566.74 189.81 566.54 189.76C566.55 189.78 566.38 189.77 566.41 189.74L566.48 189.75C566.46 189.74 566.43 189.73 566.45 189.72C566.49 189.73 566.55 189.72 566.55 189.7L566.65 189.71L566.52 189.67C566.6 189.64 566.5 189.59 566.6 189.57C566.6 189.57 566.65 189.5 566.54 189.47C566.61 189.48 566.64 189.45 566.72 189.46C566.64 189.44 566.58 189.39 566.66 189.36H566.67C566.77 189.28 566.55 189.23 566.66 189.16C566.56 189.16 566.62 189.13 566.51 189.14C566.41 189.07 566.74 189.01 566.39 188.98C566.37 188.95 566.47 188.94 566.49 188.92L566.51 188.93C566.48 188.87 566.48 188.85 566.49 188.8C566.46 188.78 566.29 188.77 566.34 188.73C566.4 188.74 566.39 188.73 566.39 188.71C566.4 188.72 566.42 188.72 566.47 188.7C566.45 188.7 566.44 188.69 566.43 188.69C566.43 188.66 566.41 188.67 566.4 188.68H566.36C566.44 188.65 566.35 188.61 566.46 188.6C566.43 188.52 566.32 188.47 566.28 188.4C566.34 188.39 566.38 188.41 566.41 188.43L566.39 188.38C566.47 188.38 566.44 188.41 566.45 188.42C566.58 188.37 566.32 188.32 566.44 188.24L566.38 188.23H566.39C566.359 188.23 566.328 188.224 566.3 188.21C566.37 188.2 566.46 188.21 566.46 188.18C566.53 188.16 566.43 188.11 566.39 188.08C566.38 188.1 566.34 188.09 566.31 188.08C566.31 188.06 566.38 188.06 566.35 188.04H566.45C566.35 188.05 566.35 188 566.32 187.99C566.39 187.98 566.38 188.01 566.42 188.02C566.41 187.96 566.42 187.99 566.41 187.92C566.34 187.89 566.31 187.93 566.24 187.91C566.22 187.88 566.16 187.85 566.21 187.81L566.13 187.82C566.06 187.76 566.07 187.72 566.16 187.69C565.48 187.27 565.23 187.59 565.23 187.59C565.03 187.77 565.26 187.85 565.33 188.05L565.36 188.13Z" fill="#B1CBC0"/>
<path d="M566.45 198.28L566.42 198.29C566.43 198.3 566.44 198.29 566.45 198.28Z" fill="#B1CBC0"/>
<path d="M565.36 198.13C565.32 198.3 565.16 198.35 565.22 198.53C565.21 198.61 565.24 198.71 565.26 198.79C565.39 198.83 565.26 198.89 565.36 198.95L565.29 198.97C565.33 198.99 565.35 199 565.31 199.02H565.29C565.34 199.04 565.31 199.07 565.34 199.08H565.32L565.33 199.11H565.3C565.36 199.15 565.36 199.21 565.34 199.23H565.44C565.34 199.31 565.52 199.33 565.41 199.41H565.39C565.62 199.51 565.23 199.56 565.45 199.65C565.42 199.64 565.41 199.66 565.38 199.65C565.4 199.69 565.42 199.75 565.58 199.75C565.58 199.78 565.53 199.78 565.46 199.78C565.53 199.78 565.56 199.81 565.56 199.83H565.53L565.56 199.9L565.7 199.89C565.66 199.93 565.53 199.9 565.56 199.94H565.68C565.66 199.99 565.48 200.02 565.38 200.07C565.33 200.27 565.63 200.51 565.42 200.71L565.32 200.72C565.19 200.72 565.52 200.77 565.39 200.78L565.45 200.8C565.43 200.81 565.4 200.82 565.37 200.81C565.36 200.83 565.39 200.83 565.43 200.85L565.35 200.87C565.29 200.95 565.45 201.02 565.41 201.11C565.25 201.21 565.4 201.41 565.48 201.53C565.68 201.69 565.16 201.88 565.38 202.03C565.36 202.04 565.4 202.05 565.42 202.05L565.4 202.2C565.4 202.2 565.35 202.93 566.42 202.38H566.45C566.52 202.3 566.53 202.25 566.39 202.18C566.56 202.17 566.41 202.11 566.46 202.08H566.47C566.34 202.03 566.57 201.98 566.46 201.93C566.47 201.93 566.52 201.93 566.52 201.94C566.5 201.9 566.46 201.86 566.56 201.84C566.53 201.76 566.58 201.64 566.42 201.58H566.45C566.35 201.55 566.43 201.54 566.38 201.51H566.41C566.31 201.48 566.39 201.41 566.35 201.38H566.42L566.4 201.31L566.39 201.34C566.21 201.33 566.51 201.29 566.39 201.24C566.41 201.19 566.01 201.14 566.09 201.1C565.99 201.08 566.23 201.12 566.16 201.09C566.26 201.09 566.22 201.11 566.3 201.1C566.25 201.07 566.4 201.05 566.33 201H566.4C566.26 200.95 566.5 200.9 566.37 200.86C566.31 200.81 566.59 200.82 566.45 200.76L566.55 200.74C566.57 200.72 566.43 200.72 566.48 200.7C566.54 200.7 566.53 200.67 566.58 200.68C566.68 200.62 566.44 200.56 566.61 200.48C566.49 200.46 566.56 200.42 566.47 200.41C566.52 200.41 566.48 200.33 566.6 200.37L566.66 200.39C566.8 200.34 566.58 200.31 566.61 200.26C566.59 200.27 566.59 200.29 566.54 200.28L566.55 200.24L566.61 200.25L566.65 200.19H566.57C566.61 200.16 566.74 200.15 566.63 200.11C566.57 200.09 566.53 200.14 566.5 200.11C566.55 200.07 566.63 200.01 566.65 199.95C566.55 199.95 566.57 199.94 566.55 199.93H566.62C566.52 199.87 566.78 199.91 566.7 199.85H566.75L566.59 199.84C566.44 199.79 566.74 199.81 566.54 199.76C566.55 199.78 566.38 199.77 566.41 199.74L566.48 199.75C566.46 199.74 566.43 199.73 566.45 199.72C566.49 199.73 566.55 199.72 566.55 199.7L566.65 199.71L566.52 199.67C566.6 199.64 566.5 199.59 566.6 199.57C566.6 199.57 566.65 199.5 566.54 199.47C566.61 199.48 566.64 199.45 566.72 199.46C566.64 199.44 566.58 199.39 566.66 199.36H566.67C566.77 199.28 566.55 199.23 566.66 199.16C566.56 199.16 566.62 199.13 566.51 199.14C566.41 199.07 566.74 199.01 566.39 198.98C566.37 198.95 566.47 198.94 566.49 198.92L566.51 198.93C566.48 198.87 566.48 198.85 566.49 198.8C566.46 198.78 566.29 198.77 566.34 198.73C566.4 198.74 566.39 198.73 566.39 198.71C566.4 198.72 566.42 198.72 566.47 198.7C566.45 198.7 566.44 198.69 566.43 198.69C566.43 198.66 566.41 198.67 566.4 198.68H566.36C566.44 198.65 566.35 198.61 566.46 198.6C566.43 198.52 566.32 198.47 566.28 198.4C566.34 198.39 566.38 198.41 566.41 198.43L566.39 198.38C566.47 198.38 566.44 198.41 566.45 198.42C566.58 198.37 566.32 198.32 566.44 198.24L566.38 198.23H566.39C566.359 198.23 566.328 198.224 566.3 198.21C566.37 198.2 566.46 198.21 566.46 198.18C566.53 198.16 566.43 198.11 566.39 198.08C566.38 198.1 566.34 198.09 566.31 198.08C566.31 198.06 566.38 198.06 566.35 198.04H566.45C566.35 198.05 566.35 198 566.32 197.99C566.39 197.98 566.38 198.01 566.42 198.02C566.41 197.96 566.42 197.99 566.41 197.92C566.34 197.89 566.31 197.93 566.24 197.91C566.22 197.88 566.16 197.85 566.21 197.81L566.13 197.82C566.06 197.76 566.07 197.72 566.16 197.69C565.48 197.27 565.23 197.59 565.23 197.59C565.03 197.77 565.26 197.85 565.33 198.05L565.36 198.13Z" fill="#B1CBC0"/>
<path d="M566.45 208.28L566.42 208.29C566.43 208.3 566.44 208.29 566.45 208.28Z" fill="#B1CBC0"/>
<path d="M565.36 208.13C565.32 208.3 565.16 208.35 565.22 208.53C565.21 208.61 565.24 208.71 565.26 208.79C565.39 208.83 565.26 208.89 565.36 208.95L565.29 208.97C565.33 208.99 565.35 209 565.31 209.02H565.29C565.34 209.04 565.31 209.07 565.34 209.08H565.32L565.33 209.11H565.3C565.36 209.15 565.36 209.21 565.34 209.23H565.44C565.34 209.31 565.52 209.33 565.41 209.41H565.39C565.62 209.51 565.23 209.56 565.45 209.65C565.42 209.64 565.41 209.66 565.38 209.65C565.4 209.69 565.42 209.75 565.58 209.75C565.58 209.78 565.53 209.78 565.46 209.78C565.53 209.78 565.56 209.81 565.56 209.83H565.53L565.56 209.9L565.7 209.89C565.66 209.93 565.53 209.9 565.56 209.94H565.68C565.66 209.99 565.48 210.02 565.38 210.07C565.33 210.27 565.63 210.51 565.42 210.71L565.32 210.72C565.19 210.72 565.52 210.77 565.39 210.78L565.45 210.8C565.43 210.81 565.4 210.82 565.37 210.81C565.36 210.83 565.39 210.83 565.43 210.85L565.35 210.87C565.29 210.95 565.45 211.02 565.41 211.11C565.25 211.21 565.4 211.41 565.48 211.53C565.68 211.69 565.16 211.88 565.38 212.03C565.36 212.04 565.4 212.05 565.42 212.05L565.4 212.2C565.4 212.2 565.35 212.93 566.42 212.38H566.45C566.52 212.3 566.53 212.25 566.39 212.18C566.56 212.17 566.41 212.11 566.46 212.08H566.47C566.34 212.03 566.57 211.98 566.46 211.93C566.47 211.93 566.52 211.93 566.52 211.94C566.5 211.9 566.46 211.86 566.56 211.84C566.53 211.76 566.58 211.64 566.42 211.58H566.45C566.35 211.55 566.43 211.54 566.38 211.51H566.41C566.31 211.48 566.39 211.41 566.35 211.38H566.42L566.4 211.31L566.39 211.34C566.21 211.33 566.51 211.29 566.39 211.24C566.41 211.19 566.01 211.14 566.09 211.1C565.99 211.08 566.23 211.12 566.16 211.09C566.26 211.09 566.22 211.11 566.3 211.1C566.25 211.07 566.4 211.05 566.33 211H566.4C566.26 210.95 566.5 210.9 566.37 210.86C566.31 210.81 566.59 210.82 566.45 210.76L566.55 210.74C566.57 210.72 566.43 210.72 566.48 210.7C566.54 210.7 566.53 210.67 566.58 210.68C566.68 210.62 566.44 210.56 566.61 210.48C566.49 210.46 566.56 210.42 566.47 210.41C566.52 210.41 566.48 210.33 566.6 210.37L566.66 210.39C566.8 210.34 566.58 210.31 566.61 210.26C566.59 210.27 566.59 210.29 566.54 210.28L566.55 210.24L566.61 210.25L566.65 210.19H566.57C566.61 210.16 566.74 210.15 566.63 210.11C566.57 210.09 566.53 210.14 566.5 210.11C566.55 210.07 566.63 210.01 566.65 209.95C566.55 209.95 566.57 209.94 566.55 209.93H566.62C566.52 209.87 566.78 209.91 566.7 209.85H566.75L566.59 209.84C566.44 209.79 566.74 209.81 566.54 209.76C566.55 209.78 566.38 209.77 566.41 209.74L566.48 209.75C566.46 209.74 566.43 209.73 566.45 209.72C566.49 209.73 566.55 209.72 566.55 209.7L566.65 209.71L566.52 209.67C566.6 209.64 566.5 209.59 566.6 209.57C566.6 209.57 566.65 209.5 566.54 209.47C566.61 209.48 566.64 209.45 566.72 209.46C566.64 209.44 566.58 209.39 566.66 209.36H566.67C566.77 209.28 566.55 209.23 566.66 209.16C566.56 209.16 566.62 209.13 566.51 209.14C566.41 209.07 566.74 209.01 566.39 208.98C566.37 208.95 566.47 208.94 566.49 208.92L566.51 208.93C566.48 208.87 566.48 208.85 566.49 208.8C566.46 208.78 566.29 208.77 566.34 208.73C566.4 208.74 566.39 208.73 566.39 208.71C566.4 208.72 566.42 208.72 566.47 208.7C566.45 208.7 566.44 208.69 566.43 208.69C566.43 208.66 566.41 208.67 566.4 208.68H566.36C566.44 208.65 566.35 208.61 566.46 208.6C566.43 208.52 566.32 208.47 566.28 208.4C566.34 208.39 566.38 208.41 566.41 208.43L566.39 208.38C566.47 208.38 566.44 208.41 566.45 208.42C566.58 208.37 566.32 208.32 566.44 208.24L566.38 208.23H566.39C566.359 208.23 566.328 208.224 566.3 208.21C566.37 208.2 566.46 208.21 566.46 208.18C566.53 208.16 566.43 208.11 566.39 208.08C566.38 208.1 566.34 208.09 566.31 208.08C566.31 208.06 566.38 208.06 566.35 208.04H566.45C566.35 208.05 566.35 208 566.32 207.99C566.39 207.98 566.38 208.01 566.42 208.02C566.41 207.96 566.42 207.99 566.41 207.92C566.34 207.89 566.31 207.93 566.24 207.91C566.22 207.88 566.16 207.85 566.21 207.81L566.13 207.82C566.06 207.76 566.07 207.72 566.16 207.69C565.48 207.27 565.23 207.59 565.23 207.59C565.03 207.77 565.26 207.85 565.33 208.05L565.36 208.13Z" fill="#B1CBC0"/>
<path d="M566.45 218.28L566.42 218.29C566.43 218.3 566.44 218.29 566.45 218.28Z" fill="#B1CBC0"/>
<path d="M565.36 218.13C565.32 218.3 565.16 218.35 565.22 218.53C565.21 218.61 565.24 218.71 565.26 218.79C565.39 218.83 565.26 218.89 565.36 218.95L565.29 218.97C565.33 218.99 565.35 219 565.31 219.02H565.29C565.34 219.04 565.31 219.07 565.34 219.08H565.32L565.33 219.11H565.3C565.36 219.15 565.36 219.21 565.34 219.23H565.44C565.34 219.31 565.52 219.33 565.41 219.41H565.39C565.62 219.51 565.23 219.56 565.45 219.65C565.42 219.64 565.41 219.66 565.38 219.65C565.4 219.69 565.42 219.75 565.58 219.75C565.58 219.78 565.53 219.78 565.46 219.78C565.53 219.78 565.56 219.81 565.56 219.83H565.53L565.56 219.9L565.7 219.89C565.66 219.93 565.53 219.9 565.56 219.94H565.68C565.66 219.99 565.48 220.02 565.38 220.07C565.33 220.27 565.63 220.51 565.42 220.71L565.32 220.72C565.19 220.72 565.52 220.77 565.39 220.78L565.45 220.8C565.43 220.81 565.4 220.82 565.37 220.81C565.36 220.83 565.39 220.83 565.43 220.85L565.35 220.87C565.29 220.95 565.45 221.02 565.41 221.11C565.25 221.21 565.4 221.41 565.48 221.53C565.68 221.69 565.16 221.88 565.38 222.03C565.36 222.04 565.4 222.05 565.42 222.05L565.4 222.2C565.4 222.2 565.35 222.93 566.42 222.38H566.45C566.52 222.3 566.53 222.25 566.39 222.18C566.56 222.17 566.41 222.11 566.46 222.08H566.47C566.34 222.03 566.57 221.98 566.46 221.93C566.47 221.93 566.52 221.93 566.52 221.94C566.5 221.9 566.46 221.86 566.56 221.84C566.53 221.76 566.58 221.64 566.42 221.58H566.45C566.35 221.55 566.43 221.54 566.38 221.51H566.41C566.31 221.48 566.39 221.41 566.35 221.38H566.42L566.4 221.31L566.39 221.34C566.21 221.33 566.51 221.29 566.39 221.24C566.41 221.19 566.01 221.14 566.09 221.1C565.99 221.08 566.23 221.12 566.16 221.09C566.26 221.09 566.22 221.11 566.3 221.1C566.25 221.07 566.4 221.05 566.33 221H566.4C566.26 220.95 566.5 220.9 566.37 220.86C566.31 220.81 566.59 220.82 566.45 220.76L566.55 220.74C566.57 220.72 566.43 220.72 566.48 220.7C566.54 220.7 566.53 220.67 566.58 220.68C566.68 220.62 566.44 220.56 566.61 220.48C566.49 220.46 566.56 220.42 566.47 220.41C566.52 220.41 566.48 220.33 566.6 220.37L566.66 220.39C566.8 220.34 566.58 220.31 566.61 220.26C566.59 220.27 566.59 220.29 566.54 220.28L566.55 220.24L566.61 220.25L566.65 220.19H566.57C566.61 220.16 566.74 220.15 566.63 220.11C566.57 220.09 566.53 220.14 566.5 220.11C566.55 220.07 566.63 220.01 566.65 219.95C566.55 219.95 566.57 219.94 566.55 219.93H566.62C566.52 219.87 566.78 219.91 566.7 219.85H566.75L566.59 219.84C566.44 219.79 566.74 219.81 566.54 219.76C566.55 219.78 566.38 219.77 566.41 219.74L566.48 219.75C566.46 219.74 566.43 219.73 566.45 219.72C566.49 219.73 566.55 219.72 566.55 219.7L566.65 219.71L566.52 219.67C566.6 219.64 566.5 219.59 566.6 219.57C566.6 219.57 566.65 219.5 566.54 219.47C566.61 219.48 566.64 219.45 566.72 219.46C566.64 219.44 566.58 219.39 566.66 219.36H566.67C566.77 219.28 566.55 219.23 566.66 219.16C566.56 219.16 566.62 219.13 566.51 219.14C566.41 219.07 566.74 219.01 566.39 218.98C566.37 218.95 566.47 218.94 566.49 218.92L566.51 218.93C566.48 218.87 566.48 218.85 566.49 218.8C566.46 218.78 566.29 218.77 566.34 218.73C566.4 218.74 566.39 218.73 566.39 218.71C566.4 218.72 566.42 218.72 566.47 218.7C566.45 218.7 566.44 218.69 566.43 218.69C566.43 218.66 566.41 218.67 566.4 218.68H566.36C566.44 218.65 566.35 218.61 566.46 218.6C566.43 218.52 566.32 218.47 566.28 218.4C566.34 218.39 566.38 218.41 566.41 218.43L566.39 218.38C566.47 218.38 566.44 218.41 566.45 218.42C566.58 218.37 566.32 218.32 566.44 218.24L566.38 218.23H566.39C566.359 218.23 566.328 218.224 566.3 218.21C566.37 218.2 566.46 218.21 566.46 218.18C566.53 218.16 566.43 218.11 566.39 218.08C566.38 218.1 566.34 218.09 566.31 218.08C566.31 218.06 566.38 218.06 566.35 218.04H566.45C566.35 218.05 566.35 218 566.32 217.99C566.39 217.98 566.38 218.01 566.42 218.02C566.41 217.96 566.42 217.99 566.41 217.92C566.34 217.89 566.31 217.93 566.24 217.91C566.22 217.88 566.16 217.85 566.21 217.81L566.13 217.82C566.06 217.76 566.07 217.72 566.16 217.69C565.48 217.27 565.23 217.59 565.23 217.59C565.03 217.77 565.26 217.85 565.33 218.05L565.36 218.13Z" fill="#B1CBC0"/>
<path d="M566.45 228.28L566.42 228.29C566.43 228.3 566.44 228.29 566.45 228.28Z" fill="#B1CBC0"/>
<path d="M565.36 228.13C565.32 228.3 565.16 228.35 565.22 228.53C565.21 228.61 565.24 228.71 565.26 228.79C565.39 228.83 565.26 228.89 565.36 228.95L565.29 228.97C565.33 228.99 565.35 229 565.31 229.02H565.29C565.34 229.04 565.31 229.07 565.34 229.08H565.32L565.33 229.11H565.3C565.36 229.15 565.36 229.21 565.34 229.23H565.44C565.34 229.31 565.52 229.33 565.41 229.41H565.39C565.62 229.51 565.23 229.56 565.45 229.65C565.42 229.64 565.41 229.66 565.38 229.65C565.4 229.69 565.42 229.75 565.58 229.75C565.58 229.78 565.53 229.78 565.46 229.78C565.53 229.78 565.56 229.81 565.56 229.83H565.53L565.56 229.9L565.7 229.89C565.66 229.93 565.53 229.9 565.56 229.94H565.68C565.66 229.99 565.48 230.02 565.38 230.07C565.33 230.27 565.63 230.51 565.42 230.71L565.32 230.72C565.19 230.72 565.52 230.77 565.39 230.78L565.45 230.8C565.43 230.81 565.4 230.82 565.37 230.81C565.36 230.83 565.39 230.83 565.43 230.85L565.35 230.87C565.29 230.95 565.45 231.02 565.41 231.11C565.25 231.21 565.4 231.41 565.48 231.53C565.68 231.69 565.16 231.88 565.38 232.03C565.36 232.04 565.4 232.05 565.42 232.05L565.4 232.2C565.4 232.2 565.35 232.93 566.42 232.38H566.45C566.52 232.3 566.53 232.25 566.39 232.18C566.56 232.17 566.41 232.11 566.46 232.08H566.47C566.34 232.03 566.57 231.98 566.46 231.93C566.47 231.93 566.52 231.93 566.52 231.94C566.5 231.9 566.46 231.86 566.56 231.84C566.53 231.76 566.58 231.64 566.42 231.58H566.45C566.35 231.55 566.43 231.54 566.38 231.51H566.41C566.31 231.48 566.39 231.41 566.35 231.38H566.42L566.4 231.31L566.39 231.34C566.21 231.33 566.51 231.29 566.39 231.24C566.41 231.19 566.01 231.14 566.09 231.1C565.99 231.08 566.23 231.12 566.16 231.09C566.26 231.09 566.22 231.11 566.3 231.1C566.25 231.07 566.4 231.05 566.33 231H566.4C566.26 230.95 566.5 230.9 566.37 230.86C566.31 230.81 566.59 230.82 566.45 230.76L566.55 230.74C566.57 230.72 566.43 230.72 566.48 230.7C566.54 230.7 566.53 230.67 566.58 230.68C566.68 230.62 566.44 230.56 566.61 230.48C566.49 230.46 566.56 230.42 566.47 230.41C566.52 230.41 566.48 230.33 566.6 230.37L566.66 230.39C566.8 230.34 566.58 230.31 566.61 230.26C566.59 230.27 566.59 230.29 566.54 230.28L566.55 230.24L566.61 230.25L566.65 230.19H566.57C566.61 230.16 566.74 230.15 566.63 230.11C566.57 230.09 566.53 230.14 566.5 230.11C566.55 230.07 566.63 230.01 566.65 229.95C566.55 229.95 566.57 229.94 566.55 229.93H566.62C566.52 229.87 566.78 229.91 566.7 229.85H566.75L566.59 229.84C566.44 229.79 566.74 229.81 566.54 229.76C566.55 229.78 566.38 229.77 566.41 229.74L566.48 229.75C566.46 229.74 566.43 229.73 566.45 229.72C566.49 229.73 566.55 229.72 566.55 229.7L566.65 229.71L566.52 229.67C566.6 229.64 566.5 229.59 566.6 229.57C566.6 229.57 566.65 229.5 566.54 229.47C566.61 229.48 566.64 229.45 566.72 229.46C566.64 229.44 566.58 229.39 566.66 229.36H566.67C566.77 229.28 566.55 229.23 566.66 229.16C566.56 229.16 566.62 229.13 566.51 229.14C566.41 229.07 566.74 229.01 566.39 228.98C566.37 228.95 566.47 228.94 566.49 228.92L566.51 228.93C566.48 228.87 566.48 228.85 566.49 228.8C566.46 228.78 566.29 228.77 566.34 228.73C566.4 228.74 566.39 228.73 566.39 228.71C566.4 228.72 566.42 228.72 566.47 228.7C566.45 228.7 566.44 228.69 566.43 228.69C566.43 228.66 566.41 228.67 566.4 228.68H566.36C566.44 228.65 566.35 228.61 566.46 228.6C566.43 228.52 566.32 228.47 566.28 228.4C566.34 228.39 566.38 228.41 566.41 228.43L566.39 228.38C566.47 228.38 566.44 228.41 566.45 228.42C566.58 228.37 566.32 228.32 566.44 228.24L566.38 228.23H566.39C566.359 228.23 566.328 228.224 566.3 228.21C566.37 228.2 566.46 228.21 566.46 228.18C566.53 228.16 566.43 228.11 566.39 228.08C566.38 228.1 566.34 228.09 566.31 228.08C566.31 228.06 566.38 228.06 566.35 228.04H566.45C566.35 228.05 566.35 228 566.32 227.99C566.39 227.98 566.38 228.01 566.42 228.02C566.41 227.96 566.42 227.99 566.41 227.92C566.34 227.89 566.31 227.93 566.24 227.91C566.22 227.88 566.16 227.85 566.21 227.81L566.13 227.82C566.06 227.76 566.07 227.72 566.16 227.69C565.48 227.27 565.23 227.59 565.23 227.59C565.03 227.77 565.26 227.85 565.33 228.05L565.36 228.13Z" fill="#B1CBC0"/>
<path d="M566.45 238.28L566.42 238.29C566.43 238.3 566.44 238.29 566.45 238.28Z" fill="#B1CBC0"/>
<path d="M565.36 238.13C565.32 238.3 565.16 238.35 565.22 238.53C565.21 238.61 565.24 238.71 565.26 238.79C565.39 238.83 565.26 238.89 565.36 238.95L565.29 238.97C565.33 238.99 565.35 239 565.31 239.02H565.29C565.34 239.04 565.31 239.07 565.34 239.08H565.32L565.33 239.11H565.3C565.36 239.15 565.36 239.21 565.34 239.23H565.44C565.34 239.31 565.52 239.33 565.41 239.41H565.39C565.62 239.51 565.23 239.56 565.45 239.65C565.42 239.64 565.41 239.66 565.38 239.65C565.4 239.69 565.42 239.75 565.58 239.75C565.58 239.78 565.53 239.78 565.46 239.78C565.53 239.78 565.56 239.81 565.56 239.83H565.53L565.56 239.9L565.7 239.89C565.66 239.93 565.53 239.9 565.56 239.94H565.68C565.66 239.99 565.48 240.02 565.38 240.07C565.33 240.27 565.63 240.51 565.42 240.71L565.32 240.72C565.19 240.72 565.52 240.77 565.39 240.78L565.45 240.8C565.43 240.81 565.4 240.82 565.37 240.81C565.36 240.83 565.39 240.83 565.43 240.85L565.35 240.87C565.29 240.95 565.45 241.02 565.41 241.11C565.25 241.21 565.4 241.41 565.48 241.53C565.68 241.69 565.16 241.88 565.38 242.03C565.36 242.04 565.4 242.05 565.42 242.05L565.4 242.2C565.4 242.2 565.35 242.93 566.42 242.38H566.45C566.52 242.3 566.53 242.25 566.39 242.18C566.56 242.17 566.41 242.11 566.46 242.08H566.47C566.34 242.03 566.57 241.98 566.46 241.93C566.47 241.93 566.52 241.93 566.52 241.94C566.5 241.9 566.46 241.86 566.56 241.84C566.53 241.76 566.58 241.64 566.42 241.58H566.45C566.35 241.55 566.43 241.54 566.38 241.51H566.41C566.31 241.48 566.39 241.41 566.35 241.38H566.42L566.4 241.31L566.39 241.34C566.21 241.33 566.51 241.29 566.39 241.24C566.41 241.19 566.01 241.14 566.09 241.1C565.99 241.08 566.23 241.12 566.16 241.09C566.26 241.09 566.22 241.11 566.3 241.1C566.25 241.07 566.4 241.05 566.33 241H566.4C566.26 240.95 566.5 240.9 566.37 240.86C566.31 240.81 566.59 240.82 566.45 240.76L566.55 240.74C566.57 240.72 566.43 240.72 566.48 240.7C566.54 240.7 566.53 240.67 566.58 240.68C566.68 240.62 566.44 240.56 566.61 240.48C566.49 240.46 566.56 240.42 566.47 240.41C566.52 240.41 566.48 240.33 566.6 240.37L566.66 240.39C566.8 240.34 566.58 240.31 566.61 240.26C566.59 240.27 566.59 240.29 566.54 240.28L566.55 240.24L566.61 240.25L566.65 240.19H566.57C566.61 240.16 566.74 240.15 566.63 240.11C566.57 240.09 566.53 240.14 566.5 240.11C566.55 240.07 566.63 240.01 566.65 239.95C566.55 239.95 566.57 239.94 566.55 239.93H566.62C566.52 239.87 566.78 239.91 566.7 239.85H566.75L566.59 239.84C566.44 239.79 566.74 239.81 566.54 239.76C566.55 239.78 566.38 239.77 566.41 239.74L566.48 239.75C566.46 239.74 566.43 239.73 566.45 239.72C566.49 239.73 566.55 239.72 566.55 239.7L566.65 239.71L566.52 239.67C566.6 239.64 566.5 239.59 566.6 239.57C566.6 239.57 566.65 239.5 566.54 239.47C566.61 239.48 566.64 239.45 566.72 239.46C566.64 239.44 566.58 239.39 566.66 239.36H566.67C566.77 239.28 566.55 239.23 566.66 239.16C566.56 239.16 566.62 239.13 566.51 239.14C566.41 239.07 566.74 239.01 566.39 238.98C566.37 238.95 566.47 238.94 566.49 238.92L566.51 238.93C566.48 238.87 566.48 238.85 566.49 238.8C566.46 238.78 566.29 238.77 566.34 238.73C566.4 238.74 566.39 238.73 566.39 238.71C566.4 238.72 566.42 238.72 566.47 238.7C566.45 238.7 566.44 238.69 566.43 238.69C566.43 238.66 566.41 238.67 566.4 238.68H566.36C566.44 238.65 566.35 238.61 566.46 238.6C566.43 238.52 566.32 238.47 566.28 238.4C566.34 238.39 566.38 238.41 566.41 238.43L566.39 238.38C566.47 238.38 566.44 238.41 566.45 238.42C566.58 238.37 566.32 238.32 566.44 238.24L566.38 238.23H566.39C566.359 238.23 566.328 238.224 566.3 238.21C566.37 238.2 566.46 238.21 566.46 238.18C566.53 238.16 566.43 238.11 566.39 238.08C566.38 238.1 566.34 238.09 566.31 238.08C566.31 238.06 566.38 238.06 566.35 238.04H566.45C566.35 238.05 566.35 238 566.32 237.99C566.39 237.98 566.38 238.01 566.42 238.02C566.41 237.96 566.42 237.99 566.41 237.92C566.34 237.89 566.31 237.93 566.24 237.91C566.22 237.88 566.16 237.85 566.21 237.81L566.13 237.82C566.06 237.76 566.07 237.72 566.16 237.69C565.48 237.27 565.23 237.59 565.23 237.59C565.03 237.77 565.26 237.85 565.33 238.05L565.36 238.13Z" fill="#B1CBC0"/>
<path d="M566.45 248.28L566.42 248.29C566.43 248.3 566.44 248.29 566.45 248.28Z" fill="#B1CBC0"/>
<path d="M565.36 248.13C565.32 248.3 565.16 248.35 565.22 248.53C565.21 248.61 565.24 248.71 565.26 248.79C565.39 248.83 565.26 248.89 565.36 248.95L565.29 248.97C565.33 248.99 565.35 249 565.31 249.02H565.29C565.34 249.04 565.31 249.07 565.34 249.08H565.32L565.33 249.11H565.3C565.36 249.15 565.36 249.21 565.34 249.23H565.44C565.34 249.31 565.52 249.33 565.41 249.41H565.39C565.62 249.51 565.23 249.56 565.45 249.65C565.42 249.64 565.41 249.66 565.38 249.65C565.4 249.69 565.42 249.75 565.58 249.75C565.58 249.78 565.53 249.78 565.46 249.78C565.53 249.78 565.56 249.81 565.56 249.83H565.53L565.56 249.9L565.7 249.89C565.66 249.93 565.53 249.9 565.56 249.94H565.68C565.66 249.99 565.48 250.02 565.38 250.07C565.33 250.27 565.63 250.51 565.42 250.71L565.32 250.72C565.19 250.72 565.52 250.77 565.39 250.78L565.45 250.8C565.43 250.81 565.4 250.82 565.37 250.81C565.36 250.83 565.39 250.83 565.43 250.85L565.35 250.87C565.29 250.95 565.45 251.02 565.41 251.11C565.25 251.21 565.4 251.41 565.48 251.53C565.68 251.69 565.16 251.88 565.38 252.03C565.36 252.04 565.4 252.05 565.42 252.05L565.4 252.2C565.4 252.2 565.35 252.93 566.42 252.38H566.45C566.52 252.3 566.53 252.25 566.39 252.18C566.56 252.17 566.41 252.11 566.46 252.08H566.47C566.34 252.03 566.57 251.98 566.46 251.93C566.47 251.93 566.52 251.93 566.52 251.94C566.5 251.9 566.46 251.86 566.56 251.84C566.53 251.76 566.58 251.64 566.42 251.58H566.45C566.35 251.55 566.43 251.54 566.38 251.51H566.41C566.31 251.48 566.39 251.41 566.35 251.38H566.42L566.4 251.31L566.39 251.34C566.21 251.33 566.51 251.29 566.39 251.24C566.41 251.19 566.01 251.14 566.09 251.1C565.99 251.08 566.23 251.12 566.16 251.09C566.26 251.09 566.22 251.11 566.3 251.1C566.25 251.07 566.4 251.05 566.33 251H566.4C566.26 250.95 566.5 250.9 566.37 250.86C566.31 250.81 566.59 250.82 566.45 250.76L566.55 250.74C566.57 250.72 566.43 250.72 566.48 250.7C566.54 250.7 566.53 250.67 566.58 250.68C566.68 250.62 566.44 250.56 566.61 250.48C566.49 250.46 566.56 250.42 566.47 250.41C566.52 250.41 566.48 250.33 566.6 250.37L566.66 250.39C566.8 250.34 566.58 250.31 566.61 250.26C566.59 250.27 566.59 250.29 566.54 250.28L566.55 250.24L566.61 250.25L566.65 250.19H566.57C566.61 250.16 566.74 250.15 566.63 250.11C566.57 250.09 566.53 250.14 566.5 250.11C566.55 250.07 566.63 250.01 566.65 249.95C566.55 249.95 566.57 249.94 566.55 249.93H566.62C566.52 249.87 566.78 249.91 566.7 249.85H566.75L566.59 249.84C566.44 249.79 566.74 249.81 566.54 249.76C566.55 249.78 566.38 249.77 566.41 249.74L566.48 249.75C566.46 249.74 566.43 249.73 566.45 249.72C566.49 249.73 566.55 249.72 566.55 249.7L566.65 249.71L566.52 249.67C566.6 249.64 566.5 249.59 566.6 249.57C566.6 249.57 566.65 249.5 566.54 249.47C566.61 249.48 566.64 249.45 566.72 249.46C566.64 249.44 566.58 249.39 566.66 249.36H566.67C566.77 249.28 566.55 249.23 566.66 249.16C566.56 249.16 566.62 249.13 566.51 249.14C566.41 249.07 566.74 249.01 566.39 248.98C566.37 248.95 566.47 248.94 566.49 248.92L566.51 248.93C566.48 248.87 566.48 248.85 566.49 248.8C566.46 248.78 566.29 248.77 566.34 248.73C566.4 248.74 566.39 248.73 566.39 248.71C566.4 248.72 566.42 248.72 566.47 248.7C566.45 248.7 566.44 248.69 566.43 248.69C566.43 248.66 566.41 248.67 566.4 248.68H566.36C566.44 248.65 566.35 248.61 566.46 248.6C566.43 248.52 566.32 248.47 566.28 248.4C566.34 248.39 566.38 248.41 566.41 248.43L566.39 248.38C566.47 248.38 566.44 248.41 566.45 248.42C566.58 248.37 566.32 248.32 566.44 248.24L566.38 248.23H566.39C566.359 248.23 566.328 248.224 566.3 248.21C566.37 248.2 566.46 248.21 566.46 248.18C566.53 248.16 566.43 248.11 566.39 248.08C566.38 248.1 566.34 248.09 566.31 248.08C566.31 248.06 566.38 248.06 566.35 248.04H566.45C566.35 248.05 566.35 248 566.32 247.99C566.39 247.98 566.38 248.01 566.42 248.02C566.41 247.96 566.42 247.99 566.41 247.92C566.34 247.89 566.31 247.93 566.24 247.91C566.22 247.88 566.16 247.85 566.21 247.81L566.13 247.82C566.06 247.76 566.07 247.72 566.16 247.69C565.48 247.27 565.23 247.59 565.23 247.59C565.03 247.77 565.26 247.85 565.33 248.05L565.36 248.13Z" fill="#B1CBC0"/>
<path d="M566.45 258.28L566.42 258.29C566.43 258.3 566.44 258.29 566.45 258.28Z" fill="#B1CBC0"/>
<path d="M565.36 258.13C565.32 258.3 565.16 258.35 565.22 258.53C565.21 258.61 565.24 258.71 565.26 258.79C565.39 258.83 565.26 258.89 565.36 258.95L565.29 258.97C565.33 258.99 565.35 259 565.31 259.02H565.29C565.34 259.04 565.31 259.07 565.34 259.08H565.32L565.33 259.11H565.3C565.36 259.15 565.36 259.21 565.34 259.23H565.44C565.34 259.31 565.52 259.33 565.41 259.41H565.39C565.62 259.51 565.23 259.56 565.45 259.65C565.42 259.64 565.41 259.66 565.38 259.65C565.4 259.69 565.42 259.75 565.58 259.75C565.58 259.78 565.53 259.78 565.46 259.78C565.53 259.78 565.56 259.81 565.56 259.83H565.53L565.56 259.9L565.7 259.89C565.66 259.93 565.53 259.9 565.56 259.94H565.68C565.66 259.99 565.48 260.02 565.38 260.07C565.33 260.27 565.63 260.51 565.42 260.71L565.32 260.72C565.19 260.72 565.52 260.77 565.39 260.78L565.45 260.8C565.43 260.81 565.4 260.82 565.37 260.81C565.36 260.83 565.39 260.83 565.43 260.85L565.35 260.87C565.29 260.95 565.45 261.02 565.41 261.11C565.25 261.21 565.4 261.41 565.48 261.53C565.68 261.69 565.16 261.88 565.38 262.03C565.36 262.04 565.4 262.05 565.42 262.05L565.4 262.2C565.4 262.2 565.35 262.93 566.42 262.38H566.45C566.52 262.3 566.53 262.25 566.39 262.18C566.56 262.17 566.41 262.11 566.46 262.08H566.47C566.34 262.03 566.57 261.98 566.46 261.93C566.47 261.93 566.52 261.93 566.52 261.94C566.5 261.9 566.46 261.86 566.56 261.84C566.53 261.76 566.58 261.64 566.42 261.58H566.45C566.35 261.55 566.43 261.54 566.38 261.51H566.41C566.31 261.48 566.39 261.41 566.35 261.38H566.42L566.4 261.31L566.39 261.34C566.21 261.33 566.51 261.29 566.39 261.24C566.41 261.19 566.01 261.14 566.09 261.1C565.99 261.08 566.23 261.12 566.16 261.09C566.26 261.09 566.22 261.11 566.3 261.1C566.25 261.07 566.4 261.05 566.33 261H566.4C566.26 260.95 566.5 260.9 566.37 260.86C566.31 260.81 566.59 260.82 566.45 260.76L566.55 260.74C566.57 260.72 566.43 260.72 566.48 260.7C566.54 260.7 566.53 260.67 566.58 260.68C566.68 260.62 566.44 260.56 566.61 260.48C566.49 260.46 566.56 260.42 566.47 260.41C566.52 260.41 566.48 260.33 566.6 260.37L566.66 260.39C566.8 260.34 566.58 260.31 566.61 260.26C566.59 260.27 566.59 260.29 566.54 260.28L566.55 260.24L566.61 260.25L566.65 260.19H566.57C566.61 260.16 566.74 260.15 566.63 260.11C566.57 260.09 566.53 260.14 566.5 260.11C566.55 260.07 566.63 260.01 566.65 259.95C566.55 259.95 566.57 259.94 566.55 259.93H566.62C566.52 259.87 566.78 259.91 566.7 259.85H566.75L566.59 259.84C566.44 259.79 566.74 259.81 566.54 259.76C566.55 259.78 566.38 259.77 566.41 259.74L566.48 259.75C566.46 259.74 566.43 259.73 566.45 259.72C566.49 259.73 566.55 259.72 566.55 259.7L566.65 259.71L566.52 259.67C566.6 259.64 566.5 259.59 566.6 259.57C566.6 259.57 566.65 259.5 566.54 259.47C566.61 259.48 566.64 259.45 566.72 259.46C566.64 259.44 566.58 259.39 566.66 259.36H566.67C566.77 259.28 566.55 259.23 566.66 259.16C566.56 259.16 566.62 259.13 566.51 259.14C566.41 259.07 566.74 259.01 566.39 258.98C566.37 258.95 566.47 258.94 566.49 258.92L566.51 258.93C566.48 258.87 566.48 258.85 566.49 258.8C566.46 258.78 566.29 258.77 566.34 258.73C566.4 258.74 566.39 258.73 566.39 258.71C566.4 258.72 566.42 258.72 566.47 258.7C566.45 258.7 566.44 258.69 566.43 258.69C566.43 258.66 566.41 258.67 566.4 258.68H566.36C566.44 258.65 566.35 258.61 566.46 258.6C566.43 258.52 566.32 258.47 566.28 258.4C566.34 258.39 566.38 258.41 566.41 258.43L566.39 258.38C566.47 258.38 566.44 258.41 566.45 258.42C566.58 258.37 566.32 258.32 566.44 258.24L566.38 258.23H566.39C566.359 258.23 566.328 258.224 566.3 258.21C566.37 258.2 566.46 258.21 566.46 258.18C566.53 258.16 566.43 258.11 566.39 258.08C566.38 258.1 566.34 258.09 566.31 258.08C566.31 258.06 566.38 258.06 566.35 258.04H566.45C566.35 258.05 566.35 258 566.32 257.99C566.39 257.98 566.38 258.01 566.42 258.02C566.41 257.96 566.42 257.99 566.41 257.92C566.34 257.89 566.31 257.93 566.24 257.91C566.22 257.88 566.16 257.85 566.21 257.81L566.13 257.82C566.06 257.76 566.07 257.72 566.16 257.69C565.48 257.27 565.23 257.59 565.23 257.59C565.03 257.77 565.26 257.85 565.33 258.05L565.36 258.13Z" fill="#B1CBC0"/>
<path d="M566.45 268.28L566.42 268.29C566.43 268.3 566.44 268.29 566.45 268.28Z" fill="#B1CBC0"/>
<path d="M565.36 268.13C565.32 268.3 565.16 268.35 565.22 268.53C565.21 268.61 565.24 268.71 565.26 268.79C565.39 268.83 565.26 268.89 565.36 268.95L565.29 268.97C565.33 268.99 565.35 269 565.31 269.02H565.29C565.34 269.04 565.31 269.07 565.34 269.08H565.32L565.33 269.11H565.3C565.36 269.15 565.36 269.21 565.34 269.23H565.44C565.34 269.31 565.52 269.33 565.41 269.41H565.39C565.62 269.51 565.23 269.56 565.45 269.65C565.42 269.64 565.41 269.66 565.38 269.65C565.4 269.69 565.42 269.75 565.58 269.75C565.58 269.78 565.53 269.78 565.46 269.78C565.53 269.78 565.56 269.81 565.56 269.83H565.53L565.56 269.9L565.7 269.89C565.66 269.93 565.53 269.9 565.56 269.94H565.68C565.66 269.99 565.48 270.02 565.38 270.07C565.33 270.27 565.63 270.51 565.42 270.71L565.32 270.72C565.19 270.72 565.52 270.77 565.39 270.78L565.45 270.8C565.43 270.81 565.4 270.82 565.37 270.81C565.36 270.83 565.39 270.83 565.43 270.85L565.35 270.87C565.29 270.95 565.45 271.02 565.41 271.11C565.25 271.21 565.4 271.41 565.48 271.53C565.68 271.69 565.16 271.88 565.38 272.03C565.36 272.04 565.4 272.05 565.42 272.05L565.4 272.2C565.4 272.2 565.35 272.93 566.42 272.38H566.45C566.52 272.3 566.53 272.25 566.39 272.18C566.56 272.17 566.41 272.11 566.46 272.08H566.47C566.34 272.03 566.57 271.98 566.46 271.93C566.47 271.93 566.52 271.93 566.52 271.94C566.5 271.9 566.46 271.86 566.56 271.84C566.53 271.76 566.58 271.64 566.42 271.58H566.45C566.35 271.55 566.43 271.54 566.38 271.51H566.41C566.31 271.48 566.39 271.41 566.35 271.38H566.42L566.4 271.31L566.39 271.34C566.21 271.33 566.51 271.29 566.39 271.24C566.41 271.19 566.01 271.14 566.09 271.1C565.99 271.08 566.23 271.12 566.16 271.09C566.26 271.09 566.22 271.11 566.3 271.1C566.25 271.07 566.4 271.05 566.33 271H566.4C566.26 270.95 566.5 270.9 566.37 270.86C566.31 270.81 566.59 270.82 566.45 270.76L566.55 270.74C566.57 270.72 566.43 270.72 566.48 270.7C566.54 270.7 566.53 270.67 566.58 270.68C566.68 270.62 566.44 270.56 566.61 270.48C566.49 270.46 566.56 270.42 566.47 270.41C566.52 270.41 566.48 270.33 566.6 270.37L566.66 270.39C566.8 270.34 566.58 270.31 566.61 270.26C566.59 270.27 566.59 270.29 566.54 270.28L566.55 270.24L566.61 270.25L566.65 270.19H566.57C566.61 270.16 566.74 270.15 566.63 270.11C566.57 270.09 566.53 270.14 566.5 270.11C566.55 270.07 566.63 270.01 566.65 269.95C566.55 269.95 566.57 269.94 566.55 269.93H566.62C566.52 269.87 566.78 269.91 566.7 269.85H566.75L566.59 269.84C566.44 269.79 566.74 269.81 566.54 269.76C566.55 269.78 566.38 269.77 566.41 269.74L566.48 269.75C566.46 269.74 566.43 269.73 566.45 269.72C566.49 269.73 566.55 269.72 566.55 269.7L566.65 269.71L566.52 269.67C566.6 269.64 566.5 269.59 566.6 269.57C566.6 269.57 566.65 269.5 566.54 269.47C566.61 269.48 566.64 269.45 566.72 269.46C566.64 269.44 566.58 269.39 566.66 269.36H566.67C566.77 269.28 566.55 269.23 566.66 269.16C566.56 269.16 566.62 269.13 566.51 269.14C566.41 269.07 566.74 269.01 566.39 268.98C566.37 268.95 566.47 268.94 566.49 268.92L566.51 268.93C566.48 268.87 566.48 268.85 566.49 268.8C566.46 268.78 566.29 268.77 566.34 268.73C566.4 268.74 566.39 268.73 566.39 268.71C566.4 268.72 566.42 268.72 566.47 268.7C566.45 268.7 566.44 268.69 566.43 268.69C566.43 268.66 566.41 268.67 566.4 268.68H566.36C566.44 268.65 566.35 268.61 566.46 268.6C566.43 268.52 566.32 268.47 566.28 268.4C566.34 268.39 566.38 268.41 566.41 268.43L566.39 268.38C566.47 268.38 566.44 268.41 566.45 268.42C566.58 268.37 566.32 268.32 566.44 268.24L566.38 268.23H566.39C566.359 268.23 566.328 268.224 566.3 268.21C566.37 268.2 566.46 268.21 566.46 268.18C566.53 268.16 566.43 268.11 566.39 268.08C566.38 268.1 566.34 268.09 566.31 268.08C566.31 268.06 566.38 268.06 566.35 268.04H566.45C566.35 268.05 566.35 268 566.32 267.99C566.39 267.98 566.38 268.01 566.42 268.02C566.41 267.96 566.42 267.99 566.41 267.92C566.34 267.89 566.31 267.93 566.24 267.91C566.22 267.88 566.16 267.85 566.21 267.81L566.13 267.82C566.06 267.76 566.07 267.72 566.16 267.69C565.48 267.27 565.23 267.59 565.23 267.59C565.03 267.77 565.26 267.85 565.33 268.05L565.36 268.13Z" fill="#B1CBC0"/>
<path d="M567.33 198.3C593.519 198.3 614.75 177.069 614.75 150.88C614.75 124.691 593.519 103.46 567.33 103.46C541.14 103.46 519.91 124.691 519.91 150.88C519.91 177.069 541.14 198.3 567.33 198.3Z" fill="#E8A572"/>
<path d="M565.42 196.84C591.609 196.84 612.84 175.609 612.84 149.42C612.84 123.231 591.609 102 565.42 102C539.231 102 518 123.231 518 149.42C518 175.609 539.231 196.84 565.42 196.84Z" fill="#EFBB78"/>
<path d="M589.91 182.77L587.25 184.57C585.93 185.39 584.55 186.14 583.15 186.81C581.68 187.51 580.17 188.11 578.61 188.64C574.47 190.04 570.04 190.78 565.43 190.78C542.58 190.78 524.06 172.26 524.06 149.41C524.06 140.86 526.66 132.91 531.1 126.31C532.44 124.31 533.96 122.45 535.62 120.71C537.282 118.979 539.092 117.396 541.03 115.98C548.108 110.789 556.661 107.996 565.44 108.01C588.29 108.01 606.81 126.53 606.81 149.38C606.825 159.665 602.994 169.585 596.07 177.19C596.06 177.21 592.57 180.95 589.92 182.75L589.91 182.77Z" fill="#CEE4D0"/>
<path d="M526.48 152.44C526.48 143.89 529.08 135.94 533.52 129.34C534.86 127.34 536.38 125.48 538.04 123.74C539.702 122.009 541.512 120.426 543.45 119.01C550.529 113.819 559.081 111.026 567.86 111.04C580.26 111.04 591.36 116.49 598.94 125.12C591.42 114.76 579.22 108.02 565.44 108.02C556.661 108.006 548.109 110.799 541.03 115.99C539.092 117.406 537.282 118.989 535.62 120.72C533.958 122.453 532.446 124.323 531.1 126.31C526.66 132.91 524.06 140.85 524.06 149.41C524.048 159.462 527.711 169.171 534.36 176.71C529.4 169.89 526.48 161.51 526.48 152.43V152.44Z" fill="#B2CEB3"/>
<path d="M565.72 145.37L565.77 145.32C565.75 145.31 565.74 145.32 565.72 145.37ZM569.02 130.21V130.19V130.21ZM567.39 143.29V143.31V143.29Z" fill="white"/>
<path d="M566.62 146.31C566.84 145.51 567.04 145.34 567.16 144.49C567.26 144.09 567.31 143.67 567.38 143.27C567.3 143.07 567.48 142.77 567.43 142.52L567.53 142.45C567.51 142.37 567.51 142.27 567.56 142.21H567.58C567.55 142.09 567.61 141.97 567.6 141.91L567.62 141.92L567.64 141.78L567.66 141.81C567.652 141.612 567.686 141.414 567.76 141.23H567.66C567.84 140.87 567.69 140.69 567.88 140.38H567.9C567.77 139.9 568.2 139.73 568.1 139.24C568.11 139.3 568.15 139.23 568.17 139.23C568.19 139.03 568.23 138.8 568.07 138.76C568.1 138.61 568.15 138.66 568.22 138.64C568.15 138.62 568.14 138.49 568.17 138.37V138.43L568.22 138.09L568.07 138.13C568.15 137.96 568.25 138.12 568.25 137.93L568.15 137.91C568.23 137.67 568.43 137.56 568.57 137.34C568.83 136.36 568.77 135.24 569.17 134.36L569.27 134.34C569.4 134.35 569.14 134.04 569.26 134.04L569.23 133.92C569.26 133.89 569.3 133.84 569.31 133.9C569.34 133.8 569.32 133.8 569.29 133.72L569.39 133.62C569.54 133.24 569.46 132.88 569.59 132.47C569.86 132.01 569.91 131.05 569.94 130.5C569.92 129.7 570.61 128.94 570.56 128.12C570.58 128.1 570.56 128.02 570.54 128.02L570.71 127.32C570.71 127.32 571.51 123.92 569.91 126.28L569.89 126.26C569.74 126.63 569.67 126.86 569.75 127.16C569.57 127.17 569.65 127.46 569.59 127.56H569.58C569.66 127.82 569.38 128.02 569.43 128.26C569.42 128.25 569.37 128.23 569.38 128.18C569.37 128.35 569.35 128.58 569.25 128.58C569.19 128.98 569.02 129.52 569.13 129.81C569.2 129.98 569.11 130.01 569.12 130.17C569.11 130.18 569.1 130.19 569.09 130.18C569.16 130.36 569.01 130.64 569.02 130.78H568.95L568.9 131.1L568.94 131C569.11 131.08 568.78 131.2 568.84 131.46C568.77 131.66 569.12 131.96 568.98 132.16C569.04 132.28 568.86 132.04 568.88 132.21C568.78 132.19 568.84 132.11 568.75 132.15C568.76 132.31 568.6 132.38 568.62 132.59H568.55C568.63 132.87 568.35 133.04 568.45 133.23C568.45 133.5 568.2 133.35 568.28 133.65L568.16 133.73C568.12 133.83 568.26 133.83 568.19 133.95C568.13 133.93 568.11 134.1 568.06 134.01C567.9 134.28 568.07 134.61 567.82 134.96C567.92 135.06 567.81 135.24 567.89 135.32C567.84 135.32 567.79 135.7 567.73 135.46C567.72 135.44 567.73 135.41 567.75 135.41L567.68 135.37C567.5 135.57 567.67 135.77 567.6 135.99C567.64 135.93 567.65 135.85 567.7 135.91L567.65 136.11L567.6 136.06L567.5 136.36L567.58 136.34C567.51 136.48 567.38 136.5 567.44 136.68C567.48 136.78 567.57 136.58 567.56 136.72C567.46 136.9 567.33 137.17 567.26 137.42C567.36 137.42 567.33 137.48 567.33 137.55L567.26 137.54C567.3 137.82 567.08 137.6 567.1 137.88L567.05 137.85L567.19 137.95C567.29 138.22 567.01 138.05 567.15 138.35C567.16 138.25 567.32 138.34 567.25 138.45L567.19 138.4C567.19 138.47 567.21 138.5 567.19 138.55C567.16 138.5 567.09 138.51 567.09 138.61L567.02 138.51L567.12 138.73C567.02 138.86 567.05 139.13 566.94 139.16C566.94 139.16 566.82 139.46 566.91 139.56C566.86 139.48 566.79 139.66 566.71 139.58C566.77 139.68 566.78 139.94 566.67 140.02V140C566.51 140.35 566.65 140.65 566.47 140.96C566.57 140.96 566.47 141.13 566.59 141.11C566.62 141.47 566.23 141.68 566.54 141.88C566.52 142.04 566.42 142.05 566.39 142.12L566.38 142.08L566.28 142.68C566.29 142.78 566.44 142.85 566.36 143.03C566.31 142.95 566.31 143.04 566.29 143.11C566.29 143.06 566.27 143.04 566.21 143.13C566.23 143.15 566.23 143.17 566.24 143.19C566.22 143.31 566.24 143.29 566.26 143.24C566.27 143.24 566.28 143.24 566.3 143.23C566.2 143.33 566.23 143.58 566.12 143.57C566.07 143.94 566.12 144.22 566.1 144.53C566.04 144.55 566 144.47 566 144.38L565.97 144.6C565.89 144.58 565.95 144.47 565.95 144.4C565.77 144.63 565.96 144.95 565.78 145.22L565.83 145.3L565.82 145.32C565.85 145.33 565.88 145.4 565.88 145.45C565.8 145.48 565.72 145.41 565.7 145.55C565.6 145.65 565.66 145.89 565.66 146.05C565.69 145.97 565.72 146.01 565.74 146.05C565.73 146.12 565.64 146.15 565.67 146.21L565.57 146.2C565.67 146.19 565.62 146.4 565.65 146.45C565.57 146.48 565.62 146.32 565.57 146.29L565.49 146.74C565.53 146.91 565.59 146.73 565.65 146.82C565.64 146.96 565.67 147.12 565.58 147.26L565.68 147.23C565.69 147.51 565.64 147.66 565.52 147.83C565.76 149.93 566.34 148.43 566.34 148.43C566.74 147.68 566.57 147.23 566.71 146.3L566.62 146.31ZM565.42 115.18C565.14 115.18 564.92 114.96 564.92 114.68V111.18C564.92 110.9 565.14 110.68 565.42 110.68C565.7 110.68 565.92 110.9 565.92 111.18V114.68C565.92 114.96 565.7 115.18 565.42 115.18ZM565.42 188.78C565.14 188.78 564.92 188.56 564.92 188.28V184.78C564.92 184.5 565.14 184.28 565.42 184.28C565.7 184.28 565.92 184.5 565.92 184.78V188.28C565.92 188.413 565.867 188.54 565.773 188.633C565.68 188.727 565.552 188.78 565.42 188.78ZM603.98 150.22H600.48C600.2 150.22 599.98 150 599.98 149.72C599.98 149.44 600.2 149.22 600.48 149.22H603.98C604.26 149.22 604.48 149.44 604.48 149.72C604.48 150 604.26 150.22 603.98 150.22ZM530.38 150.22H526.88C526.6 150.22 526.38 150 526.38 149.72C526.38 149.44 526.6 149.22 526.88 149.22H530.38C530.66 149.22 530.88 149.44 530.88 149.72C530.88 149.853 530.827 149.98 530.733 150.073C530.64 150.167 530.512 150.22 530.38 150.22ZM569.08 151.18L569.12 151.25C569.13 151.23 569.13 151.21 569.08 151.18Z" fill="white"/>
<path d="M567.76 151.61C568.56 152.16 568.7 152.43 569.58 152.91C569.98 153.17 570.44 153.41 570.84 153.64C571.1 153.65 571.36 153.96 571.64 154.01L571.69 154.11C571.79 154.13 571.89 154.16 571.95 154.24L571.93 154.25C572.07 154.28 572.19 154.38 572.26 154.4H572.24L572.38 154.48H572.34C572.57 154.56 572.78 154.68 572.94 154.82L572.97 154.74C573.31 155.06 573.55 155 573.84 155.32L573.82 155.33C574.39 155.41 574.44 155.9 575.02 156C574.95 155.99 575.02 156.05 575.01 156.07C575.23 156.17 575.47 156.31 575.56 156.17C575.71 156.27 575.66 156.29 575.64 156.37C575.68 156.31 575.84 156.36 575.94 156.43L575.87 156.42L576.23 156.62L576.24 156.46C576.4 156.61 576.2 156.64 576.39 156.71L576.45 156.61C576.69 156.79 576.75 157.03 576.95 157.25C577.95 157.92 579.19 158.35 580.03 159.11V159.21C579.98 159.33 580.39 159.21 580.36 159.33L580.5 159.35C580.52 159.39 580.57 159.45 580.5 159.45C580.6 159.52 580.6 159.5 580.7 159.51L580.77 159.65C581.14 159.95 581.57 160.03 581.97 160.32C582.39 160.77 583.43 161.24 584.02 161.5C584.89 161.82 585.52 162.8 586.42 163.1C586.44 163.13 586.52 163.14 586.52 163.13L587.24 163.59C587.24 163.59 590.74 165.81 588.62 163.25L588.65 163.24C588.29 162.94 588.05 162.77 587.7 162.72C587.75 162.55 587.38 162.5 587.32 162.4H587.34C587.04 162.36 586.9 162 586.6 161.95C586.62 161.94 586.65 161.91 586.7 161.94C586.52 161.84 586.27 161.74 586.3 161.64C585.88 161.41 585.34 161.02 585 161H585.03C584.83 161 584.83 160.9 584.63 160.84C584.63 160.82 584.62 160.81 584.62 160.81C584.4 160.8 584.14 160.53 583.99 160.49L584.02 160.43L583.69 160.23L583.79 160.33C583.65 160.46 583.61 160.08 583.31 160.03C583.11 159.88 582.67 160.08 582.49 159.86C582.34 159.87 582.66 159.8 582.46 159.76C582.51 159.68 582.56 159.76 582.56 159.66C582.38 159.6 582.36 159.42 582.12 159.36L582.15 159.29C581.82 159.25 581.72 158.91 581.48 158.91C581.18 158.81 581.42 158.61 581.08 158.57L581.03 158.42C580.93 158.32 580.88 158.47 580.78 158.35C580.82 158.3 580.64 158.21 580.75 158.2C580.51 157.93 580.08 157.95 579.78 157.57C579.63 157.62 579.48 157.44 579.36 157.47C579.38 157.42 578.96 157.22 579.26 157.27C579.28 157.27 579.32 157.3 579.3 157.31L579.36 157.26C579.21 157.01 578.92 157.08 578.71 156.92C578.76 156.98 578.85 157.02 578.77 157.04L578.57 156.91L578.64 156.88L578.36 156.66V156.76C578.23 156.63 578.26 156.49 578.02 156.48C577.92 156.48 578.12 156.65 577.94 156.58C577.732 156.366 577.508 156.169 577.27 155.99C577.25 156.09 577.17 156.03 577.1 156L577.13 155.93C576.81 155.85 577.12 155.73 576.81 155.63L576.86 155.6L576.71 155.7C576.39 155.68 576.66 155.5 576.29 155.5C576.39 155.55 576.25 155.67 576.14 155.56L576.21 155.52C576.13 155.49 576.09 155.5 576.05 155.46C576.11 155.45 576.13 155.38 576.02 155.33L576.14 155.3L575.87 155.29C575.77 155.13 575.47 155.06 575.45 154.93C575.45 154.93 575.15 154.68 575.01 154.73C575.11 154.71 574.94 154.58 575.04 154.53C574.91 154.54 574.64 154.43 574.57 154.31H574.59C574.26 154.01 573.89 154.01 573.59 153.71C573.56 153.79 573.41 153.64 573.39 153.76C572.99 153.64 572.87 153.16 572.57 153.39C572.4 153.31 572.42 153.21 572.35 153.14L572.4 153.15L571.78 152.79C571.65 152.75 571.55 152.87 571.38 152.72C571.48 152.71 571.39 152.67 571.32 152.62C571.37 152.64 571.4 152.63 571.32 152.52C571.3 152.53 571.27 152.53 571.24 152.52C571.11 152.45 571.14 152.48 571.18 152.53C571.17 152.54 571.17 152.55 571.18 152.58C571.08 152.43 570.82 152.36 570.86 152.26C570.48 152.06 570.16 151.98 569.82 151.83C569.81 151.76 569.92 151.76 570.02 151.8L569.79 151.68C569.83 151.61 569.94 151.72 570.02 151.75C569.82 151.48 569.42 151.53 569.17 151.25L569.07 151.26L569.06 151.24C569.04 151.27 568.96 151.27 568.9 151.25C568.89 151.15 569 151.11 568.83 151.02C568.75 150.89 568.47 150.84 568.3 150.77C568.38 150.83 568.33 150.85 568.28 150.85C568.2 150.81 568.2 150.72 568.12 150.71L568.16 150.63C568.14 150.73 567.91 150.59 567.86 150.6C567.85 150.5 568.01 150.62 568.06 150.59L567.6 150.32C567.4 150.28 567.58 150.42 567.46 150.44C567.31 150.37 567.13 150.34 567 150.19L567.01 150.29C566.71 150.19 566.55 150.07 566.41 149.89C564.05 149.23 565.51 150.42 565.51 150.42C566.21 151.07 566.75 151.12 567.73 151.64L567.76 151.61Z" fill="white"/>
<path d="M565.42 152.76C567.265 152.76 568.76 151.265 568.76 149.42C568.76 147.575 567.265 146.08 565.42 146.08C563.575 146.08 562.08 147.575 562.08 149.42C562.08 151.265 563.575 152.76 565.42 152.76Z" fill="white"/>
<path d="M668.4 387.92H508.6C507.38 387.92 506.21 387.435 505.347 386.573C504.485 385.71 504 384.54 504 383.32V282.62C504 281.4 504.485 280.23 505.347 279.367C506.21 278.505 507.38 278.02 508.6 278.02H668.4C669.62 278.02 670.79 278.505 671.653 279.367C672.515 280.23 673 281.4 673 282.62V383.32C673 384.54 672.515 385.71 671.653 386.573C670.79 387.435 669.62 387.92 668.4 387.92Z" fill="white"/>
<g opacity="0.5">
<path opacity="0.5" d="M668.4 387.92H508.6C507.38 387.92 506.21 387.435 505.347 386.573C504.485 385.71 504 384.54 504 383.32L668.4 278.02C669.62 278.02 670.79 278.505 671.653 279.367C672.515 280.23 673 281.4 673 282.62V383.32C673 384.54 672.515 385.71 671.653 386.573C670.79 387.435 669.62 387.92 668.4 387.92Z" fill="url(#paint3_linear)"/>
</g>
<path d="M504.01 291.25V282.63C504.01 281.41 504.494 280.24 505.357 279.377C506.22 278.515 507.39 278.03 508.61 278.03H668.41C669.63 278.03 670.8 278.515 671.662 279.377C672.525 280.24 673.01 281.41 673.01 282.63V291.25H504.01Z" fill="#B2968E"/>
<path d="M571.2 349.86H594.76V373.42H571.2V349.86ZM602.2 349.86H625.76V373.42H602.2V349.86ZM632.38 349.86H655.94V373.42H632.38V349.86Z" fill="#E3EFF9"/>
<path d="M580.97 302.07L581.2 302.1C581.2 302.09 581.14 302.08 580.97 302.07ZM639.23 302.06C639.25 302.06 639.27 302.06 639.28 302.05C639.25 302.06 639.24 302.06 639.23 302.06ZM589.93 303.26C589.9 303.26 589.88 303.27 589.86 303.27L589.93 303.26Z" fill="#E6F1FA"/>
<path d="M578.17 303.16L585.27 303.3L589.91 303.26C590.61 303.13 591.87 303.26 592.71 303.16L593.03 303.23C593.33 303.19 593.66 303.17 593.95 303.21L593.93 303.23C594.36 303.18 594.85 303.21 595.06 303.18V303.2H595.58L595.48 303.23C596.23 303.17 597 303.17 597.68 303.19L597.62 303.09C599.08 303.19 599.62 303.01 600.92 303.12L600.9 303.14C602.56 302.91 603.53 303.3 605.24 303.08C605.04 303.11 605.34 303.12 605.31 303.15C606.11 303.13 606.94 303.11 606.95 302.95C607.53 302.95 607.42 303 607.49 303.07C607.49 303 607.99 302.97 608.44 302.97L608.24 303L609.54 302.97L609.29 302.83C609.97 302.87 609.46 303 610.12 302.97L610.11 302.85C611.05 302.87 611.61 303.05 612.51 303.15C616.31 303.2 620.39 302.9 623.91 303.11L624.07 303.21C624.14 303.34 625.04 303.01 625.17 303.14L625.57 303.08C625.69 303.1 625.93 303.13 625.72 303.16C626.1 303.17 626.12 303.14 626.38 303.11L626.78 303.19C628.28 303.25 629.55 303.09 631.13 303.13C633.03 303.29 636.59 303.14 638.65 303.06C641.55 302.86 644.9 303.38 647.85 303.16C647.95 303.18 648.2 303.14 648.19 303.12L650.89 303.14C650.89 303.14 664.02 303.19 654.04 302.12L654.11 302.09C652.63 302.02 651.69 302.01 650.67 302.15C650.51 301.98 649.45 302.13 649.11 302.08L649.14 302.07C648.24 302.2 647.28 301.97 646.41 302.08C646.44 302.07 646.46 302.02 646.66 302.02C646.03 302.04 645.16 302.08 645.11 301.98C643.59 302.01 641.48 301.96 640.51 302.12L640.58 302.09C640.03 302.19 639.86 302.11 639.24 302.16C639.21 302.15 639.16 302.14 639.17 302.13C638.57 302.23 637.41 302.15 636.92 302.19L636.89 302.12L635.69 302.14H636.14C635.98 302.32 635.24 302.02 634.36 302.14C633.54 302.12 632.71 302.52 631.86 302.44C631.46 302.54 632.22 302.3 631.61 302.37C631.59 302.27 631.89 302.31 631.74 302.23C631.14 302.28 630.77 302.13 630.04 302.2L630.01 302.13C629.06 302.27 628.21 302.03 627.58 302.16C626.6 302.22 626.92 301.94 625.9 302.08L625.5 301.98C625.06 301.96 625.2 302.1 624.7 302.05C624.73 301.99 624.1 302 624.37 301.95C623.27 301.85 622.14 302.09 620.69 301.92C620.39 302.04 619.65 301.97 619.41 302.06C619.37 302.01 617.95 302.05 618.77 301.93C618.84 301.92 618.97 301.92 618.97 301.94L619.07 301.87C618.24 301.73 617.57 301.95 616.75 301.92C616.99 301.94 617.31 301.94 617.1 301.99L616.34 301.98L616.5 301.92L615.37 301.88L615.53 301.96C614.98 301.92 614.78 301.79 614.16 301.9C613.88 301.96 614.68 302 614.1 302.03C613.36 301.98 612.25 301.9 611.3 301.88C611.4 301.98 611.13 301.96 610.87 301.98L610.84 301.91C609.84 302.01 610.47 301.75 609.48 301.83L609.58 301.78L609.32 301.94C608.42 302.09 608.84 301.79 607.84 301.99C608.24 301.98 608.04 302.15 607.54 302.12L607.66 302.05C607.39 302.07 607.3 302.1 607.12 302.08C607.28 302.04 607.2 301.98 606.82 301.98L607.08 301.88L606.33 302.01C605.75 301.93 604.83 302.03 604.6 301.93C604.6 301.93 603.36 301.88 603.08 301.99C603.33 301.92 602.65 301.89 602.84 301.81C602.52 301.89 601.57 301.95 601.19 301.87L601.26 301.86C599.86 301.76 598.86 301.98 597.6 301.87C597.66 301.97 597 301.91 597.16 302.02C595.86 302.12 594.78 301.79 594.31 302.14C593.71 302.16 593.61 302.06 593.31 302.04L593.45 302.02C592.35 302.05 592.02 302.05 591.19 302.04C590.79 302.07 590.71 302.24 589.97 302.19C590.21 302.13 589.91 302.14 589.63 302.14C589.81 302.13 589.86 302.11 589.5 302.06C589.45 302.08 589.37 302.09 589.3 302.1C589.3 302.1 589.28 302.09 589.29 302.08C588.83 302.1 588.91 302.12 589.12 302.13C589.11 302.14 589.13 302.15 589.19 302.17C588.71 302.09 587.86 302.18 587.79 302.07C586.39 302.1 585.41 302.21 584.26 302.25C584.13 302.19 584.4 302.15 584.74 302.12L583.92 302.14C583.93 302.06 584.39 302.09 584.64 302.08C583.67 301.95 582.64 302.21 581.49 302.09L581.25 302.15H581.18C581.18 302.18 580.93 302.23 580.76 302.25C580.6 302.18 580.77 302.09 580.21 302.09C579.76 302.02 578.94 302.12 578.35 302.16C578.67 302.17 578.55 302.21 578.43 302.24C578.15 302.24 577.98 302.17 577.77 302.2L577.74 302.1C577.84 302.2 577 302.2 576.9 302.23C576.74 302.16 577.34 302.17 577.4 302.13L575.7 302.14C575.1 302.21 575.8 302.24 575.52 302.31C574.99 302.33 574.46 302.39 573.85 302.34L574.05 302.42C573.05 302.49 572.45 302.48 571.77 302.39C564.29 303.07 570.19 303.32 570.19 303.32C573.13 303.52 574.65 303.28 578.15 303.22L578.17 303.16ZM580.97 312.93L581.2 312.96C581.2 312.95 581.14 312.94 580.97 312.93ZM639.23 312.92C639.25 312.92 639.27 312.92 639.28 312.91C639.25 312.92 639.24 312.92 639.23 312.92ZM589.93 314.1C589.9 314.1 589.88 314.11 589.86 314.11H589.93V314.1Z" fill="#E6F1FA"/>
<path d="M578.17 314L585.27 314.14L589.91 314.1C590.61 313.97 591.87 314.1 592.71 314L593.03 314.07C593.33 314.03 593.66 314.01 593.95 314.05L593.93 314.07C594.36 314.02 594.85 314.05 595.06 314.02V314.04L595.58 314.03L595.48 314.06C596.23 314 597 314 597.68 314.02L597.62 313.92C599.08 314.02 599.62 313.84 600.92 313.95L600.9 313.97C602.56 313.74 603.53 314.13 605.24 313.91C605.04 313.94 605.34 313.95 605.31 313.98C606.11 313.96 606.94 313.94 606.95 313.78C607.53 313.78 607.42 313.83 607.49 313.9C607.49 313.82 607.99 313.8 608.44 313.8L608.24 313.83L609.54 313.8L609.29 313.66C609.97 313.7 609.46 313.83 610.12 313.8L610.11 313.68C611.05 313.7 611.61 313.88 612.51 313.98C616.31 314.03 620.39 313.73 623.91 313.94L624.07 314.04C624.14 314.17 625.04 313.84 625.17 313.97L625.57 313.91C625.69 313.93 625.93 313.96 625.72 313.99C626.1 313.99 626.12 313.97 626.38 313.94L626.78 314.02C628.28 314.08 629.55 313.92 631.13 313.96C633.03 314.12 636.59 313.97 638.65 313.89C641.55 313.69 644.9 314.21 647.85 313.99C647.95 314.01 648.2 313.97 648.19 313.95L650.89 313.97C650.89 313.97 664.02 314.02 654.04 312.95L654.11 312.92C652.63 312.85 651.69 312.84 650.67 312.98C650.51 312.81 649.45 312.96 649.11 312.91H649.14C648.24 313.04 647.28 312.81 646.41 312.92C646.44 312.91 646.46 312.86 646.66 312.86C646.03 312.88 645.16 312.92 645.11 312.82C643.59 312.85 641.48 312.8 640.51 312.96L640.58 312.93C640.03 313.03 639.86 312.95 639.24 313C639.21 312.99 639.16 312.98 639.17 312.97C638.57 313.07 637.41 312.99 636.92 313.03L636.89 312.96L635.69 312.98L636.14 312.99C635.98 313.17 635.24 312.87 634.36 312.99C633.54 312.97 632.71 313.37 631.86 313.29C631.46 313.39 632.22 313.15 631.61 313.22C631.59 313.12 631.89 313.16 631.74 313.08C631.14 313.13 630.77 312.98 630.04 313.05L630.01 312.98C629.06 313.12 628.21 312.88 627.58 313.01C626.6 313.07 626.92 312.79 625.9 312.93L625.5 312.83C625.06 312.81 625.2 312.95 624.7 312.9C624.73 312.84 624.1 312.85 624.37 312.8C623.27 312.7 622.14 312.94 620.69 312.77C620.39 312.89 619.65 312.82 619.41 312.91C619.37 312.86 617.95 312.9 618.77 312.78C618.84 312.77 618.97 312.77 618.97 312.79L619.07 312.72C618.24 312.58 617.57 312.8 616.75 312.77C616.99 312.79 617.31 312.79 617.1 312.84L616.34 312.83L616.5 312.77L615.37 312.73L615.53 312.81C614.98 312.77 614.78 312.64 614.16 312.75C613.88 312.81 614.68 312.85 614.1 312.88C613.36 312.83 612.25 312.75 611.3 312.73C611.4 312.83 611.13 312.81 610.87 312.83L610.84 312.76C609.84 312.86 610.47 312.6 609.48 312.68L609.58 312.63L609.32 312.79C608.42 312.94 608.84 312.64 607.84 312.84C608.24 312.83 608.04 313 607.54 312.97L607.66 312.9C607.39 312.92 607.3 312.95 607.12 312.93C607.28 312.89 607.2 312.83 606.82 312.83L607.08 312.73L606.33 312.86C605.75 312.78 604.83 312.88 604.6 312.78C604.6 312.78 603.36 312.73 603.08 312.84C603.33 312.77 602.65 312.74 602.84 312.66C602.52 312.74 601.57 312.8 601.19 312.72H601.26C599.86 312.62 598.86 312.84 597.6 312.73C597.66 312.83 597 312.77 597.16 312.88C595.86 312.98 594.78 312.65 594.31 313C593.71 313.02 593.61 312.92 593.31 312.9L593.45 312.88C592.35 312.91 592.02 312.91 591.19 312.9C590.79 312.93 590.71 313.1 589.97 313.05C590.21 312.99 589.91 313 589.63 313C589.81 312.99 589.86 312.97 589.5 312.92C589.45 312.94 589.37 312.95 589.3 312.96C589.3 312.95 589.28 312.95 589.29 312.94C588.83 312.96 588.91 312.98 589.12 312.99C589.11 313 589.13 313.01 589.19 313.03C588.71 312.95 587.86 313.04 587.79 312.93C586.39 312.96 585.41 313.07 584.26 313.11C584.13 313.05 584.4 313.01 584.74 312.98L583.92 313C583.93 312.92 584.39 312.95 584.64 312.94C583.67 312.81 582.64 313.07 581.49 312.95L581.25 313.01L581.18 313C581.18 313.03 580.93 313.08 580.76 313.1C580.6 313.03 580.77 312.94 580.21 312.94C579.76 312.87 578.94 312.97 578.35 313.01C578.67 313.02 578.55 313.06 578.43 313.09C578.15 313.09 577.98 313.02 577.77 313.05L577.74 312.95C577.84 313.05 577 313.05 576.9 313.08C576.74 313.01 577.34 313.02 577.4 312.98L575.7 312.99C575.1 313.06 575.8 313.09 575.52 313.16C574.99 313.18 574.46 313.24 573.85 313.19L574.05 313.27C573.05 313.34 572.45 313.33 571.77 313.24C564.29 313.92 570.19 314.17 570.19 314.17C573.13 314.37 574.65 314.14 578.15 314.07L578.17 314ZM580.97 334.32L581.2 334.35C581.2 334.34 581.14 334.33 580.97 334.32ZM639.23 334.3C639.25 334.3 639.27 334.3 639.28 334.29C639.25 334.29 639.24 334.3 639.23 334.3ZM589.93 335.5C589.9 335.5 589.88 335.51 589.86 335.51H589.93V335.5Z" fill="#E6F1FA"/>
<path d="M578.17 335.4L585.27 335.54L589.91 335.5C590.61 335.37 591.87 335.5 592.71 335.4L593.03 335.47C593.33 335.43 593.66 335.41 593.95 335.45L593.93 335.47C594.36 335.42 594.85 335.45 595.06 335.42V335.44L595.58 335.43L595.48 335.46C596.23 335.4 597 335.4 597.68 335.42L597.62 335.32C599.08 335.42 599.62 335.24 600.92 335.35L600.9 335.37C602.56 335.14 603.53 335.53 605.24 335.31C605.04 335.34 605.34 335.35 605.31 335.38C606.11 335.36 606.94 335.34 606.95 335.18C607.53 335.18 607.42 335.23 607.49 335.3C607.49 335.23 607.99 335.2 608.44 335.2L608.24 335.23L609.54 335.2L609.29 335.06C609.97 335.1 609.46 335.23 610.12 335.2L610.11 335.08C611.05 335.1 611.61 335.28 612.51 335.38C616.31 335.43 620.39 335.13 623.91 335.34L624.07 335.44C624.14 335.57 625.04 335.24 625.17 335.37L625.57 335.31C625.69 335.33 625.93 335.36 625.72 335.39C626.1 335.4 626.12 335.37 626.38 335.34L626.78 335.42C628.28 335.48 629.55 335.32 631.13 335.36C633.03 335.52 636.59 335.37 638.65 335.29C641.55 335.09 644.9 335.61 647.85 335.39C647.95 335.41 648.2 335.37 648.19 335.35L650.89 335.37C650.89 335.37 664.02 335.42 654.04 334.35L654.11 334.32C652.63 334.25 651.69 334.24 650.67 334.38C650.51 334.21 649.45 334.36 649.11 334.31H649.14C648.24 334.44 647.28 334.21 646.41 334.32C646.44 334.31 646.46 334.26 646.66 334.26C646.03 334.28 645.16 334.32 645.11 334.22C643.59 334.25 641.48 334.2 640.51 334.36L640.58 334.33C640.03 334.43 639.86 334.35 639.24 334.4C639.21 334.39 639.16 334.38 639.17 334.37C638.57 334.47 637.41 334.39 636.92 334.43L636.89 334.36L635.69 334.38L636.14 334.39C635.98 334.57 635.24 334.27 634.36 334.39C633.54 334.37 632.71 334.77 631.86 334.69C631.46 334.79 632.22 334.55 631.61 334.62C631.59 334.52 631.89 334.56 631.74 334.48C631.14 334.53 630.77 334.38 630.04 334.45L630.01 334.38C629.06 334.52 628.21 334.28 627.58 334.41C626.6 334.47 626.92 334.19 625.9 334.33L625.5 334.23C625.06 334.21 625.2 334.35 624.7 334.3C624.73 334.24 624.1 334.25 624.37 334.2C623.27 334.1 622.14 334.34 620.69 334.17C620.39 334.29 619.65 334.22 619.41 334.31C619.37 334.26 617.95 334.3 618.77 334.18C618.84 334.17 618.97 334.17 618.97 334.19L619.07 334.12C618.24 333.98 617.57 334.2 616.75 334.17C616.99 334.19 617.31 334.19 617.1 334.24L616.34 334.23L616.5 334.17L615.37 334.13L615.53 334.21C614.98 334.17 614.78 334.04 614.16 334.15C613.88 334.21 614.68 334.25 614.1 334.28C613.36 334.23 612.25 334.15 611.3 334.13C611.4 334.23 611.13 334.21 610.87 334.23L610.84 334.16C609.84 334.26 610.47 334 609.48 334.08L609.58 334.03L609.32 334.19C608.42 334.34 608.84 334.04 607.84 334.24C608.24 334.23 608.04 334.4 607.54 334.37L607.66 334.3C607.39 334.32 607.3 334.35 607.12 334.33C607.28 334.29 607.2 334.23 606.82 334.23L607.08 334.13L606.33 334.26C605.75 334.18 604.83 334.28 604.6 334.18C604.6 334.18 603.36 334.13 603.08 334.24C603.33 334.17 602.65 334.14 602.84 334.06C602.52 334.14 601.57 334.2 601.19 334.12H601.26C599.86 334.02 598.86 334.24 597.6 334.13C597.66 334.23 597 334.17 597.16 334.28C595.86 334.38 594.78 334.05 594.31 334.4C593.71 334.42 593.61 334.32 593.31 334.3L593.45 334.28C592.35 334.31 592.02 334.31 591.19 334.3C590.79 334.33 590.71 334.5 589.97 334.45C590.21 334.39 589.91 334.4 589.63 334.4C589.81 334.39 589.86 334.37 589.5 334.32C589.45 334.34 589.37 334.35 589.3 334.36C589.3 334.36 589.28 334.35 589.29 334.34C588.83 334.36 588.91 334.38 589.12 334.39C589.11 334.4 589.13 334.41 589.19 334.43C588.71 334.35 587.86 334.44 587.79 334.33C586.39 334.36 585.41 334.47 584.26 334.51C584.13 334.45 584.4 334.41 584.74 334.38L583.92 334.4C583.93 334.32 584.39 334.35 584.64 334.34C583.67 334.21 582.64 334.47 581.49 334.35L581.25 334.41L581.18 334.4C581.18 334.43 580.93 334.48 580.76 334.5C580.6 334.43 580.77 334.34 580.21 334.34C579.76 334.27 578.94 334.37 578.35 334.41C578.67 334.42 578.55 334.46 578.43 334.49C578.15 334.49 577.98 334.42 577.77 334.45L577.74 334.35C577.84 334.45 577 334.45 576.9 334.48C576.74 334.41 577.34 334.42 577.4 334.38L575.7 334.39C575.1 334.46 575.8 334.49 575.52 334.56C574.99 334.58 574.46 334.64 573.85 334.59L574.05 334.67C573.05 334.74 572.45 334.73 571.77 334.64C564.29 335.32 570.19 335.57 570.19 335.57C573.13 335.77 574.65 335.54 578.15 335.47L578.17 335.4ZM575.05 323.2L575.17 323.23C575.17 323.22 575.14 323.21 575.05 323.2ZM606.35 323.18C606.36 323.18 606.37 323.18 606.38 323.17C606.36 323.17 606.36 323.18 606.35 323.18ZM579.85 324.38C579.83 324.38 579.82 324.39 579.81 324.39L579.85 324.38Z" fill="#E6F1FA"/>
<path d="M573.55 324.27C575.2 324.31 575.65 324.47 577.35 324.41L579.85 324.37C580.23 324.24 580.9 324.37 581.35 324.27L581.52 324.34C581.67 324.3 581.86 324.28 582.02 324.32L582.01 324.34C582.24 324.29 582.51 324.32 582.61 324.29L582.6 324.31H582.88L582.83 324.34C583.23 324.28 583.65 324.28 584.01 324.3L583.98 324.2C584.76 324.3 585.05 324.12 585.76 324.23V324.25C586.66 324.02 587.16 324.41 588.09 324.19C587.99 324.22 588.14 324.23 588.13 324.26C588.55 324.24 589.01 324.22 589.01 324.06C589.31 324.06 589.26 324.11 589.31 324.18C589.31 324.11 589.58 324.08 589.81 324.08L589.71 324.11L590.41 324.08L590.27 323.94C590.64 323.98 590.37 324.11 590.71 324.08V323.96C591.21 323.98 591.51 324.16 592.01 324.26C594.05 324.31 596.24 324.01 598.14 324.22L598.22 324.32C598.26 324.45 598.74 324.12 598.82 324.25L599.04 324.19C599.1 324.21 599.24 324.24 599.12 324.27C599.32 324.28 599.32 324.25 599.48 324.22L599.7 324.3C600.5 324.36 601.2 324.2 602.04 324.24C603.06 324.4 604.97 324.25 606.08 324.17C607.63 323.97 609.44 324.49 611.03 324.27C611.08 324.29 611.23 324.25 611.21 324.23L612.66 324.25C612.66 324.25 619.71 324.3 614.36 323.23L614.4 323.2C613.6 323.13 613.1 323.12 612.55 323.26C612.45 323.09 611.9 323.24 611.71 323.19L611.73 323.18C611.23 323.31 610.73 323.08 610.26 323.19C610.28 323.18 610.29 323.13 610.4 323.13C610.06 323.15 609.6 323.19 609.57 323.09C608.77 323.12 607.62 323.07 607.1 323.23L607.14 323.2C606.84 323.3 606.76 323.22 606.42 323.27C606.4 323.26 606.38 323.25 606.38 323.24C606.06 323.34 605.43 323.26 605.18 323.3L605.16 323.23L604.51 323.25H604.75C604.67 323.43 604.25 323.13 603.79 323.25C603.35 323.23 602.89 323.63 602.45 323.55C602.23 323.65 602.65 323.41 602.32 323.48C602.31 323.38 602.47 323.42 602.39 323.34C602.07 323.39 601.87 323.24 601.49 323.31L601.47 323.24C600.97 323.38 600.5 323.14 600.17 323.27C599.64 323.33 599.82 323.05 599.27 323.19L599.07 323.09C598.83 323.07 598.9 323.21 598.64 323.16C598.66 323.1 598.31 323.11 598.46 323.06C597.86 322.96 597.26 323.2 596.48 323.03C596.31 323.15 595.92 323.08 595.78 323.17C595.76 323.12 595 323.16 595.44 323.04C595.48 323.03 595.54 323.03 595.54 323.05L595.59 322.98C595.15 322.84 594.79 323.06 594.35 323.03C594.48 323.05 594.65 323.05 594.55 323.1L594.15 323.09L594.23 323.03L593.63 322.99L593.71 323.07C593.41 323.03 593.31 322.9 592.97 323.01C592.82 323.07 593.25 323.11 592.94 323.14L591.44 322.99C591.49 323.09 591.34 323.07 591.21 323.09L591.19 323.02C590.65 323.12 590.99 322.86 590.46 322.94L590.51 322.89L590.37 323.05C589.89 323.2 590.11 322.9 589.57 323.1C589.77 323.09 589.67 323.26 589.41 323.23L589.48 323.16C589.34 323.18 589.28 323.21 589.18 323.19C589.28 323.15 589.23 323.09 589.01 323.09L589.15 322.99L588.75 323.12C588.45 323.04 587.95 323.14 587.82 323.04C587.82 323.04 587.15 322.99 587 323.1C587.13 323.03 586.77 323 586.87 322.92C586.7 323 586.19 323.06 585.97 322.98L586.01 322.97C585.26 322.87 584.71 323.09 584.04 322.98C584.07 323.08 583.71 323.02 583.8 323.13C583.1 323.23 582.52 322.9 582.27 323.25C581.95 323.27 581.89 323.17 581.73 323.15H581.81H580.61C580.39 323.18 580.35 323.35 579.96 323.3C580.09 323.24 579.93 323.25 579.78 323.25C579.88 323.24 579.9 323.22 579.71 323.17C579.68 323.19 579.64 323.2 579.61 323.21C579.61 323.21 579.6 323.2 579.6 323.19C579.35 323.21 579.4 323.23 579.5 323.24C579.49 323.25 579.5 323.26 579.54 323.28C579.28 323.2 578.82 323.29 578.79 323.18C578.05 323.21 577.51 323.32 576.89 323.36C576.82 323.3 576.97 323.26 577.15 323.23H576.71C576.71 323.15 576.96 323.18 577.11 323.17C576.59 323.04 576.03 323.3 575.41 323.18L575.28 323.24L575.24 323.23C575.24 323.26 575.1 323.31 575.01 323.33C574.91 323.26 575.02 323.17 574.71 323.17C574.47 323.1 574.03 323.2 573.71 323.24C573.88 323.25 573.81 323.29 573.75 323.32C573.6 323.32 573.51 323.25 573.39 323.28L573.38 323.18C573.44 323.28 572.98 323.28 572.93 323.31C572.83 323.24 573.17 323.25 573.2 323.21L572.3 323.22C571.97 323.29 572.36 323.32 572.2 323.39C571.9 323.41 571.63 323.47 571.3 323.42L571.4 323.5C570.86 323.57 570.54 323.56 570.17 323.47C566.15 324.15 569.32 324.4 569.32 324.4C570.95 324.6 571.77 324.37 573.65 324.3L573.55 324.27Z" fill="#E6F1FA"/>
<path d="M511.54 286.78C512.854 286.78 513.92 285.714 513.92 284.4C513.92 283.086 512.854 282.02 511.54 282.02C510.225 282.02 509.16 283.086 509.16 284.4C509.16 285.714 510.225 286.78 511.54 286.78Z" fill="#FFA88A"/>
<path d="M518.79 286.78C520.104 286.78 521.17 285.714 521.17 284.4C521.17 283.086 520.104 282.02 518.79 282.02C517.475 282.02 516.41 283.086 516.41 284.4C516.41 285.714 517.475 286.78 518.79 286.78Z" fill="#FFE197"/>
<path d="M525.79 286.78C527.104 286.78 528.17 285.714 528.17 284.4C528.17 283.086 527.104 282.02 525.79 282.02C524.475 282.02 523.41 283.086 523.41 284.4C523.41 285.714 524.475 286.78 525.79 286.78Z" fill="#BDD184"/>
<path d="M518.75 301.1H557.22V339.57H518.75V301.1Z" fill="#CEE4D0"/>
<g opacity="0.5">
<path opacity="0.5" d="M668.4 278.03H594.1V291.25H673V282.63C673 281.41 672.515 280.24 671.653 279.377C670.79 278.515 669.62 278.03 668.4 278.03Z" fill="url(#paint4_linear)"/>
</g>
<path d="M671.67 291.2L670.97 289.74L670.01 291.24L671.67 291.2ZM672.95 284.63V287.66L670.75 286.49L672.95 284.63ZM662.09 290.1L661.86 290.6L662.4 290.5L662.09 290.1ZM658.29 286.56L658.05 287.06L658.59 286.96L658.29 286.56ZM661.49 284.72L661.25 285.22L661.79 285.12L661.49 284.72ZM663.85 284.86L663.61 285.36L664.15 285.26L663.85 284.86ZM655.21 288.48L655.69 288.75L655.62 288.21L655.21 288.48ZM661.75 288.55L662.22 288.83L662.16 288.29L661.75 288.55ZM653.32 286.3L653.72 286.5L653.68 286.06L653.32 286.3ZM653.45 290.35L653.85 290.55L653.81 290.11L653.45 290.35ZM649.65 285.65L650.05 285.85L650.01 285.4L649.65 285.65ZM660.77 286.99L661.25 287.27L661.18 286.72L660.77 286.99ZM666.11 284.59L665.88 285.09L666.42 284.99L666.11 284.59ZM665.55 290.36L664.9 291.11L665.96 291.08L665.55 290.36ZM664.2 289.42L663.54 290.16L664.6 290.14L664.2 289.42ZM667.72 288.79L667.07 289.53L668.13 289.5L667.72 288.79Z" fill="#8E706B"/>
<path d="M669.67 289.73L668.77 288.33L668.05 289.43L669.67 289.73ZM652.8 283.4L652.25 283.38L652.55 283.78L652.8 283.4ZM663 287.7L662.45 287.67L662.75 288.07L663 287.7ZM664.26 290.6L663.7 290.57L664 290.97L664.26 290.6ZM665.44 284.53L664.89 284.5L665.19 284.9L665.44 284.53ZM660.14 289.23L659.59 289.2L659.89 289.6L660.14 289.23ZM646.18 290.08L645.63 290.05L645.93 290.45L646.18 290.08ZM646.84 284.98L646.29 284.95L646.59 285.35L646.84 284.98ZM662.58 285.2L662.8 284.34L662 284.74L662.58 285.2ZM665.71 286.87L665.94 286.02L665.14 286.4L665.71 286.87ZM670.14 291.2L669.44 289.85L668.91 291.15L670.14 291.2ZM665.9 285.42L664.92 285.47L665.32 286.07L665.9 285.42ZM672.17 282.3L671.17 282.36L671.57 282.96L672.17 282.3ZM665.17 288.05L665.05 288.93L665.87 288.56L665.17 288.05ZM667.72 290.12L666.46 289.72L666.96 291.07L667.72 290.12ZM669.15 287.3L667.89 286.9L668.39 288.25L669.15 287.3Z" fill="#8E706B"/>
<path d="M666.55 287.54L665.7 287.74L666.42 288.24L666.55 287.54ZM661.05 290.14L660.95 290.48L660.75 290.18L660.4 290.48L660.9 290.58L660.6 291.18L661.92 290.88L661.05 290.14ZM666.87 283.41L666.77 283.75L666.57 283.45L666.21 283.75L666.71 283.83L666.41 284.43L667.74 284.15L666.87 283.41ZM671.83 284.67L671.73 285L671.53 284.7L671.17 285L671.67 285.08L671.37 285.68L672.7 285.4L671.83 284.67ZM668.93 291.15L668.77 289.65L667.93 290.78L668.93 291.15ZM659.03 290.95L659.55 290.25L658.65 290.31L659.03 290.95ZM665.63 290.05L666.15 289.35L665.25 289.41L665.63 290.05ZM672.95 282.15L670.8 280.97L672.4 280.37L672.95 282.15ZM671.48 280.45L670.78 279L669.81 280.5L671.48 280.45ZM661.95 278.62L661.71 279.12L662.25 279.02L661.95 278.62ZM645.01 280.99L645.41 281.19L645.38 280.75L645.01 280.99ZM653.31 278.79L653.71 279.01L653.68 278.56L653.31 278.79ZM641.46 279.37L641.86 279.59L641.83 279.14L641.46 279.37ZM656.98 280.85L657.38 281.07L657.34 280.62L656.98 280.85ZM665.41 278.92L664.75 279.66L665.81 279.64L665.41 278.92ZM666.46 282.69L665.8 283.43L666.86 283.41L666.46 282.69Z" fill="#8E706B"/>
<defs>
<linearGradient id="paint0_linear" x1="-28.176" y1="202.505" x2="626.705" y2="616.814" gradientUnits="userSpaceOnUse">
<stop stop-color="#EE5647"/>
<stop offset="1" stop-color="#84433E"/>
</linearGradient>
<linearGradient id="paint1_linear" x1="574.1" y1="-112.806" x2="0.0979654" y2="284.451" gradientUnits="userSpaceOnUse">
<stop stop-color="#EE5647"/>
<stop offset="1" stop-color="#84433E"/>
</linearGradient>
<linearGradient id="paint2_linear" x1="593.482" y1="631.885" x2="576.026" y2="-104.874" gradientUnits="userSpaceOnUse">
<stop stop-color="#EE5647"/>
<stop offset="1" stop-color="#84433E"/>
</linearGradient>
<linearGradient id="paint3_linear" x1="642.062" y1="203.614" x2="777.175" y2="555.374" gradientUnits="userSpaceOnUse">
<stop stop-color="#ABC1DA" stop-opacity="0"/>
<stop offset="1" stop-color="#ABC1DA"/>
</linearGradient>
<linearGradient id="paint4_linear" x1="594.108" y1="284.638" x2="672.998" y2="284.638" gradientUnits="userSpaceOnUse">
<stop stop-color="#896E67" stop-opacity="0"/>
<stop offset="1" stop-color="#896E67"/>
</linearGradient>
</defs>
</svg>
