<svg width="290" height="353" viewBox="0 0 290 353" fill="none" xmlns="http://www.w3.org/2000/svg">
<g opacity="0.1">
<path fill-rule="evenodd" clip-rule="evenodd" d="M269.102 352.781C240.677 317.799 205.323 287.529 163.545 264.393C121.763 241.253 77.4092 227.382 32.7839 221.91C50.877 196.221 71.5621 172.097 94.5099 149.747C122.912 175.306 154.486 198.169 189.311 217.454C224.134 236.741 260.236 251.355 296.914 261.835C290.347 293.257 281.072 323.7 269.102 352.781Z" fill="url(#paint0_linear)"/>
<path fill-rule="evenodd" clip-rule="evenodd" d="M32.7836 221.91L30 80.0814L32.7836 221.91ZM94.5096 149.747C70.7012 128.323 49.0875 105.035 30 80.0814C39.5448 92.5571 49.7196 104.619 60.4852 116.237C49.7196 104.619 39.5448 92.5571 30 80.0814C74.3762 72.8458 118.151 57.2311 158.992 32.4577C199.832 7.68427 233.969 -23.9608 261 -60.0415L384.68 8.45352L261 -60.0415C274.102 -31.4569 284.563 -1.40416 292.36 29.7322C256.12 41.6578 220.62 57.6902 186.579 78.3382C152.538 98.9861 121.886 123.083 94.5096 149.747Z" fill="url(#paint1_linear)"/>
<path fill-rule="evenodd" clip-rule="evenodd" d="M32.7836 221.91L30 80.0814C49.0875 105.035 70.7012 128.323 94.5096 149.747C71.5618 172.097 50.8766 196.221 32.7836 221.91Z" fill="#D23D3C"/>
<path d="M269.101 352.782L389.998 279.446C358.802 276.551 327.658 270.622 296.914 261.835C304.752 224.351 308.678 185.455 307.893 145.522C307.109 105.587 301.659 66.878 292.36 29.7323C322.734 19.7361 353.62 12.5791 384.68 8.45361C368.732 50.6698 360.307 96.5544 361.248 144.466C362.189 192.377 372.405 237.893 390 279.446L269.101 352.782Z" fill="url(#paint2_linear)"/>
<path d="M269.101 352.782C281.071 323.701 290.346 293.257 296.914 261.835C327.658 270.622 358.802 276.551 389.998 279.446L269.101 352.782Z" fill="#913838"/>
<path d="M292.36 29.7322C284.564 -1.40416 274.103 -31.4569 261 -60.0415L384.681 8.45351C353.621 12.579 322.734 19.736 292.36 29.7322Z" fill="#D73D3D"/>
</g>
<path opacity="0.15" d="M162.33 98.01H58.73V170.91H162.33C162.934 170.91 163.532 170.791 164.09 170.56C164.648 170.329 165.156 169.99 165.583 169.563C166.01 169.136 166.349 168.628 166.58 168.07C166.811 167.512 166.93 166.914 166.93 166.31V102.61C166.93 101.39 166.445 100.22 165.583 99.3573C164.72 98.4947 163.55 98.01 162.33 98.01Z" fill="#D18B69"/>
<path d="M150.4 158.98H4.6C3.38001 158.98 2.20998 158.495 1.34731 157.633C0.484642 156.77 0 155.6 0 154.38V90.6801C0 90.076 0.118983 89.4778 0.350155 88.9197C0.581326 88.3616 0.92016 87.8545 1.34731 87.4274C1.77446 87.0002 2.28156 86.6614 2.83966 86.4302C3.39775 86.1991 3.99592 86.0801 4.6 86.0801H150.4C151.004 86.0801 151.602 86.1991 152.16 86.4302C152.718 86.6614 153.226 87.0002 153.653 87.4274C154.08 87.8545 154.419 88.3616 154.65 88.9197C154.881 89.4778 155 90.076 155 90.6801V154.38C155 155.6 154.515 156.77 153.653 157.633C152.79 158.495 151.62 158.98 150.4 158.98Z" fill="white"/>
<g opacity="0.5">
<path opacity="0.5" d="M150.4 158.98H4.6C3.38001 158.98 2.20998 158.495 1.34731 157.633C0.484642 156.77 0 155.6 0 154.38V90.6801C0 90.076 0.118983 89.4778 0.350155 88.9197C0.581326 88.3616 0.92016 87.8545 1.34731 87.4274C1.77446 87.0002 2.28156 86.6614 2.83966 86.4302C3.39775 86.1991 3.99592 86.0801 4.6 86.0801L155 154.38C155 155.6 154.515 156.77 153.653 157.633C152.79 158.495 151.62 158.98 150.4 158.98Z" fill="url(#paint3_linear)"/>
</g>
<path d="M0 99.31V90.69C0 90.0859 0.118983 89.4877 0.350155 88.9296C0.581326 88.3715 0.92016 87.8644 1.34731 87.4373C1.77446 87.0101 2.28156 86.6713 2.83966 86.4401C3.39775 86.209 3.99592 86.09 4.6 86.09H150.4C151.004 86.09 151.602 86.209 152.16 86.4401C152.718 86.6713 153.226 87.0101 153.653 87.4373C154.08 87.8644 154.419 88.3715 154.65 88.9296C154.881 89.4877 155 90.0859 155 90.69V99.31H0Z" fill="#B2968E"/>
<path d="M14.75 127.9V109.16H53.23V147.63H14.75V139.53" fill="white"/>
<path d="M74.9697 110.13L75.1697 110.16C75.1697 110.15 75.1197 110.14 74.9697 110.13ZM124.14 110.12C124.16 110.12 124.17 110.12 124.19 110.11C124.15 110.11 124.14 110.12 124.14 110.12ZM82.5197 111.32C82.4897 111.32 82.4697 111.33 82.4597 111.33L82.5197 111.32Z" fill="#E6F1FA"/>
<path d="M72.5998 111.21L78.5798 111.35L82.4798 111.31C83.0798 111.18 84.1298 111.31 84.8398 111.21L85.1098 111.28C85.3498 111.24 85.6398 111.22 85.8798 111.26H85.8598C86.2198 111.21 86.6298 111.24 86.8098 111.21V111.23L87.2498 111.22L87.1998 111.25C87.8298 111.19 88.4998 111.19 89.0598 111.21L89.0098 111.11C90.2398 111.21 90.6898 111.03 91.8098 111.14L91.7898 111.16C93.1898 110.93 94.0098 111.32 95.4498 111.1C95.2698 111.13 95.5298 111.14 95.5098 111.17C96.1798 111.15 96.8898 111.13 96.9098 110.97C97.4098 110.97 97.3098 111.02 97.3698 111.09C97.3698 111.01 97.7898 110.99 98.1698 110.99L97.9998 111.02L99.0998 110.99L98.8998 110.85C99.4798 110.89 99.0498 111.02 99.5998 110.99L99.5898 110.87C100.39 110.89 100.85 111.07 101.62 111.17L111.25 111.13L111.38 111.23C111.44 111.36 112.2 111.03 112.32 111.16L112.67 111.1C112.77 111.12 112.97 111.15 112.8 111.18C113.12 111.18 113.13 111.16 113.36 111.13L113.7 111.21C114.97 111.27 116.04 111.11 117.37 111.15C118.97 111.31 121.97 111.16 123.72 111.08C126.16 110.88 128.99 111.4 131.49 111.18C131.592 111.193 131.695 111.179 131.79 111.14L134.07 111.16C134.07 111.16 145.15 111.21 136.73 110.14L136.79 110.11C135.54 110.04 134.75 110.03 133.89 110.17C133.75 110 132.86 110.15 132.57 110.1L132.6 110.09C131.84 110.22 131.03 109.99 130.3 110.1C130.33 110.09 130.34 110.04 130.5 110.04C129.96 110.06 129.23 110.1 129.2 110C127.92 110.03 126.13 109.98 125.3 110.14L125.36 110.11C124.89 110.21 124.76 110.13 124.23 110.18C124.2 110.17 124.16 110.16 124.17 110.15C123.67 110.25 122.67 110.17 122.27 110.21L122.24 110.14L121.24 110.16H121.62C121.49 110.34 120.85 110.04 120.12 110.16C119.42 110.14 118.72 110.54 118.02 110.46C117.68 110.56 118.32 110.32 117.82 110.39C117.8 110.29 118.06 110.33 117.92 110.25C117.42 110.3 117.1 110.15 116.48 110.22L116.45 110.15C115.65 110.29 114.93 110.05 114.4 110.18C113.57 110.24 113.84 109.96 112.98 110.1L112.64 110C112.27 109.98 112.38 110.12 111.97 110.07C111.99 110.01 111.45 110.02 111.69 109.97C110.76 109.87 109.81 110.11 108.59 109.94C108.32 110.06 107.71 109.99 107.51 110.08C107.48 110.03 106.28 110.07 106.97 109.95C107.03 109.94 107.13 109.94 107.13 109.96L107.21 109.89C106.51 109.75 105.94 109.97 105.25 109.94C105.45 109.96 105.73 109.96 105.55 110.01L104.91 110L105.04 109.94L104.09 109.9L104.22 109.98C103.75 109.94 103.59 109.81 103.06 109.92C102.82 109.98 103.5 110.02 103.01 110.05L100.65 109.9C100.72 110 100.51 109.98 100.29 110L100.26 109.93C99.4098 110.03 99.9598 109.77 99.1098 109.85L99.1798 109.8L98.9598 109.96C98.1998 110.11 98.5598 109.81 97.7098 110.01C98.0398 110 97.8698 110.17 97.4598 110.14L97.5598 110.07C97.3298 110.09 97.2598 110.12 97.1098 110.1C97.2498 110.06 97.1798 110 96.8498 110L97.0698 109.9L96.4398 110.03C95.9398 109.95 95.1798 110.05 94.9798 109.95C94.9798 109.95 93.9298 109.9 93.6798 110.01C93.8798 109.94 93.3098 109.91 93.4798 109.83C93.2098 109.91 92.4098 109.97 92.0798 109.89L92.1398 109.88C90.9398 109.78 90.1098 110 89.0398 109.89C89.0898 109.99 88.5398 109.93 88.6698 110.04C87.5698 110.14 86.6698 109.81 86.2698 110.16C85.7698 110.18 85.6698 110.08 85.4198 110.06H85.5398H83.6398C83.2898 110.09 83.2398 110.26 82.6098 110.21C82.8098 110.15 82.5598 110.16 82.3098 110.16C82.4598 110.15 82.5098 110.13 82.2098 110.08C82.1698 110.1 82.1098 110.11 82.0398 110.12C82.0398 110.11 82.0298 110.11 82.0298 110.1C81.6298 110.12 81.7098 110.14 81.8898 110.15C81.8798 110.16 81.8998 110.17 81.9498 110.19C81.5498 110.11 80.8198 110.2 80.7798 110.09L77.7998 110.27C77.6998 110.21 77.9198 110.17 78.1998 110.14H77.4998C77.5098 110.06 77.8998 110.09 78.0998 110.08C77.2798 109.95 76.3998 110.21 75.4398 110.09L75.2398 110.15H75.1798C75.1798 110.18 74.9798 110.23 74.8198 110.25C74.6798 110.18 74.8298 110.09 74.3498 110.09C73.9698 110.02 73.2798 110.12 72.7798 110.16C73.0498 110.17 72.9598 110.21 72.8498 110.24C72.6098 110.24 72.4698 110.17 72.2898 110.2L72.2698 110.1C72.3698 110.2 71.6498 110.2 71.5698 110.23C71.4298 110.16 71.9398 110.17 71.9998 110.13H70.5598C70.0598 110.2 70.6598 110.23 70.4098 110.3C69.9598 110.32 69.5098 110.38 69.0098 110.33L69.1698 110.41C68.3198 110.48 67.8198 110.47 67.2498 110.38C60.9498 111.06 65.9198 111.31 65.9198 111.31C68.4398 111.51 69.7198 111.28 72.6798 111.21H72.5998ZM74.9698 120.99L75.1698 121.02C75.1698 121.01 75.1198 120.99 74.9698 120.99ZM124.14 120.98C124.16 120.98 124.17 120.98 124.19 120.97C124.15 120.97 124.14 120.97 124.14 120.98ZM82.5198 122.16C82.4898 122.16 82.4698 122.17 82.4598 122.17H82.5198V122.16Z" fill="#E6F1FA"/>
<path d="M72.5998 122.06L78.5798 122.2L82.4797 122.16C83.0797 122.03 84.1297 122.16 84.8397 122.06L85.1098 122.13C85.3498 122.09 85.6398 122.07 85.8798 122.11L85.8598 122.13C86.2198 122.08 86.6297 122.11 86.8097 122.08V122.1L87.2498 122.09L87.1697 122.12C87.7997 122.06 88.4697 122.06 89.0297 122.08L88.9797 121.98C90.2097 122.08 90.6597 121.9 91.7797 122.01L91.7598 122.03C93.1598 121.8 93.9797 122.19 95.4197 121.97C95.2397 122 95.4997 122.01 95.4797 122.04C96.1497 122.02 96.8598 122 96.8798 121.84C97.3798 121.84 97.2797 121.89 97.3397 121.96C97.3397 121.89 97.7597 121.86 98.1397 121.86L97.9697 121.89L99.0698 121.86L98.8698 121.72C99.4498 121.76 99.0198 121.89 99.5698 121.86L99.5597 121.74C100.36 121.76 100.82 121.94 101.59 122.04L111.22 122L111.35 122.1C111.41 122.23 112.17 121.9 112.29 122.03L112.64 121.97C112.74 121.99 112.94 122.02 112.77 122.05C113.09 122.06 113.1 122.03 113.33 122L113.67 122.08C114.94 122.14 116.01 121.98 117.34 122.02C118.94 122.18 121.94 122.03 123.69 121.95C126.13 121.75 128.96 122.27 131.46 122.05C131.562 122.063 131.665 122.049 131.76 122.01L134.04 122.03C134.04 122.03 145.12 122.08 136.7 121.01L136.76 120.98C135.51 120.91 134.72 120.9 133.86 121.04C133.72 120.87 132.83 121.02 132.54 120.97H132.57C131.81 121.1 131 120.87 130.27 120.98C130.3 120.97 130.31 120.92 130.47 120.92C129.93 120.94 129.2 120.98 129.17 120.88C127.89 120.91 126.1 120.86 125.27 121.02L125.33 120.99C124.86 121.09 124.73 121.01 124.2 121.06C124.17 121.05 124.13 121.04 124.14 121.03C123.64 121.13 122.64 121.05 122.24 121.09L122.21 121.02L121.21 121.04L121.59 121.05C121.46 121.23 120.82 120.93 120.09 121.05C119.39 121.03 118.69 121.43 117.99 121.35C117.65 121.45 118.29 121.21 117.79 121.28C117.77 121.18 118.03 121.22 117.89 121.14C117.39 121.19 117.07 121.04 116.45 121.11L116.42 121.04C115.62 121.18 114.9 120.94 114.37 121.07C113.54 121.13 113.81 120.85 112.95 120.99L112.61 120.89C112.24 120.87 112.35 121.01 111.94 120.96C111.96 120.9 111.42 120.91 111.66 120.86C110.73 120.76 109.78 121 108.56 120.83C108.29 120.95 107.68 120.88 107.48 120.97C107.45 120.92 106.25 120.96 106.94 120.84C107 120.83 107.1 120.83 107.1 120.85L107.18 120.78C106.48 120.64 105.91 120.86 105.22 120.83C105.42 120.85 105.7 120.85 105.52 120.9L104.88 120.89L105.01 120.83L104.06 120.79L104.19 120.87C103.72 120.83 103.56 120.7 103.03 120.81C102.79 120.87 103.47 120.91 102.98 120.94L100.62 120.79C100.69 120.89 100.48 120.87 100.26 120.89L100.23 120.82C99.3797 120.92 99.9297 120.66 99.0798 120.74L99.1498 120.69L98.9298 120.85C98.1698 121 98.5298 120.7 97.6798 120.9C98.0098 120.89 97.8398 121.06 97.4298 121.03L97.5297 120.96C97.2997 120.98 97.2298 121.01 97.0798 120.99C97.2197 120.95 97.1498 120.89 96.8198 120.89L97.0398 120.79L96.4098 120.92C95.9098 120.84 95.1497 120.94 94.9497 120.84C94.9497 120.84 93.8998 120.79 93.6498 120.9C93.8498 120.83 93.2797 120.8 93.4497 120.72C93.1797 120.8 92.3798 120.86 92.0498 120.78H92.1098C90.9097 120.68 90.0798 120.9 89.0098 120.79C89.0598 120.89 88.5098 120.83 88.6397 120.94C87.5397 121.04 86.6398 120.71 86.2398 121.06C85.7398 121.08 85.6397 120.98 85.3897 120.96L85.5098 120.94L83.6098 120.96C83.2598 120.99 83.2098 121.16 82.5798 121.11C82.7798 121.05 82.5297 121.06 82.2797 121.06C82.4297 121.05 82.4798 121.03 82.1798 120.98C82.1398 121 82.0798 121.01 82.0098 121.02C82.0098 121.02 81.9998 121.01 81.9998 121C81.5998 121.02 81.6798 121.04 81.8598 121.05C81.8498 121.06 81.8697 121.07 81.9197 121.09C81.5197 121.01 80.7898 121.1 80.7498 120.99L77.7698 121.17C77.6698 121.11 77.8897 121.07 78.1697 121.04L77.4698 121.06C77.4798 120.98 77.8698 121.01 78.0698 121C77.2498 120.87 76.3698 121.13 75.4098 121.01L75.2098 121.07L75.1498 121.06C75.1498 121.09 74.9498 121.14 74.7898 121.16C74.6498 121.09 74.7998 121 74.3198 121C73.9398 120.93 73.2498 121.03 72.7498 121.07C73.0198 121.08 72.9298 121.12 72.8198 121.15C72.5798 121.15 72.4398 121.08 72.2598 121.11V121.01C72.3598 121.11 71.6397 121.11 71.5597 121.14C71.4197 121.07 71.9298 121.08 71.9898 121.04L70.5498 121.05C70.0498 121.12 70.6498 121.15 70.3998 121.22C69.9498 121.24 69.4998 121.3 68.9998 121.25L69.1598 121.33C68.3098 121.4 67.8098 121.39 67.2398 121.3C60.9398 121.98 65.9098 122.23 65.9098 122.23C68.4598 122.43 69.7498 122.2 72.7098 122.13L72.5998 122.06ZM71.0498 131.26L71.1697 131.29C71.1697 131.28 71.1398 131.26 71.0498 131.26ZM102.35 131.24C102.36 131.24 102.37 131.24 102.38 131.23C102.36 131.23 102.35 131.23 102.35 131.24ZM75.8698 132.44C75.8498 132.44 75.8398 132.45 75.8298 132.45L75.8698 132.44Z" fill="#E6F1FA"/>
<path d="M69.5498 132.33C71.1998 132.37 71.6498 132.53 73.3498 132.47L75.8498 132.43C76.2298 132.3 76.8998 132.43 77.3498 132.33L77.5198 132.4C77.6698 132.36 77.8598 132.34 78.0198 132.38V132.4C78.2498 132.35 78.5198 132.38 78.6198 132.35V132.37H78.8998L78.8498 132.4C79.2498 132.34 79.6697 132.34 80.0297 132.36L79.9997 132.26C80.7797 132.36 81.0697 132.18 81.7797 132.29L81.7698 132.31C82.6698 132.08 83.1698 132.47 84.0998 132.25C83.9998 132.28 84.1497 132.29 84.1397 132.32C84.5597 132.3 85.0198 132.28 85.0198 132.12C85.3198 132.12 85.2698 132.17 85.3198 132.24C85.3198 132.16 85.5898 132.14 85.8198 132.14L85.7198 132.17L86.4197 132.14L86.2797 132C86.6497 132.04 86.3798 132.17 86.7198 132.14V132.02C87.2198 132.04 87.5198 132.22 88.0198 132.32C90.0598 132.37 92.2498 132.07 94.1498 132.28L94.2297 132.38C94.2697 132.51 94.7498 132.18 94.8298 132.31L95.0498 132.25C95.1098 132.27 95.2498 132.3 95.1298 132.33C95.3298 132.34 95.3298 132.31 95.4898 132.28L95.7098 132.36C96.5098 132.42 97.2098 132.26 98.0498 132.3C99.0698 132.46 100.98 132.31 102.09 132.23C103.64 132.03 105.45 132.55 107.04 132.33C107.09 132.35 107.24 132.31 107.22 132.29L108.67 132.31C108.67 132.31 115.72 132.36 110.37 131.29L110.41 131.26C109.61 131.19 109.11 131.18 108.56 131.32C108.46 131.15 107.91 131.3 107.72 131.25L107.74 131.24C107.24 131.37 106.74 131.14 106.27 131.25C106.29 131.24 106.3 131.19 106.41 131.19C106.07 131.21 105.61 131.25 105.58 131.15C104.78 131.18 103.63 131.13 103.11 131.29L103.15 131.26C102.85 131.36 102.77 131.28 102.43 131.33C102.41 131.32 102.39 131.31 102.39 131.3C102.07 131.4 101.44 131.32 101.19 131.36L101.17 131.29L100.52 131.31H100.76C100.68 131.49 100.26 131.19 99.7998 131.31C99.3598 131.29 98.8998 131.69 98.4598 131.61C98.2398 131.71 98.6598 131.47 98.3298 131.54C98.3198 131.44 98.4798 131.48 98.3998 131.4C98.0798 131.45 97.8797 131.3 97.4997 131.37L97.4797 131.3C96.9797 131.44 96.5098 131.2 96.1798 131.33C95.6498 131.39 95.8297 131.11 95.2797 131.25L95.0798 131.15C94.8398 131.13 94.9098 131.27 94.6498 131.22C94.6698 131.16 94.3198 131.17 94.4698 131.12C93.8698 131.02 93.2698 131.26 92.4898 131.09C92.3198 131.21 91.9298 131.14 91.7898 131.23C91.7698 131.18 91.0097 131.22 91.4497 131.1C91.4897 131.09 91.5498 131.09 91.5498 131.11L91.5998 131.04C91.1598 130.9 90.7998 131.12 90.3498 131.09C90.4798 131.11 90.6498 131.11 90.5498 131.16L90.1498 131.15L90.2297 131.09L89.6298 131.05L89.7098 131.13C89.4098 131.09 89.3098 130.96 88.9698 131.07C88.8198 131.13 89.2498 131.17 88.9398 131.2L87.4398 131.05C87.4898 131.15 87.3398 131.13 87.2098 131.15L87.1898 131.08C86.6498 131.18 86.9898 130.92 86.4598 131L86.5098 130.95L86.3698 131.11C85.8898 131.26 86.1098 130.96 85.5698 131.16C85.7698 131.15 85.6698 131.32 85.4098 131.29L85.4797 131.22C85.3397 131.24 85.2798 131.27 85.1798 131.25C85.2798 131.21 85.2298 131.15 85.0098 131.15L85.1498 131.05L84.7498 131.18C84.4498 131.1 83.9498 131.2 83.8198 131.1C83.8198 131.1 83.1497 131.05 82.9998 131.16C83.1297 131.09 82.7698 131.06 82.8698 130.98C82.6998 131.06 82.1898 131.12 81.9698 131.04L82.0098 131.03C81.2598 130.93 80.7098 131.15 80.0398 131.04C80.0698 131.14 79.7098 131.08 79.7998 131.19C79.0998 131.29 78.5198 130.96 78.2698 131.31C77.9498 131.33 77.8897 131.23 77.7297 131.21H77.8097H76.6097C76.3897 131.24 76.3498 131.41 75.9598 131.36C76.0898 131.3 75.9297 131.31 75.7797 131.31C75.8797 131.3 75.8998 131.28 75.7098 131.23C75.6798 131.25 75.6397 131.26 75.6097 131.27C75.6097 131.26 75.5998 131.26 75.5998 131.25C75.3498 131.27 75.3997 131.29 75.4997 131.3C75.4897 131.31 75.4998 131.32 75.5398 131.34C75.2798 131.26 74.8198 131.35 74.7898 131.24C74.0498 131.27 73.5097 131.38 72.8897 131.42C72.8197 131.36 72.9698 131.32 73.1498 131.29H72.7098C72.7098 131.21 72.9598 131.24 73.1097 131.23C72.5898 131.1 72.0298 131.36 71.4098 131.24L71.2797 131.3L71.2398 131.29C71.2398 131.32 71.0998 131.37 71.0098 131.39C70.9098 131.32 71.0198 131.23 70.7098 131.23C70.4698 131.16 70.0298 131.26 69.7098 131.3C69.8798 131.31 69.8097 131.35 69.7497 131.38C69.5997 131.38 69.5097 131.31 69.3897 131.34L69.3798 131.24C69.4398 131.34 68.9798 131.34 68.9298 131.37C68.8298 131.3 69.1697 131.31 69.1997 131.27L68.2998 131.28C67.9698 131.35 68.3597 131.38 68.1997 131.45C67.8997 131.47 67.6298 131.53 67.2998 131.48L67.3998 131.56C66.8598 131.63 66.5398 131.62 66.1698 131.53C62.1498 132.21 65.3197 132.46 65.3197 132.46C66.9597 132.66 67.7798 132.43 69.6598 132.36L69.5498 132.33Z" fill="#E6F1FA"/>
<path d="M7.9298 95.19C9.24424 95.19 10.3098 94.1245 10.3098 92.81C10.3098 91.4956 9.24424 90.4301 7.9298 90.4301C6.61536 90.4301 5.5498 91.4956 5.5498 92.81C5.5498 94.1245 6.61536 95.19 7.9298 95.19Z" fill="#FFA88A"/>
<path d="M15.17 95.19C16.4845 95.19 17.55 94.1245 17.55 92.81C17.55 91.4956 16.4845 90.4301 15.17 90.4301C13.8556 90.4301 12.79 91.4956 12.79 92.81C12.79 94.1245 13.8556 95.19 15.17 95.19Z" fill="#FFE197"/>
<path d="M22.1798 95.19C23.4942 95.19 24.5598 94.1245 24.5598 92.81C24.5598 91.4956 23.4942 90.4301 22.1798 90.4301C20.8654 90.4301 19.7998 91.4956 19.7998 92.81C19.7998 94.1245 20.8654 95.19 22.1798 95.19Z" fill="#BDD184"/>
<path d="M14.75 109.16H53.22V147.63H14.75V109.16Z" fill="#CEE4D0"/>
<g opacity="0.5">
<path opacity="0.5" d="M150.4 86.09H66.5698V99.31H155V90.69C155 90.0859 154.881 89.4877 154.65 88.9296C154.418 88.3715 154.08 87.8644 153.653 87.4373C153.225 87.0101 152.718 86.6713 152.16 86.4401C151.602 86.209 151.004 86.09 150.4 86.09Z" fill="url(#paint4_linear)"/>
</g>
<path d="M141.92 92.96L142.45 92.26L141.55 92.32L141.92 92.96ZM140.1 97.96L140.62 97.26L139.72 97.32L140.1 97.96ZM144.04 94.71L144.64 94.56L144.24 94.09L144.04 94.71ZM149.5 96.46L148.5 96.51L148.9 97.11L149.5 96.46ZM155.02 99.23L151.5 97.57L154.94 95.89L155.02 99.23ZM151.82 96.83L153.94 96.25L152.16 94.85L151.82 96.83Z" fill="#8E706B"/>
<path d="M153.65 99.21L152.95 97.75L151.99 99.25L153.65 99.21ZM154.95 92.64V95.67L152.75 94.5L154.95 92.64ZM144.08 98.12L143.84 98.62L144.38 98.52L144.08 98.12ZM140.26 94.56L140.03 95.06L140.57 94.96L140.26 94.56ZM143.46 92.73L143.22 93.23L143.76 93.13L143.46 92.73ZM145.81 92.86L145.57 93.36L146.11 93.26L145.81 92.86ZM137.19 96.48L137.66 96.76L137.6 96.22L137.19 96.48ZM143.72 96.56L144.2 96.84L144.13 96.3L143.72 96.56ZM135.29 94.31L135.69 94.51L135.66 94.07L135.29 94.31ZM135.41 98.36L135.81 98.56L135.78 98.12L135.41 98.36ZM131.61 93.66L132.01 93.86L131.98 93.41L131.61 93.66ZM142.74 95.02L143.22 95.3L143.16 94.75L142.74 95.02ZM148.09 92.62L147.85 93.12L148.39 93.02L148.09 92.62ZM147.52 98.39L146.86 99.14L147.92 99.11L147.52 98.39ZM146.17 97.45L145.52 98.19L146.58 98.17L146.17 97.45ZM149.69 96.82L149.03 97.56L150.09 97.53L149.69 96.82Z" fill="#8E706B"/>
<path d="M151.65 97.7401L150.75 96.3401L150.03 97.4401L151.65 97.7401ZM134.8 91.4101L134.25 91.3901L134.55 91.7901L134.8 91.4101ZM145 95.7101L144.45 95.6801L144.75 96.0801L145 95.7101ZM146.25 98.6301L145.7 98.6001L146 99.0001L146.25 98.6301ZM147.43 92.5301L146.88 92.5101L147.18 92.9101L147.43 92.5301ZM142.13 97.2301L141.58 97.2001L141.88 97.6001L142.13 97.2301ZM128.17 98.0601H127.62L127.92 98.4601L128.17 98.0601ZM128.84 92.9801L128.29 92.9601L128.59 93.3601L128.84 92.9801ZM144.57 93.2101L144.8 92.3501L144 92.7501L144.57 93.2101ZM147.7 94.8801L147.92 94.0301L147.12 94.4101L147.7 94.8801ZM152.13 99.2101L151.43 97.8601L150.9 99.1601L152.13 99.2101ZM147.9 93.4301L146.92 93.4801L147.32 94.0801L147.9 93.4301ZM154.16 90.3101L153.18 90.3701L153.58 90.9701L154.16 90.3101ZM147.16 96.0601L147.04 96.9601L147.86 96.5901L147.16 96.0601ZM149.71 98.1201L148.44 97.7201L148.94 99.0701L149.71 98.1201ZM151.14 95.3001L149.87 94.9001L150.37 96.2501L151.14 95.3001Z" fill="#8E706B"/>
<path d="M153.3 94.19L152.03 93.79L152.53 95.13L153.3 94.19ZM150.94 93.83L149.64 93.61L150.31 94.88L150.94 93.83ZM154.94 92.48L154.93 90.12L152.51 91.46L154.94 92.48ZM152.26 91.46L150.69 92.52L152.55 93.22L152.26 91.46Z" fill="#8E706B"/>
<path d="M152.12 93.96L150.86 93.56L151.34 94.91L152.12 93.96ZM154.4 95.06L153.13 94.66L153.63 96.01L154.4 95.06ZM153.8 92.66L152.53 92.26L153.03 93.61L153.8 92.66ZM148.32 94.94L149.32 95.28L149.22 94.42L148.32 94.94ZM141.86 94.64L142.36 94.12L141.7 94.05L141.86 94.64ZM145.6 94.79L146.1 94.29L145.44 94.21L145.6 94.79ZM150.56 93.15L149.01 92.28L148.94 94.33L150.56 93.15ZM145.24 97.62L144.39 97.82L145.12 98.32L145.24 97.62Z" fill="#8E706B"/>
<path d="M148.54 95.56L147.69 95.76L148.42 96.26L148.54 95.56ZM143.04 98.16L142.94 98.5L142.74 98.2L142.38 98.5L142.88 98.6L142.58 99.2L143.9 98.9L143.04 98.16ZM148.84 91.43L148.74 91.77L148.54 91.47L148.18 91.77L148.68 91.85L148.38 92.45L149.7 92.17L148.84 91.43ZM153.81 92.69L153.71 93.02L153.51 92.72L153.16 93.02L153.66 93.1L153.36 93.7L154.69 93.42L153.81 92.69ZM150.89 99.16L150.73 97.66L149.9 98.79L150.89 99.16ZM140.99 98.98L141.52 98.28L140.62 98.34L140.99 98.98ZM147.59 98.08L148.12 97.38L147.22 97.44L147.59 98.08ZM154.93 90.18L152.79 89L154.39 88.4L154.93 90.18Z" fill="#8E706B"/>
<path d="M153.47 88.49L152.77 87.03L151.79 88.53L153.47 88.49ZM143.94 86.66L143.7 87.16L144.24 87.06L143.94 86.66ZM127 89.02L127.4 89.24L127.37 88.8L127 89.02ZM135.28 86.82L135.68 87.04L135.65 86.59L135.28 86.82ZM123.43 87.39L123.83 87.59L123.8 87.15L123.43 87.39ZM138.96 88.89L139.36 89.11L139.33 88.66L138.96 88.89ZM147.38 86.96L146.72 87.69L147.78 87.68L147.38 86.96ZM148.45 90.73L147.79 91.47H148.85L148.45 90.73ZM146.05 86L145.39 86.74L146.45 86.72L146.05 86ZM147.35 91.26L146.69 92L147.75 91.98L147.35 91.26ZM141.83 90.29L141.17 91.03L142.23 91.01L141.83 90.29ZM150.36 91.36L149.7 92.1L150.76 92.08L150.36 91.36ZM153.71 91.66L153.05 92.4L154.11 92.38L153.71 91.66ZM140.29 87.12L139.74 87.09L140.04 87.49L140.29 87.12ZM146.09 87.18L145.54 87.15L145.84 87.55L146.09 87.18ZM136.73 88.96L136.18 88.93L136.48 89.33L136.73 88.96Z" fill="#8E706B"/>
<path d="M137.47 93.22L136.92 93.1801L137.22 93.58L137.47 93.22ZM143.1 89.26L143.34 88.4001L142.52 88.78L143.1 89.26ZM139.16 91.94L139.56 92.16L139.53 91.7101L139.16 91.94ZM140.5 90.16L139.95 90.13L140.25 90.53L140.5 90.16ZM144.75 92L144.98 91.1501L144.18 91.53L144.75 92ZM151.62 89.12L150.95 87.7701L150.18 88.7L151.62 89.12ZM154.14 87.98L153.04 86.9601L152.66 88.09L154.14 87.98ZM151.67 91.1L153.34 90.07L151.74 88.8L151.67 91.1ZM149.57 86.72L148.31 86.32L148.78 87.67L149.57 86.72ZM145.37 88.9601L145.87 88.44L145.21 88.36L145.37 88.9601ZM149.93 91.4901L150.26 89.32L149.08 90.56L149.93 91.4901ZM147.18 88.59L147.44 89.54L147.94 89.0201L147.18 88.59ZM150.63 90.19L150.88 91.14L151.38 90.64L150.63 90.19ZM146.41 90.12L146.67 91.07L147.17 90.55L146.41 90.12ZM145.11 86.14L144.26 86.34L144.98 86.84L145.11 86.14ZM150.06 89.09L149.54 88.84L150.04 88.58L149.64 87.94L149.39 88.72L148.49 88.09L148.65 90.2701L150.06 89.09ZM146.69 95.64L146.46 95.54L146.72 95.39L146.57 95.11L146.41 95.4901L146.01 95.25L145.94 96.28L146.69 95.64ZM150.77 87.7401L150.63 86.2401L149.78 87.36L150.77 87.7401ZM152.01 87.9601L151.86 86.4601L151.02 87.58L152.01 87.9601ZM141.87 88.48L142.41 87.78L141.51 87.83L141.87 88.48ZM144.97 91.04L145.51 90.34L144.61 90.39L144.97 91.04ZM146.17 89.54L146.71 88.84L145.81 88.9001L146.17 89.54ZM147.39 86.72L147.97 86.05H147.07L147.39 86.72Z" fill="#8E706B"/>
<defs>
<linearGradient id="paint0_linear" x1="15.7182" y1="126.934" x2="349.399" y2="336.108" gradientUnits="userSpaceOnUse">
<stop stop-color="#EE5647"/>
<stop offset="1" stop-color="#84433E"/>
</linearGradient>
<linearGradient id="paint1_linear" x1="321" y1="-34.3644" x2="28.3263" y2="166.34" gradientUnits="userSpaceOnUse">
<stop stop-color="#EE5647"/>
<stop offset="1" stop-color="#84433E"/>
</linearGradient>
<linearGradient id="paint2_linear" x1="330.825" y1="346.584" x2="321.813" y2="-30.3031" gradientUnits="userSpaceOnUse">
<stop stop-color="#EE5647"/>
<stop offset="1" stop-color="#84433E"/>
</linearGradient>
<linearGradient id="paint3_linear" x1="35.885" y1="-896.358" x2="-57.532" y2="1149.49" gradientUnits="userSpaceOnUse">
<stop stop-color="#ABC1DA" stop-opacity="0"/>
<stop offset="1" stop-color="#ABC1DA"/>
</linearGradient>
<linearGradient id="paint4_linear" x1="104.068" y1="92.7" x2="192.498" y2="92.7" gradientUnits="userSpaceOnUse">
<stop stop-color="#896E67" stop-opacity="0"/>
<stop offset="1" stop-color="#896E67"/>
</linearGradient>
</defs>
</svg>
