<svg width="725" height="651" viewBox="0 0 725 651" fill="none" xmlns="http://www.w3.org/2000/svg">
<g opacity="0.1">
<path fill-rule="evenodd" clip-rule="evenodd" d="M546.711 650.396C490.634 581.38 420.886 521.662 338.464 476.019C256.034 430.368 168.531 403.002 80.4922 392.207C116.187 341.525 156.996 293.932 202.268 249.839C258.301 300.264 320.592 345.368 389.297 383.415C457.998 421.466 529.221 450.297 601.582 470.973C588.625 532.963 570.327 593.024 546.711 650.396Z" fill="url(#paint0_linear)"/>
<path fill-rule="evenodd" clip-rule="evenodd" d="M80.4915 392.207L75 112.4L80.4915 392.207ZM202.268 249.839C155.297 207.574 112.657 161.629 75 112.4C93.8304 137.012 113.904 160.809 135.143 183.729C113.904 160.809 93.8304 137.012 75 112.4C162.548 98.1252 248.909 67.3197 329.483 18.4455C410.052 -30.4288 477.401 -92.8597 530.728 -164.042L774.731 -28.9111L530.728 -164.042C556.577 -107.648 577.215 -48.3588 592.597 13.0685C521.101 36.5959 451.064 68.2254 383.906 108.961C316.749 149.696 256.277 197.236 202.268 249.839Z" fill="url(#paint1_linear)"/>
<path fill-rule="evenodd" clip-rule="evenodd" d="M80.4915 392.207L75 112.4C112.657 161.629 155.297 207.574 202.268 249.839C156.995 293.932 116.186 341.526 80.4915 392.207Z" fill="#D23D3C"/>
<path d="M546.71 650.396L785.222 505.715C723.678 500.004 662.235 488.307 601.581 470.973C617.044 397.021 624.79 320.287 623.242 241.505C621.694 162.718 610.943 86.3513 592.596 13.0685C652.519 -6.65256 713.454 -20.7722 774.73 -28.9111C743.268 54.375 726.647 144.898 728.503 239.42C730.359 333.941 750.514 423.739 785.226 505.715L546.71 650.396Z" fill="url(#paint2_linear)"/>
<path d="M546.71 650.396C570.325 593.024 588.623 532.963 601.581 470.973C662.235 488.308 723.678 500.004 785.222 505.715L546.71 650.396Z" fill="#913838"/>
<path d="M592.598 13.0685C577.216 -48.3588 556.578 -107.648 530.729 -164.042L774.732 -28.9111C713.456 -20.7722 652.521 -6.65256 592.598 13.0685Z" fill="#D73D3D"/>
</g>
<path opacity="0.15" d="M162.33 189.01H58.73V261.91H162.33C162.934 261.91 163.532 261.791 164.09 261.56C164.648 261.329 165.156 260.99 165.583 260.563C166.01 260.136 166.349 259.628 166.58 259.07C166.811 258.512 166.93 257.914 166.93 257.31V193.61C166.93 192.39 166.445 191.22 165.583 190.357C164.72 189.495 163.55 189.01 162.33 189.01Z" fill="#D18B69"/>
<path d="M150.4 249.98H4.6C3.38001 249.98 2.20998 249.495 1.34731 248.633C0.484642 247.77 0 246.6 0 245.38V181.68C0 181.076 0.118983 180.478 0.350155 179.92C0.581326 179.362 0.92016 178.855 1.34731 178.427C1.77446 178 2.28156 177.661 2.83966 177.43C3.39775 177.199 3.99592 177.08 4.6 177.08H150.4C151.004 177.08 151.602 177.199 152.16 177.43C152.718 177.661 153.226 178 153.653 178.427C154.08 178.855 154.419 179.362 154.65 179.92C154.881 180.478 155 181.076 155 181.68V245.38C155 246.6 154.515 247.77 153.653 248.633C152.79 249.495 151.62 249.98 150.4 249.98Z" fill="white"/>
<g opacity="0.5">
<path opacity="0.5" d="M150.4 249.98H4.6C3.38001 249.98 2.20998 249.495 1.34731 248.633C0.484642 247.77 0 246.6 0 245.38V181.68C0 181.076 0.118983 180.478 0.350155 179.92C0.581326 179.362 0.92016 178.855 1.34731 178.427C1.77446 178 2.28156 177.661 2.83966 177.43C3.39775 177.199 3.99592 177.08 4.6 177.08L155 245.38C155 246.6 154.515 247.77 153.653 248.633C152.79 249.495 151.62 249.98 150.4 249.98Z" fill="url(#paint3_linear)"/>
</g>
<path d="M0 190.31V181.69C0 181.086 0.118983 180.488 0.350155 179.93C0.581326 179.372 0.92016 178.864 1.34731 178.437C1.77446 178.01 2.28156 177.671 2.83966 177.44C3.39775 177.209 3.99592 177.09 4.6 177.09H150.4C151.004 177.09 151.602 177.209 152.16 177.44C152.718 177.671 153.226 178.01 153.653 178.437C154.08 178.864 154.419 179.372 154.65 179.93C154.881 180.488 155 181.086 155 181.69V190.31H0Z" fill="#B2968E"/>
<path d="M14.75 218.9V200.16H53.23V238.63H14.75V230.53" fill="white"/>
<path d="M74.9697 201.13L75.1697 201.16C75.1697 201.15 75.1197 201.14 74.9697 201.13ZM124.14 201.12C124.16 201.12 124.17 201.12 124.19 201.11C124.15 201.11 124.14 201.12 124.14 201.12ZM82.5197 202.32C82.4897 202.32 82.4697 202.33 82.4597 202.33L82.5197 202.32Z" fill="#E6F1FA"/>
<path d="M72.5995 202.21L78.5795 202.35L82.4795 202.31C83.0795 202.18 84.1295 202.31 84.8395 202.21L85.1095 202.28C85.3495 202.24 85.6395 202.22 85.8795 202.26H85.8595C86.2195 202.21 86.6295 202.24 86.8095 202.21V202.23L87.2495 202.22L87.1995 202.25C87.8295 202.19 88.4995 202.19 89.0595 202.21L89.0095 202.11C90.2395 202.21 90.6895 202.03 91.8095 202.14L91.7895 202.16C93.1895 201.93 94.0095 202.32 95.4495 202.1C95.2695 202.13 95.5295 202.14 95.5095 202.17C96.1795 202.15 96.8895 202.13 96.9095 201.97C97.4095 201.97 97.3095 202.02 97.3695 202.09C97.3695 202.01 97.7895 201.99 98.1695 201.99L97.9995 202.02L99.0995 201.99L98.8995 201.85C99.4795 201.89 99.0495 202.02 99.5995 201.99L99.5895 201.87C100.39 201.89 100.85 202.07 101.62 202.17L111.25 202.13L111.38 202.23C111.44 202.36 112.2 202.03 112.32 202.16L112.67 202.1C112.77 202.12 112.97 202.15 112.8 202.18C113.12 202.18 113.13 202.16 113.36 202.13L113.7 202.21C114.97 202.27 116.04 202.11 117.37 202.15C118.97 202.31 121.97 202.16 123.72 202.08C126.16 201.88 128.99 202.4 131.49 202.18C131.591 202.193 131.695 202.179 131.79 202.14L134.07 202.16C134.07 202.16 145.15 202.21 136.73 201.14L136.79 201.11C135.54 201.04 134.75 201.03 133.89 201.17C133.75 201 132.86 201.15 132.57 201.1L132.6 201.09C131.84 201.22 131.03 200.99 130.3 201.1C130.33 201.09 130.34 201.04 130.5 201.04C129.96 201.06 129.23 201.1 129.2 201C127.92 201.03 126.13 200.98 125.3 201.14L125.36 201.11C124.89 201.21 124.76 201.13 124.23 201.18C124.2 201.17 124.16 201.16 124.17 201.15C123.67 201.25 122.67 201.17 122.27 201.21L122.24 201.14L121.24 201.16H121.62C121.49 201.34 120.85 201.04 120.12 201.16C119.42 201.14 118.72 201.54 118.02 201.46C117.68 201.56 118.32 201.32 117.82 201.39C117.8 201.29 118.06 201.33 117.92 201.25C117.42 201.3 117.1 201.15 116.48 201.22L116.45 201.15C115.65 201.29 114.93 201.05 114.4 201.18C113.57 201.24 113.84 200.96 112.98 201.1L112.64 201C112.27 200.98 112.38 201.12 111.97 201.07C111.99 201.01 111.45 201.02 111.69 200.97C110.76 200.87 109.81 201.11 108.59 200.94C108.32 201.06 107.71 200.99 107.51 201.08C107.48 201.03 106.28 201.07 106.97 200.95C107.03 200.94 107.13 200.94 107.13 200.96L107.21 200.89C106.51 200.75 105.94 200.97 105.25 200.94C105.45 200.96 105.73 200.96 105.55 201.01L104.91 201L105.04 200.94L104.09 200.9L104.22 200.98C103.75 200.94 103.59 200.81 103.06 200.92C102.82 200.98 103.5 201.02 103.01 201.05L100.65 200.9C100.72 201 100.51 200.98 100.29 201L100.26 200.93C99.4095 201.03 99.9595 200.77 99.1095 200.85L99.1795 200.8L98.9595 200.96C98.1995 201.11 98.5595 200.81 97.7095 201.01C98.0395 201 97.8695 201.17 97.4595 201.14L97.5595 201.07C97.3295 201.09 97.2595 201.12 97.1095 201.1C97.2495 201.06 97.1795 201 96.8495 201L97.0695 200.9L96.4395 201.03C95.9395 200.95 95.1795 201.05 94.9795 200.95C94.9795 200.95 93.9295 200.9 93.6795 201.01C93.8795 200.94 93.3095 200.91 93.4795 200.83C93.2095 200.91 92.4095 200.97 92.0795 200.89L92.1395 200.88C90.9395 200.78 90.1095 201 89.0395 200.89C89.0895 200.99 88.5395 200.93 88.6695 201.04C87.5695 201.14 86.6695 200.81 86.2695 201.16C85.7695 201.18 85.6695 201.08 85.4195 201.06H85.5395H83.6395C83.2895 201.09 83.2395 201.26 82.6095 201.21C82.8095 201.15 82.5595 201.16 82.3095 201.16C82.4595 201.15 82.5095 201.13 82.2095 201.08C82.1695 201.1 82.1095 201.11 82.0395 201.12C82.0395 201.11 82.0295 201.11 82.0295 201.1C81.6295 201.12 81.7095 201.14 81.8895 201.15C81.8795 201.16 81.8995 201.17 81.9495 201.19C81.5495 201.11 80.8195 201.2 80.7795 201.09L77.7995 201.27C77.6995 201.21 77.9195 201.17 78.1995 201.14H77.4995C77.5095 201.06 77.8995 201.09 78.0995 201.08C77.2795 200.95 76.3995 201.21 75.4395 201.09L75.2395 201.15H75.1795C75.1795 201.18 74.9795 201.23 74.8195 201.25C74.6795 201.18 74.8295 201.09 74.3495 201.09C73.9695 201.02 73.2795 201.12 72.7795 201.16C73.0495 201.17 72.9595 201.21 72.8495 201.24C72.6095 201.24 72.4695 201.17 72.2895 201.2L72.2695 201.1C72.3695 201.2 71.6495 201.2 71.5695 201.23C71.4295 201.16 71.9395 201.17 71.9995 201.13H70.5595C70.0595 201.2 70.6595 201.23 70.4095 201.3C69.9595 201.32 69.5095 201.38 69.0095 201.33L69.1695 201.41C68.3195 201.48 67.8195 201.47 67.2495 201.38C60.9495 202.06 65.9195 202.31 65.9195 202.31C68.4395 202.51 69.7195 202.28 72.6795 202.21H72.5995ZM74.9695 211.99L75.1695 212.02C75.1695 212.01 75.1195 211.99 74.9695 211.99ZM124.14 211.98C124.16 211.98 124.17 211.98 124.19 211.97C124.15 211.97 124.14 211.97 124.14 211.98ZM82.5195 213.16C82.4895 213.16 82.4695 213.17 82.4595 213.17H82.5195V213.16Z" fill="#E6F1FA"/>
<path d="M72.5998 213.06L78.5798 213.2L82.4797 213.16C83.0797 213.03 84.1297 213.16 84.8397 213.06L85.1098 213.13C85.3498 213.09 85.6398 213.07 85.8798 213.11L85.8598 213.13C86.2198 213.08 86.6297 213.11 86.8097 213.08V213.1L87.2498 213.09L87.1697 213.12C87.7997 213.06 88.4697 213.06 89.0297 213.08L88.9797 212.98C90.2097 213.08 90.6597 212.9 91.7797 213.01L91.7598 213.03C93.1598 212.8 93.9797 213.19 95.4197 212.97C95.2397 213 95.4997 213.01 95.4797 213.04C96.1497 213.02 96.8598 213 96.8798 212.84C97.3798 212.84 97.2797 212.89 97.3397 212.96C97.3397 212.89 97.7597 212.86 98.1397 212.86L97.9697 212.89L99.0698 212.86L98.8698 212.72C99.4498 212.76 99.0198 212.89 99.5698 212.86L99.5597 212.74C100.36 212.76 100.82 212.94 101.59 213.04L111.22 213L111.35 213.1C111.41 213.23 112.17 212.9 112.29 213.03L112.64 212.97C112.74 212.99 112.94 213.02 112.77 213.05C113.09 213.06 113.1 213.03 113.33 213L113.67 213.08C114.94 213.14 116.01 212.98 117.34 213.02C118.94 213.18 121.94 213.03 123.69 212.95C126.13 212.75 128.96 213.27 131.46 213.05C131.562 213.063 131.665 213.049 131.76 213.01L134.04 213.03C134.04 213.03 145.12 213.08 136.7 212.01L136.76 211.98C135.51 211.91 134.72 211.9 133.86 212.04C133.72 211.87 132.83 212.02 132.54 211.97H132.57C131.81 212.1 131 211.87 130.27 211.98C130.3 211.97 130.31 211.92 130.47 211.92C129.93 211.94 129.2 211.98 129.17 211.88C127.89 211.91 126.1 211.86 125.27 212.02L125.33 211.99C124.86 212.09 124.73 212.01 124.2 212.06C124.17 212.05 124.13 212.04 124.14 212.03C123.64 212.13 122.64 212.05 122.24 212.09L122.21 212.02L121.21 212.04L121.59 212.05C121.46 212.23 120.82 211.93 120.09 212.05C119.39 212.03 118.69 212.43 117.99 212.35C117.65 212.45 118.29 212.21 117.79 212.28C117.77 212.18 118.03 212.22 117.89 212.14C117.39 212.19 117.07 212.04 116.45 212.11L116.42 212.04C115.62 212.18 114.9 211.94 114.37 212.07C113.54 212.13 113.81 211.85 112.95 211.99L112.61 211.89C112.24 211.87 112.35 212.01 111.94 211.96C111.96 211.9 111.42 211.91 111.66 211.86C110.73 211.76 109.78 212 108.56 211.83C108.29 211.95 107.68 211.88 107.48 211.97C107.45 211.92 106.25 211.96 106.94 211.84C107 211.83 107.1 211.83 107.1 211.85L107.18 211.78C106.48 211.64 105.91 211.86 105.22 211.83C105.42 211.85 105.7 211.85 105.52 211.9L104.88 211.89L105.01 211.83L104.06 211.79L104.19 211.87C103.72 211.83 103.56 211.7 103.03 211.81C102.79 211.87 103.47 211.91 102.98 211.94L100.62 211.79C100.69 211.89 100.48 211.87 100.26 211.89L100.23 211.82C99.3797 211.92 99.9297 211.66 99.0798 211.74L99.1498 211.69L98.9298 211.85C98.1698 212 98.5298 211.7 97.6798 211.9C98.0098 211.89 97.8398 212.06 97.4298 212.03L97.5297 211.96C97.2997 211.98 97.2298 212.01 97.0798 211.99C97.2197 211.95 97.1498 211.89 96.8198 211.89L97.0398 211.79L96.4098 211.92C95.9098 211.84 95.1497 211.94 94.9497 211.84C94.9497 211.84 93.8998 211.79 93.6498 211.9C93.8498 211.83 93.2797 211.8 93.4497 211.72C93.1797 211.8 92.3798 211.86 92.0498 211.78H92.1098C90.9097 211.68 90.0798 211.9 89.0098 211.79C89.0598 211.89 88.5098 211.83 88.6397 211.94C87.5397 212.04 86.6398 211.71 86.2398 212.06C85.7398 212.08 85.6397 211.98 85.3897 211.96L85.5098 211.94L83.6098 211.96C83.2598 211.99 83.2098 212.16 82.5798 212.11C82.7798 212.05 82.5297 212.06 82.2797 212.06C82.4297 212.05 82.4798 212.03 82.1798 211.98C82.1398 212 82.0798 212.01 82.0098 212.02C82.0098 212.02 81.9998 212.01 81.9998 212C81.5998 212.02 81.6798 212.04 81.8598 212.05C81.8498 212.06 81.8697 212.07 81.9197 212.09C81.5197 212.01 80.7898 212.1 80.7498 211.99L77.7698 212.17C77.6698 212.11 77.8897 212.07 78.1697 212.04L77.4698 212.06C77.4798 211.98 77.8698 212.01 78.0698 212C77.2498 211.87 76.3698 212.13 75.4098 212.01L75.2098 212.07L75.1498 212.06C75.1498 212.09 74.9498 212.14 74.7898 212.16C74.6498 212.09 74.7998 212 74.3198 212C73.9398 211.93 73.2498 212.03 72.7498 212.07C73.0198 212.08 72.9298 212.12 72.8198 212.15C72.5798 212.15 72.4398 212.08 72.2598 212.11V212.01C72.3598 212.11 71.6397 212.11 71.5597 212.14C71.4197 212.07 71.9298 212.08 71.9898 212.04L70.5498 212.05C70.0498 212.12 70.6498 212.15 70.3998 212.22C69.9498 212.24 69.4998 212.3 68.9998 212.25L69.1598 212.33C68.3098 212.4 67.8098 212.39 67.2398 212.3C60.9398 212.98 65.9098 213.23 65.9098 213.23C68.4598 213.43 69.7498 213.2 72.7098 213.13L72.5998 213.06ZM71.0498 222.26L71.1697 222.29C71.1697 222.28 71.1398 222.26 71.0498 222.26ZM102.35 222.24C102.36 222.24 102.37 222.24 102.38 222.23C102.36 222.23 102.35 222.23 102.35 222.24ZM75.8698 223.44C75.8498 223.44 75.8398 223.45 75.8298 223.45L75.8698 223.44Z" fill="#E6F1FA"/>
<path d="M69.55 223.33C71.2 223.37 71.65 223.53 73.35 223.47L75.85 223.43C76.23 223.3 76.9 223.43 77.35 223.33L77.52 223.4C77.67 223.36 77.86 223.34 78.02 223.38V223.4C78.25 223.35 78.52 223.38 78.62 223.35V223.37H78.9L78.85 223.4C79.25 223.34 79.67 223.34 80.03 223.36L80 223.26C80.78 223.36 81.07 223.18 81.78 223.29L81.77 223.31C82.67 223.08 83.17 223.47 84.1 223.25C84 223.28 84.15 223.29 84.14 223.32C84.56 223.3 85.02 223.28 85.02 223.12C85.32 223.12 85.27 223.17 85.32 223.24C85.32 223.16 85.59 223.14 85.82 223.14L85.72 223.17L86.42 223.14L86.28 223C86.65 223.04 86.38 223.17 86.72 223.14V223.02C87.22 223.04 87.52 223.22 88.02 223.32C90.06 223.37 92.25 223.07 94.15 223.28L94.23 223.38C94.27 223.51 94.75 223.18 94.83 223.31L95.05 223.25C95.11 223.27 95.25 223.3 95.13 223.33C95.33 223.34 95.33 223.31 95.49 223.28L95.71 223.36C96.51 223.42 97.21 223.26 98.05 223.3C99.07 223.46 100.98 223.31 102.09 223.23C103.64 223.03 105.45 223.55 107.04 223.33C107.09 223.35 107.24 223.31 107.22 223.29L108.67 223.31C108.67 223.31 115.72 223.36 110.37 222.29L110.41 222.26C109.61 222.19 109.11 222.18 108.56 222.32C108.46 222.15 107.91 222.3 107.72 222.25L107.74 222.24C107.24 222.37 106.74 222.14 106.27 222.25C106.29 222.24 106.3 222.19 106.41 222.19C106.07 222.21 105.61 222.25 105.58 222.15C104.78 222.18 103.63 222.13 103.11 222.29L103.15 222.26C102.85 222.36 102.77 222.28 102.43 222.33C102.41 222.32 102.39 222.31 102.39 222.3C102.07 222.4 101.44 222.32 101.19 222.36L101.17 222.29L100.52 222.31H100.76C100.68 222.49 100.26 222.19 99.8 222.31C99.36 222.29 98.9 222.69 98.46 222.61C98.24 222.71 98.66 222.47 98.33 222.54C98.32 222.44 98.48 222.48 98.4 222.4C98.08 222.45 97.88 222.3 97.5 222.37L97.48 222.3C96.98 222.44 96.51 222.2 96.18 222.33C95.65 222.39 95.83 222.11 95.28 222.25L95.08 222.15C94.84 222.13 94.91 222.27 94.65 222.22C94.67 222.16 94.32 222.17 94.47 222.12C93.87 222.02 93.27 222.26 92.49 222.09C92.32 222.21 91.93 222.14 91.79 222.23C91.77 222.18 91.01 222.22 91.45 222.1C91.49 222.09 91.55 222.09 91.55 222.11L91.6 222.04C91.16 221.9 90.8 222.12 90.35 222.09C90.48 222.11 90.65 222.11 90.55 222.16L90.15 222.15L90.23 222.09L89.63 222.05L89.71 222.13C89.41 222.09 89.31 221.96 88.97 222.07C88.82 222.13 89.25 222.17 88.94 222.2L87.44 222.05C87.49 222.15 87.34 222.13 87.21 222.15L87.19 222.08C86.65 222.18 86.99 221.92 86.46 222L86.51 221.95L86.37 222.11C85.89 222.26 86.11 221.96 85.57 222.16C85.77 222.15 85.67 222.32 85.41 222.29L85.48 222.22C85.34 222.24 85.28 222.27 85.18 222.25C85.28 222.21 85.23 222.15 85.01 222.15L85.15 222.05L84.75 222.18C84.45 222.1 83.95 222.2 83.82 222.1C83.82 222.1 83.15 222.05 83 222.16C83.13 222.09 82.77 222.06 82.87 221.98C82.7 222.06 82.19 222.12 81.97 222.04L82.01 222.03C81.26 221.93 80.71 222.15 80.04 222.04C80.07 222.14 79.71 222.08 79.8 222.19C79.1 222.29 78.52 221.96 78.27 222.31C77.95 222.33 77.89 222.23 77.73 222.21H77.81H76.61C76.39 222.24 76.35 222.41 75.96 222.36C76.09 222.3 75.93 222.31 75.78 222.31C75.88 222.3 75.9 222.28 75.71 222.23C75.68 222.25 75.64 222.26 75.61 222.27C75.61 222.26 75.6 222.26 75.6 222.25C75.35 222.27 75.4 222.29 75.5 222.3C75.49 222.31 75.5 222.32 75.54 222.34C75.28 222.26 74.82 222.35 74.79 222.24C74.05 222.27 73.51 222.38 72.89 222.42C72.82 222.36 72.97 222.32 73.15 222.29H72.71C72.71 222.21 72.96 222.24 73.11 222.23C72.59 222.1 72.03 222.36 71.41 222.24L71.28 222.3L71.24 222.29C71.24 222.32 71.1 222.37 71.01 222.39C70.91 222.32 71.02 222.23 70.71 222.23C70.47 222.16 70.03 222.26 69.71 222.3C69.88 222.31 69.81 222.35 69.75 222.38C69.6 222.38 69.51 222.31 69.39 222.34L69.38 222.24C69.44 222.34 68.98 222.34 68.93 222.37C68.83 222.3 69.17 222.31 69.2 222.27L68.3 222.28C67.97 222.35 68.36 222.38 68.2 222.45C67.9 222.47 67.63 222.53 67.3 222.48L67.4 222.56C66.86 222.63 66.54 222.62 66.17 222.53C62.15 223.21 65.32 223.46 65.32 223.46C66.96 223.66 67.78 223.43 69.66 223.36L69.55 223.33Z" fill="#E6F1FA"/>
<path d="M7.9298 186.19C9.24424 186.19 10.3098 185.124 10.3098 183.81C10.3098 182.496 9.24424 181.43 7.9298 181.43C6.61536 181.43 5.5498 182.496 5.5498 183.81C5.5498 185.124 6.61536 186.19 7.9298 186.19Z" fill="#FFA88A"/>
<path d="M15.17 186.19C16.4845 186.19 17.55 185.124 17.55 183.81C17.55 182.496 16.4845 181.43 15.17 181.43C13.8556 181.43 12.79 182.496 12.79 183.81C12.79 185.124 13.8556 186.19 15.17 186.19Z" fill="#FFE197"/>
<path d="M22.1798 186.19C23.4942 186.19 24.5598 185.124 24.5598 183.81C24.5598 182.496 23.4942 181.43 22.1798 181.43C20.8654 181.43 19.7998 182.496 19.7998 183.81C19.7998 185.124 20.8654 186.19 22.1798 186.19Z" fill="#BDD184"/>
<path d="M14.75 200.16H53.22V238.63H14.75V200.16Z" fill="#CEE4D0"/>
<g opacity="0.5">
<path opacity="0.5" d="M150.4 177.09H66.5698V190.31H155V181.69C155 181.086 154.881 180.488 154.65 179.93C154.418 179.372 154.08 178.864 153.653 178.437C153.225 178.01 152.718 177.671 152.16 177.44C151.602 177.209 151.004 177.09 150.4 177.09Z" fill="url(#paint4_linear)"/>
</g>
<path d="M141.92 183.96L142.45 183.26L141.55 183.32L141.92 183.96ZM140.1 188.96L140.62 188.26L139.72 188.32L140.1 188.96ZM144.04 185.71L144.64 185.56L144.24 185.09L144.04 185.71ZM149.5 187.46L148.5 187.51L148.9 188.11L149.5 187.46ZM155.02 190.23L151.5 188.57L154.94 186.89L155.02 190.23ZM151.82 187.83L153.94 187.25L152.16 185.85L151.82 187.83Z" fill="#8E706B"/>
<path d="M153.65 190.21L152.95 188.75L151.99 190.25L153.65 190.21ZM154.95 183.64V186.67L152.75 185.5L154.95 183.64ZM144.08 189.12L143.84 189.62L144.38 189.52L144.08 189.12ZM140.26 185.56L140.03 186.06L140.57 185.96L140.26 185.56ZM143.46 183.73L143.22 184.23L143.76 184.13L143.46 183.73ZM145.81 183.86L145.57 184.36L146.11 184.26L145.81 183.86ZM137.19 187.48L137.66 187.76L137.6 187.22L137.19 187.48ZM143.72 187.56L144.2 187.84L144.13 187.3L143.72 187.56ZM135.29 185.31L135.69 185.51L135.66 185.07L135.29 185.31ZM135.41 189.36L135.81 189.56L135.78 189.12L135.41 189.36ZM131.61 184.66L132.01 184.86L131.98 184.41L131.61 184.66ZM142.74 186.02L143.22 186.3L143.16 185.75L142.74 186.02ZM148.09 183.62L147.85 184.12L148.39 184.02L148.09 183.62ZM147.52 189.39L146.86 190.14L147.92 190.11L147.52 189.39ZM146.17 188.45L145.52 189.19L146.58 189.17L146.17 188.45ZM149.69 187.82L149.03 188.56L150.09 188.53L149.69 187.82Z" fill="#8E706B"/>
<path d="M151.65 188.74L150.75 187.34L150.03 188.44L151.65 188.74ZM134.8 182.41L134.25 182.39L134.55 182.79L134.8 182.41ZM145 186.71L144.45 186.68L144.75 187.08L145 186.71ZM146.25 189.63L145.7 189.6L146 190L146.25 189.63ZM147.43 183.53L146.88 183.51L147.18 183.91L147.43 183.53ZM142.13 188.23L141.58 188.2L141.88 188.6L142.13 188.23ZM128.17 189.06H127.62L127.92 189.46L128.17 189.06ZM128.84 183.98L128.29 183.96L128.59 184.36L128.84 183.98ZM144.57 184.21L144.8 183.35L144 183.75L144.57 184.21ZM147.7 185.88L147.92 185.03L147.12 185.41L147.7 185.88ZM152.13 190.21L151.43 188.86L150.9 190.16L152.13 190.21ZM147.9 184.43L146.92 184.48L147.32 185.08L147.9 184.43ZM154.16 181.31L153.18 181.37L153.58 181.97L154.16 181.31ZM147.16 187.06L147.04 187.96L147.86 187.59L147.16 187.06ZM149.71 189.12L148.44 188.72L148.94 190.07L149.71 189.12ZM151.14 186.3L149.87 185.9L150.37 187.25L151.14 186.3Z" fill="#8E706B"/>
<path d="M153.3 185.19L152.03 184.79L152.53 186.13L153.3 185.19ZM150.94 184.83L149.64 184.61L150.31 185.88L150.94 184.83ZM154.94 183.48L154.93 181.12L152.51 182.46L154.94 183.48ZM152.26 182.46L150.69 183.52L152.55 184.22L152.26 182.46Z" fill="#8E706B"/>
<path d="M152.12 184.96L150.86 184.56L151.34 185.91L152.12 184.96ZM154.4 186.06L153.13 185.66L153.63 187.01L154.4 186.06ZM153.8 183.66L152.53 183.26L153.03 184.61L153.8 183.66ZM148.32 185.94L149.32 186.28L149.22 185.42L148.32 185.94ZM141.86 185.64L142.36 185.12L141.7 185.05L141.86 185.64ZM145.6 185.79L146.1 185.29L145.44 185.21L145.6 185.79ZM150.56 184.15L149.01 183.28L148.94 185.33L150.56 184.15ZM145.24 188.62L144.39 188.82L145.12 189.32L145.24 188.62Z" fill="#8E706B"/>
<path d="M148.54 186.56L147.69 186.76L148.42 187.26L148.54 186.56ZM143.04 189.16L142.94 189.5L142.74 189.2L142.38 189.5L142.88 189.6L142.58 190.2L143.9 189.9L143.04 189.16ZM148.84 182.43L148.74 182.77L148.54 182.47L148.18 182.77L148.68 182.85L148.38 183.45L149.7 183.17L148.84 182.43ZM153.81 183.69L153.71 184.02L153.51 183.72L153.16 184.02L153.66 184.1L153.36 184.7L154.69 184.42L153.81 183.69ZM150.89 190.16L150.73 188.66L149.9 189.79L150.89 190.16ZM140.99 189.98L141.52 189.28L140.62 189.34L140.99 189.98ZM147.59 189.08L148.12 188.38L147.22 188.44L147.59 189.08ZM154.93 181.18L152.79 180L154.39 179.4L154.93 181.18Z" fill="#8E706B"/>
<path d="M153.47 179.49L152.77 178.03L151.79 179.53L153.47 179.49ZM143.94 177.66L143.7 178.16L144.24 178.06L143.94 177.66ZM127 180.02L127.4 180.24L127.37 179.8L127 180.02ZM135.28 177.82L135.68 178.04L135.65 177.59L135.28 177.82ZM123.43 178.39L123.83 178.59L123.8 178.15L123.43 178.39ZM138.96 179.89L139.36 180.11L139.33 179.66L138.96 179.89ZM147.38 177.96L146.72 178.69L147.78 178.68L147.38 177.96ZM148.45 181.73L147.79 182.47H148.85L148.45 181.73ZM146.05 177L145.39 177.74L146.45 177.72L146.05 177ZM147.35 182.26L146.69 183L147.75 182.98L147.35 182.26ZM141.83 181.29L141.17 182.03L142.23 182.01L141.83 181.29ZM150.36 182.36L149.7 183.1L150.76 183.08L150.36 182.36ZM153.71 182.66L153.05 183.4L154.11 183.38L153.71 182.66ZM140.29 178.12L139.74 178.09L140.04 178.49L140.29 178.12ZM146.09 178.18L145.54 178.15L145.84 178.55L146.09 178.18ZM136.73 179.96L136.18 179.93L136.48 180.33L136.73 179.96Z" fill="#8E706B"/>
<path d="M137.47 184.22L136.92 184.18L137.22 184.58L137.47 184.22ZM143.1 180.26L143.34 179.4L142.52 179.78L143.1 180.26ZM139.16 182.94L139.56 183.16L139.53 182.71L139.16 182.94ZM140.5 181.16L139.95 181.13L140.25 181.53L140.5 181.16ZM144.75 183L144.98 182.15L144.18 182.53L144.75 183ZM151.62 180.12L150.95 178.77L150.18 179.7L151.62 180.12ZM154.14 178.98L153.04 177.96L152.66 179.09L154.14 178.98ZM151.67 182.1L153.34 181.07L151.74 179.8L151.67 182.1ZM149.57 177.72L148.31 177.32L148.78 178.67L149.57 177.72ZM145.37 179.96L145.87 179.44L145.21 179.36L145.37 179.96ZM149.93 182.49L150.26 180.32L149.08 181.56L149.93 182.49ZM147.18 179.59L147.44 180.54L147.94 180.02L147.18 179.59ZM150.63 181.19L150.88 182.14L151.38 181.64L150.63 181.19ZM146.41 181.12L146.67 182.07L147.17 181.55L146.41 181.12ZM145.11 177.14L144.26 177.34L144.98 177.84L145.11 177.14ZM150.06 180.09L149.54 179.84L150.04 179.58L149.64 178.94L149.39 179.72L148.49 179.09L148.65 181.27L150.06 180.09ZM146.69 186.64L146.46 186.54L146.72 186.39L146.57 186.11L146.41 186.49L146.01 186.25L145.94 187.28L146.69 186.64ZM150.77 178.74L150.63 177.24L149.78 178.36L150.77 178.74ZM152.01 178.96L151.86 177.46L151.02 178.58L152.01 178.96ZM141.87 179.48L142.41 178.78L141.51 178.83L141.87 179.48ZM144.97 182.04L145.51 181.34L144.61 181.39L144.97 182.04ZM146.17 180.54L146.71 179.84L145.81 179.9L146.17 180.54ZM147.39 177.72L147.97 177.05H147.07L147.39 177.72Z" fill="#8E706B"/>
<path opacity="0.15" d="M694.6 335.91H597.33V398.51C597.33 399.114 597.449 399.712 597.68 400.27C597.911 400.828 598.25 401.336 598.677 401.763C599.105 402.19 599.612 402.529 600.17 402.76C600.728 402.991 601.326 403.11 601.93 403.11H704.43V345.73C704.43 343.123 703.394 340.623 701.551 338.779C699.707 336.936 697.207 335.9 694.6 335.9V335.91Z" fill="#D18B69"/>
<path d="M747.4 390.95H587.6C586.996 390.95 586.398 390.831 585.84 390.6C585.282 390.369 584.774 390.03 584.347 389.603C583.92 389.176 583.581 388.668 583.35 388.11C583.119 387.552 583 386.954 583 386.35V285.65C583 285.046 583.119 284.448 583.35 283.89C583.581 283.332 583.92 282.825 584.347 282.397C584.774 281.97 585.282 281.631 585.84 281.4C586.398 281.169 586.996 281.05 587.6 281.05H747.4C748.62 281.05 749.79 281.535 750.653 282.397C751.515 283.26 752 284.43 752 285.65V386.35C752.01 388.89 749.95 390.95 747.4 390.95Z" fill="white"/>
<g opacity="0.5">
<path opacity="0.5" d="M747.4 390.95H587.6C586.996 390.95 586.398 390.831 585.84 390.6C585.282 390.369 584.774 390.03 584.347 389.603C583.92 389.176 583.581 388.668 583.35 388.11C583.119 387.552 583 386.954 583 386.35L747.4 281.05C748.62 281.05 749.79 281.535 750.653 282.397C751.515 283.26 752 284.43 752 285.65V386.35C752.01 388.89 749.95 390.95 747.4 390.95Z" fill="url(#paint5_linear)"/>
</g>
<path d="M583 294.29V285.67C583 284.45 583.485 283.28 584.347 282.417C585.21 281.555 586.38 281.07 587.6 281.07H747.4C748.62 281.07 749.79 281.555 750.653 282.417C751.515 283.28 752 284.45 752 285.67V294.29H583Z" fill="#B2968E"/>
<path d="M650.19 352.89H673.75V376.45H650.19V352.89ZM681.19 352.89H704.75V376.45H681.19V352.89ZM711.39 352.89H734.95V376.45H711.39V352.89Z" fill="#E3EFF9"/>
<path d="M659.96 305.11L660.19 305.14C660.19 305.13 660.13 305.11 659.96 305.11ZM718.23 305.09C718.25 305.09 718.27 305.09 718.28 305.08L718.23 305.09ZM668.91 306.29C668.88 306.29 668.86 306.3 668.84 306.3L668.91 306.29Z" fill="#E6F1FA"/>
<path d="M657.17 306.19L664.27 306.33L668.91 306.29C669.61 306.16 670.87 306.29 671.71 306.19L672.03 306.26C672.33 306.22 672.66 306.2 672.95 306.24L672.93 306.26C673.36 306.21 673.85 306.24 674.06 306.21H674.04H674.56L674.46 306.24C675.21 306.18 675.98 306.18 676.66 306.2L676.6 306.1C678.06 306.2 678.6 306.02 679.9 306.13L679.88 306.15C681.54 305.92 682.51 306.31 684.22 306.09C684.02 306.12 684.32 306.13 684.29 306.16C685.09 306.14 685.92 306.12 685.93 305.96C686.51 305.96 686.4 306.01 686.47 306.08C686.47 306.01 686.97 305.98 687.42 305.98L687.22 306.01L688.52 305.98L688.27 305.84C688.95 305.88 688.44 306.01 689.1 305.98L689.09 305.86C690.03 305.88 690.59 306.06 691.49 306.16C695.29 306.21 699.37 305.91 702.89 306.12L703.05 306.22C703.12 306.35 704.02 306.02 704.15 306.15L704.55 306.09C704.67 306.11 704.91 306.14 704.7 306.17C705.08 306.17 705.1 306.15 705.36 306.12L705.76 306.2C707.26 306.26 708.53 306.1 710.11 306.14C712.01 306.3 715.57 306.15 717.63 306.07C720.53 305.87 723.88 306.39 726.83 306.17C726.93 306.19 727.18 306.15 727.17 306.13H729.87C729.87 306.13 743 306.18 733.02 305.11L733.09 305.08C731.61 305.01 730.67 305 729.65 305.14C729.49 304.97 728.43 305.12 728.09 305.07L728.12 305.06C727.22 305.19 726.26 304.96 725.39 305.07C725.42 305.06 725.44 305.01 725.64 305.01C725.01 305.03 724.14 305.07 724.09 304.97C722.57 305 720.46 304.95 719.49 305.11L719.56 305.08C719.01 305.18 718.84 305.1 718.22 305.15C718.19 305.14 718.14 305.13 718.15 305.12C717.55 305.22 716.39 305.14 715.9 305.18L715.87 305.11H714.67H715.12C714.96 305.29 714.22 304.99 713.34 305.11C712.52 305.09 711.69 305.49 710.84 305.41C710.44 305.51 711.2 305.27 710.59 305.34C710.57 305.24 710.87 305.28 710.72 305.2C710.12 305.25 709.75 305.1 709.02 305.17L708.99 305.1C708.04 305.24 707.19 305 706.56 305.13C705.58 305.19 705.9 304.91 704.88 305.05L704.48 304.95C704.04 304.93 704.18 305.07 703.68 305.02C703.71 304.96 703.08 304.97 703.35 304.92C702.25 304.82 701.12 305.06 699.67 304.89C699.37 305.01 698.63 304.94 698.39 305.03C698.35 304.98 696.93 305.02 697.75 304.9C697.82 304.89 697.95 304.89 697.95 304.91L698.05 304.84C697.22 304.7 696.55 304.92 695.73 304.89C695.97 304.91 696.29 304.91 696.08 304.96L695.32 304.95L695.48 304.89L694.35 304.85L694.51 304.93C693.96 304.89 693.76 304.76 693.14 304.87C692.86 304.93 693.66 304.97 693.08 305C692.34 304.95 691.23 304.87 690.28 304.85C690.38 304.95 690.11 304.93 689.85 304.95L689.82 304.88C688.82 304.98 689.45 304.72 688.46 304.8L688.56 304.75L688.3 304.91C687.4 305.06 687.82 304.76 686.82 304.96C687.22 304.95 687.02 305.12 686.52 305.09L686.64 305.02C686.37 305.04 686.28 305.07 686.1 305.05C686.26 305.01 686.18 304.95 685.8 304.95L686.06 304.85L685.31 304.98C684.73 304.9 683.81 305 683.58 304.9C683.58 304.9 682.34 304.85 682.06 304.96C682.31 304.89 681.63 304.86 681.82 304.78C681.5 304.86 680.55 304.92 680.17 304.84L680.24 304.83C678.84 304.73 677.84 304.95 676.58 304.84C676.64 304.94 675.98 304.88 676.14 304.99C674.84 305.09 673.76 304.76 673.29 305.11C672.69 305.13 672.59 305.03 672.29 305.01H672.43C671.33 305.04 671 305.04 670.17 305.03C669.77 305.06 669.69 305.23 668.95 305.18C669.19 305.12 668.89 305.13 668.61 305.13C668.79 305.12 668.84 305.1 668.48 305.05C668.43 305.07 668.35 305.08 668.28 305.09C668.28 305.09 668.26 305.08 668.27 305.07C667.81 305.09 667.89 305.11 668.1 305.12C668.09 305.13 668.11 305.14 668.17 305.16C667.69 305.08 666.84 305.17 666.77 305.06C665.37 305.09 664.39 305.2 663.24 305.24C663.11 305.18 663.38 305.14 663.72 305.11H662.9C662.91 305.03 663.37 305.06 663.62 305.05C662.65 304.92 661.62 305.18 660.47 305.06L660.23 305.12L660.16 305.11C660.16 305.14 659.91 305.19 659.74 305.21C659.58 305.14 659.75 305.05 659.19 305.05C658.74 304.98 657.92 305.08 657.33 305.12C657.65 305.13 657.53 305.17 657.41 305.2C657.13 305.2 656.96 305.13 656.75 305.16L656.72 305.06C656.82 305.16 655.98 305.16 655.88 305.19C655.72 305.12 656.32 305.13 656.38 305.09H654.68C654.08 305.16 654.78 305.19 654.5 305.26C653.97 305.28 653.44 305.34 652.83 305.29L653.03 305.37C652.03 305.44 651.43 305.43 650.75 305.34C643.27 306.02 649.17 306.27 649.17 306.27C652.1 306.47 653.62 306.23 657.13 306.17L657.17 306.19ZM659.97 315.97L660.2 316C660.2 315.98 660.14 315.97 659.97 315.97ZM718.24 315.95C718.26 315.95 718.28 315.95 718.29 315.94L718.24 315.95ZM668.92 317.15C668.89 317.15 668.87 317.16 668.85 317.16L668.92 317.15Z" fill="#E6F1FA"/>
<path d="M657.17 317.05L664.27 317.19L668.91 317.15C669.61 317.02 670.87 317.15 671.71 317.05L672.03 317.12C672.33 317.08 672.66 317.06 672.95 317.1H672.93C673.36 317.05 673.85 317.08 674.06 317.05V317.07L674.58 317.06L674.48 317.09C675.23 317.03 676 317.03 676.68 317.05L676.62 316.95C678.08 317.05 678.62 316.87 679.92 316.98H679.9C681.56 316.75 682.53 317.14 684.24 316.92C684.04 316.95 684.34 316.96 684.31 316.99C685.11 316.97 685.94 316.95 685.95 316.79C686.53 316.79 686.42 316.84 686.49 316.91C686.49 316.84 686.99 316.81 687.44 316.81L687.24 316.84L688.54 316.81L688.29 316.67C688.97 316.71 688.46 316.84 689.12 316.81L689.11 316.69C690.05 316.71 690.61 316.89 691.51 316.99C695.31 317.04 699.39 316.74 702.91 316.95L703.07 317.05C703.14 317.18 704.04 316.85 704.17 316.98L704.57 316.92C704.69 316.94 704.93 316.97 704.72 317C705.1 317 705.12 316.98 705.38 316.95L705.78 317.03C707.28 317.09 708.55 316.93 710.13 316.97C712.03 317.13 715.59 316.98 717.65 316.9C720.55 316.7 723.9 317.22 726.85 317C726.95 317.02 727.2 316.98 727.19 316.96L729.89 316.98C729.89 316.98 743.02 317.03 733.04 315.96L733.11 315.93C731.63 315.86 730.69 315.85 729.67 315.99C729.51 315.82 728.45 315.97 728.11 315.92H728.14C727.24 316.05 726.28 315.82 725.41 315.93C725.44 315.92 725.46 315.87 725.66 315.87C725.03 315.89 724.16 315.93 724.11 315.83C722.59 315.86 720.48 315.81 719.51 315.97L719.58 315.94C719.03 316.04 718.86 315.96 718.24 316.01C718.21 316 718.16 315.99 718.17 315.98C717.57 316.08 716.41 316 715.92 316.04L715.89 315.97L714.69 315.99H715.14C714.98 316.17 714.24 315.87 713.36 315.99C712.54 315.97 711.71 316.37 710.86 316.29C710.46 316.39 711.22 316.15 710.61 316.22C710.59 316.12 710.89 316.16 710.74 316.08C710.14 316.13 709.77 315.98 709.04 316.05L709.01 315.98C708.06 316.12 707.21 315.88 706.58 316.01C705.6 316.07 705.92 315.79 704.9 315.93L704.5 315.83C704.06 315.81 704.2 315.95 703.7 315.9C703.73 315.84 703.1 315.85 703.37 315.8C702.27 315.7 701.14 315.94 699.69 315.77C699.39 315.89 698.65 315.82 698.41 315.91C698.37 315.86 696.95 315.9 697.77 315.78C697.84 315.77 697.97 315.77 697.97 315.79L698.07 315.72C697.24 315.58 696.57 315.8 695.75 315.77C695.99 315.79 696.31 315.79 696.1 315.84H695.34L695.5 315.78L694.37 315.74L694.53 315.82C693.98 315.78 693.78 315.65 693.16 315.76C692.88 315.82 693.68 315.86 693.1 315.89C692.36 315.84 691.25 315.76 690.3 315.74C690.4 315.84 690.13 315.82 689.87 315.84L689.84 315.77C688.84 315.87 689.47 315.61 688.48 315.69L688.58 315.64L688.32 315.8C687.42 315.95 687.84 315.65 686.84 315.85C687.24 315.84 687.04 316.01 686.54 315.98L686.66 315.91C686.39 315.93 686.3 315.96 686.12 315.94C686.28 315.9 686.2 315.84 685.82 315.84L686.08 315.74L685.33 315.87C684.75 315.79 683.83 315.89 683.6 315.79C683.6 315.79 682.36 315.74 682.08 315.85C682.33 315.78 681.65 315.75 681.84 315.67C681.52 315.75 680.57 315.81 680.19 315.73H680.26C678.86 315.63 677.86 315.85 676.6 315.74C676.66 315.84 676 315.78 676.16 315.89C674.86 315.99 673.78 315.66 673.31 316.01C672.71 316.03 672.61 315.93 672.31 315.91L672.45 315.89C671.35 315.92 671.02 315.92 670.19 315.91C669.79 315.94 669.71 316.11 668.97 316.06C669.21 316 668.91 316.01 668.63 316.01C668.81 316 668.86 315.98 668.5 315.93C668.45 315.95 668.37 315.96 668.3 315.97C668.3 315.97 668.28 315.96 668.29 315.95C667.83 315.97 667.91 315.99 668.12 316C668.11 316.01 668.13 316.02 668.19 316.04C667.71 315.96 666.86 316.05 666.79 315.94C665.39 315.97 664.41 316.08 663.26 316.12C663.13 316.06 663.4 316.02 663.74 315.99L662.92 316.01C662.93 315.93 663.39 315.96 663.64 315.95C662.67 315.82 661.64 316.08 660.49 315.96L660.25 316.02L660.18 316.01C660.18 316.04 659.93 316.09 659.76 316.11C659.6 316.04 659.77 315.95 659.21 315.95C658.76 315.88 657.94 315.98 657.35 316.02C657.67 316.03 657.55 316.07 657.43 316.1C657.15 316.1 656.98 316.03 656.77 316.06L656.74 315.96C656.84 316.06 656 316.06 655.9 316.09C655.74 316.02 656.34 316.03 656.4 315.99L654.7 316C654.1 316.07 654.8 316.1 654.52 316.17C653.99 316.19 653.46 316.25 652.85 316.2L653.05 316.28C652.05 316.35 651.45 316.34 650.77 316.25C643.29 316.93 649.19 317.18 649.19 317.18C652.12 317.38 653.64 317.14 657.15 317.08L657.17 317.05ZM659.97 337.35L660.2 337.38C660.2 337.36 660.14 337.35 659.97 337.35ZM718.24 337.33C718.26 337.33 718.28 337.33 718.29 337.32L718.24 337.33ZM668.92 338.53C668.89 338.53 668.87 338.54 668.85 338.54L668.92 338.53Z" fill="#E6F1FA"/>
<path d="M657.17 338.44L664.27 338.58L668.91 338.54C669.61 338.41 670.87 338.54 671.71 338.44L672.03 338.51C672.33 338.47 672.66 338.45 672.95 338.49L672.93 338.51C673.36 338.46 673.85 338.49 674.06 338.46V338.48L674.58 338.47L674.48 338.5C675.23 338.44 676 338.44 676.68 338.46L676.62 338.36C678.08 338.46 678.62 338.28 679.92 338.39L679.9 338.41C681.56 338.18 682.53 338.57 684.24 338.35C684.04 338.38 684.34 338.39 684.31 338.42C685.11 338.4 685.94 338.38 685.95 338.22C686.53 338.22 686.42 338.27 686.49 338.34C686.49 338.27 686.99 338.24 687.44 338.24L687.24 338.27L688.54 338.24L688.29 338.1C688.97 338.14 688.46 338.27 689.12 338.24L689.11 338.12C690.05 338.14 690.61 338.32 691.51 338.42C695.31 338.47 699.39 338.17 702.91 338.38L703.07 338.48C703.14 338.61 704.04 338.28 704.17 338.41L704.57 338.35C704.69 338.37 704.93 338.4 704.72 338.43C705.1 338.44 705.12 338.41 705.38 338.38L705.78 338.46C707.28 338.52 708.55 338.36 710.13 338.4C712.03 338.56 715.59 338.41 717.65 338.33C720.55 338.13 723.9 338.65 726.85 338.43C726.95 338.45 727.2 338.41 727.19 338.39L729.89 338.41C729.89 338.41 743.02 338.46 733.04 337.39L733.11 337.36C731.63 337.29 730.69 337.28 729.67 337.42C729.51 337.25 728.45 337.4 728.11 337.35H728.14C727.24 337.48 726.28 337.25 725.41 337.36C725.44 337.35 725.46 337.3 725.66 337.3C725.03 337.32 724.16 337.36 724.11 337.26C722.59 337.29 720.48 337.24 719.51 337.4L719.58 337.37C719.03 337.47 718.86 337.39 718.24 337.44C718.21 337.43 718.16 337.42 718.17 337.41C717.57 337.51 716.41 337.43 715.92 337.47L715.89 337.4H714.69L715.14 337.41C714.98 337.59 714.24 337.29 713.36 337.41C712.54 337.39 711.71 337.79 710.86 337.71C710.46 337.81 711.22 337.57 710.61 337.64C710.59 337.54 710.89 337.58 710.74 337.5C710.14 337.55 709.77 337.4 709.04 337.47L709.01 337.4C708.06 337.54 707.21 337.3 706.58 337.43C705.6 337.49 705.92 337.21 704.9 337.35L704.5 337.25C704.06 337.23 704.2 337.37 703.7 337.32C703.73 337.26 703.1 337.27 703.37 337.22C702.27 337.12 701.14 337.36 699.69 337.19C699.39 337.31 698.65 337.24 698.41 337.33C698.37 337.28 696.95 337.32 697.77 337.2C697.84 337.19 697.97 337.19 697.97 337.21L698.07 337.14C697.24 337 696.57 337.22 695.75 337.19C695.99 337.21 696.31 337.21 696.1 337.26H695.34L695.5 337.2L694.37 337.16L694.53 337.24C693.98 337.2 693.78 337.07 693.16 337.18C692.88 337.24 693.68 337.28 693.1 337.31C692.36 337.26 691.25 337.18 690.3 337.16C690.4 337.26 690.13 337.24 689.87 337.26L689.84 337.19C688.84 337.29 689.47 337.03 688.48 337.11L688.58 337.06L688.32 337.22C687.42 337.37 687.84 337.07 686.84 337.27C687.24 337.26 687.04 337.43 686.54 337.4L686.66 337.33C686.39 337.35 686.3 337.38 686.12 337.36C686.28 337.32 686.2 337.26 685.82 337.26L686.08 337.16L685.33 337.29C684.75 337.21 683.83 337.31 683.6 337.21C683.6 337.21 682.36 337.16 682.08 337.27C682.33 337.2 681.65 337.17 681.84 337.09C681.52 337.17 680.57 337.23 680.19 337.15H680.26C678.86 337.05 677.86 337.27 676.6 337.16C676.66 337.26 676 337.2 676.16 337.31C674.86 337.41 673.78 337.08 673.31 337.43C672.71 337.45 672.61 337.35 672.31 337.33L672.45 337.31C671.35 337.34 671.02 337.34 670.19 337.33C669.79 337.36 669.71 337.53 668.97 337.48C669.21 337.42 668.91 337.43 668.63 337.43C668.81 337.42 668.86 337.4 668.5 337.35C668.45 337.37 668.37 337.38 668.3 337.39C668.3 337.39 668.28 337.38 668.29 337.37C667.83 337.39 667.91 337.41 668.12 337.42C668.11 337.43 668.13 337.44 668.19 337.46C667.71 337.38 666.86 337.47 666.79 337.36C665.39 337.39 664.41 337.5 663.26 337.54C663.13 337.48 663.4 337.44 663.74 337.41L662.92 337.43C662.93 337.35 663.39 337.38 663.64 337.37C662.67 337.24 661.64 337.5 660.49 337.38L660.25 337.44L660.18 337.43C660.18 337.46 659.93 337.51 659.76 337.53C659.6 337.46 659.77 337.37 659.21 337.37C658.76 337.3 657.94 337.4 657.35 337.44C657.67 337.45 657.55 337.49 657.43 337.52C657.15 337.52 656.98 337.45 656.77 337.48L656.74 337.38C656.84 337.48 656 337.48 655.9 337.51C655.74 337.44 656.34 337.45 656.4 337.41L654.7 337.42C654.1 337.49 654.8 337.52 654.52 337.59C653.99 337.61 653.46 337.67 652.85 337.62L653.05 337.7C652.05 337.77 651.45 337.76 650.77 337.67C643.29 338.35 649.19 338.6 649.19 338.6C652.12 338.8 653.64 338.56 657.15 338.5L657.17 338.44ZM654.05 326.24L654.17 326.27C654.17 326.25 654.14 326.24 654.05 326.24Z" fill="#E6F1FA"/>
<path d="M685.33 326.21C685.34 326.21 685.35 326.21 685.36 326.2C685.34 326.21 685.33 326.21 685.33 326.21ZM658.85 327.41C658.83 327.41 658.82 327.42 658.81 327.42H658.85V327.41Z" fill="#E6F1FA"/>
<path d="M652.55 327.31C654.2 327.35 654.65 327.51 656.35 327.45L658.85 327.41C659.23 327.28 659.9 327.41 660.35 327.31L660.52 327.38C660.67 327.34 660.86 327.32 661.02 327.36L661.01 327.38C661.24 327.33 661.51 327.36 661.61 327.33L661.6 327.35L661.88 327.34L661.83 327.37C662.23 327.31 662.65 327.31 663.01 327.33L662.98 327.23C663.76 327.33 664.05 327.15 664.76 327.26L664.75 327.28C665.65 327.05 666.15 327.44 667.08 327.22C666.98 327.25 667.13 327.26 667.12 327.29C667.54 327.27 668 327.25 668 327.09C668.3 327.09 668.25 327.14 668.3 327.21C668.3 327.14 668.57 327.11 668.8 327.11L668.7 327.14L669.4 327.11L669.26 326.97C669.63 327.01 669.36 327.14 669.7 327.11V326.99C670.2 327.01 670.5 327.19 671 327.29C673.04 327.34 675.23 327.04 677.13 327.25L677.21 327.35C677.25 327.48 677.73 327.15 677.81 327.28L678.03 327.22C678.09 327.24 678.23 327.27 678.11 327.3C678.31 327.3 678.31 327.28 678.47 327.25L678.69 327.33C679.49 327.39 680.19 327.23 681.03 327.27C682.05 327.43 683.96 327.28 685.07 327.2C686.62 327 688.43 327.52 690.02 327.3C690.07 327.32 690.22 327.28 690.2 327.26L691.65 327.28C691.65 327.28 698.7 327.33 693.35 326.26L693.39 326.23C692.59 326.16 692.09 326.15 691.54 326.29C691.44 326.12 690.89 326.27 690.7 326.22L690.72 326.21C690.22 326.34 689.72 326.11 689.25 326.22C689.27 326.21 689.28 326.16 689.39 326.16C689.05 326.18 688.59 326.22 688.56 326.12C687.76 326.15 686.61 326.1 686.09 326.26L686.13 326.23C685.83 326.33 685.73 326.25 685.41 326.3C685.39 326.29 685.37 326.28 685.37 326.27C685.05 326.37 684.42 326.29 684.17 326.33L684.15 326.26L683.5 326.28L683.74 326.29C683.66 326.47 683.24 326.17 682.78 326.29C682.34 326.27 681.88 326.67 681.44 326.59C681.22 326.69 681.64 326.45 681.31 326.52C681.3 326.42 681.46 326.46 681.38 326.38C681.06 326.43 680.86 326.28 680.48 326.35L680.46 326.28C679.96 326.42 679.49 326.18 679.16 326.31C678.63 326.37 678.81 326.09 678.26 326.23L678.06 326.13C677.82 326.11 677.89 326.25 677.63 326.2C677.65 326.14 677.3 326.15 677.45 326.1C676.85 326 676.25 326.24 675.47 326.07C675.3 326.19 674.91 326.12 674.77 326.21C674.75 326.16 673.99 326.2 674.43 326.08C674.47 326.07 674.53 326.07 674.53 326.09L674.58 326.02C674.14 325.88 673.78 326.1 673.34 326.07C673.47 326.09 673.64 326.09 673.54 326.14L673.14 326.13L673.22 326.07L672.62 326.03L672.7 326.11C672.4 326.07 672.3 325.94 671.96 326.05C671.81 326.11 672.24 326.15 671.93 326.18L670.43 326.03C670.48 326.13 670.33 326.11 670.2 326.13L670.18 326.06C669.64 326.16 669.98 325.9 669.45 325.98L669.5 325.93L669.36 326.09C668.88 326.24 669.1 325.94 668.56 326.14C668.76 326.13 668.66 326.3 668.4 326.27L668.47 326.2C668.33 326.22 668.27 326.25 668.17 326.23C668.27 326.19 668.22 326.13 668 326.13L668.14 326.03L667.74 326.16C667.44 326.08 666.94 326.18 666.81 326.08C666.81 326.08 666.14 326.03 665.99 326.14C666.12 326.07 665.76 326.04 665.86 325.96C665.69 326.04 665.18 326.1 664.96 326.02L665 326.01C664.25 325.91 663.7 326.13 663.03 326.02C663.06 326.12 662.7 326.06 662.79 326.17C662.09 326.27 661.51 325.94 661.26 326.29C660.94 326.31 660.88 326.21 660.72 326.19L660.8 326.17L659.6 326.19C659.38 326.22 659.34 326.39 658.95 326.34C659.08 326.28 658.92 326.29 658.77 326.29C658.87 326.28 658.89 326.26 658.7 326.21C658.67 326.23 658.63 326.24 658.6 326.25C658.6 326.25 658.59 326.24 658.59 326.23C658.34 326.25 658.39 326.27 658.49 326.28C658.48 326.29 658.49 326.3 658.53 326.32C658.27 326.24 657.81 326.33 657.78 326.22C657.04 326.25 656.5 326.36 655.88 326.4C655.81 326.34 655.96 326.3 656.14 326.27L655.7 326.29C655.7 326.21 655.95 326.24 656.1 326.23C655.58 326.1 655.02 326.36 654.4 326.24L654.27 326.3L654.23 326.29C654.23 326.32 654.09 326.37 654 326.39C653.9 326.32 654.01 326.23 653.7 326.23C653.46 326.16 653.02 326.26 652.7 326.3C652.87 326.31 652.8 326.35 652.74 326.38C652.59 326.38 652.5 326.31 652.38 326.34L652.37 326.24C652.43 326.34 651.97 326.34 651.92 326.37C651.82 326.3 652.16 326.31 652.19 326.27L651.29 326.28C650.96 326.35 651.35 326.38 651.19 326.45C650.89 326.47 650.62 326.53 650.29 326.48L650.39 326.56C649.85 326.63 649.53 326.62 649.16 326.53C645.14 327.21 648.31 327.46 648.31 327.46C649.94 327.66 650.75 327.42 652.64 327.36L652.55 327.31Z" fill="#E6F1FA"/>
<path d="M590.54 289.81C591.854 289.81 592.92 288.744 592.92 287.43C592.92 286.116 591.854 285.05 590.54 285.05C589.225 285.05 588.16 286.116 588.16 287.43C588.16 288.744 589.225 289.81 590.54 289.81Z" fill="#FFA88A"/>
<path d="M597.78 289.81C599.094 289.81 600.16 288.744 600.16 287.43C600.16 286.116 599.094 285.05 597.78 285.05C596.465 285.05 595.4 286.116 595.4 287.43C595.4 288.744 596.465 289.81 597.78 289.81Z" fill="#FFE197"/>
<path d="M604.79 289.81C606.104 289.81 607.17 288.744 607.17 287.43C607.17 286.116 606.104 285.05 604.79 285.05C603.475 285.05 602.41 286.116 602.41 287.43C602.41 288.744 603.475 289.81 604.79 289.81Z" fill="#BDD184"/>
<path d="M597.75 304.14H636.22V342.61H597.75V304.14Z" fill="#CEE4D0"/>
<g opacity="0.5">
<path opacity="0.5" d="M747.4 281.06H673.1V294.28H752V285.66C752 284.44 751.515 283.27 750.652 282.407C749.79 281.545 748.62 281.06 747.4 281.06Z" fill="url(#paint6_linear)"/>
</g>
<path d="M748.66 292.76L747.76 291.36L747.04 292.46L748.66 292.76ZM731.8 286.44L731.25 286.41L731.55 286.81L731.8 286.44ZM742 290.71L741.45 290.68L741.75 291.08L742 290.71ZM743.25 293.64L742.7 293.61L743 294.01L743.25 293.64ZM744.42 287.56L743.87 287.53L744.17 287.93L744.42 287.56ZM739.12 292.26L738.57 292.23L738.87 292.63L739.12 292.26ZM725.17 293.12L724.62 293.09L724.92 293.49L725.17 293.12ZM725.84 288.02L725.29 287.99L725.59 288.39L725.84 288.02ZM741.57 288.24L741.8 287.38L741 287.78L741.57 288.24ZM744.72 289.92L744.94 289.06L744.14 289.46L744.72 289.92ZM749.12 294.24L748.42 292.9L747.89 294.2L749.12 294.24ZM744.89 288.46L743.91 288.51L744.31 289.11L744.89 288.46ZM751.16 285.36L750.18 285.41L750.58 286.01L751.16 285.36ZM744.16 291.1L744.04 291.98L744.86 291.61L744.16 291.1ZM746.73 293.17L745.46 292.77L745.96 294.12L746.73 293.17ZM748.13 290.33L746.86 289.93L747.36 291.28L748.13 290.33Z" fill="#8E706B"/>
<path d="M750.48 283.51L749.78 282.05L748.8 283.55L750.48 283.51ZM740.95 281.68L740.71 282.18L741.25 282.08L740.95 281.68ZM724 284.05L724.4 284.25L724.37 283.81L724 284.05ZM732.3 281.85L732.7 282.05L732.67 281.61L732.3 281.85ZM720.44 282.4L720.84 282.62L720.81 282.18L720.44 282.4ZM735.98 283.9L736.38 284.1L736.35 283.66L735.98 283.9ZM744.4 281.97L743.74 282.71H744.8L744.4 281.97ZM745.47 285.74L744.81 286.48L745.87 286.46L745.47 285.74ZM743.07 281L742.41 281.74L743.47 281.73L743.07 281ZM744.37 286.28L743.71 287.02L744.77 287L744.37 286.28ZM738.85 285.3L738.19 286.03L739.25 286.02L738.85 285.3ZM747.38 286.36L746.72 287.1L747.78 287.08L747.38 286.36ZM750.73 286.68L750.07 287.42L751.13 287.4L750.73 286.68ZM737.3 282.13L736.75 282.1L737.05 282.5L737.3 282.13ZM743.13 282.2L742.58 282.16L742.88 282.56L743.13 282.2ZM733.75 283.97L733.2 283.93L733.5 284.33L733.75 283.97Z" fill="#8E706B"/>
<defs>
<linearGradient id="paint0_linear" x1="46.8241" y1="204.832" x2="705.126" y2="617.502" gradientUnits="userSpaceOnUse">
<stop stop-color="#EE5647"/>
<stop offset="1" stop-color="#84433E"/>
</linearGradient>
<linearGradient id="paint1_linear" x1="649.1" y1="-113.384" x2="71.6981" y2="282.576" gradientUnits="userSpaceOnUse">
<stop stop-color="#EE5647"/>
<stop offset="1" stop-color="#84433E"/>
</linearGradient>
<linearGradient id="paint2_linear" x1="668.482" y1="638.169" x2="650.703" y2="-105.372" gradientUnits="userSpaceOnUse">
<stop stop-color="#EE5647"/>
<stop offset="1" stop-color="#84433E"/>
</linearGradient>
<linearGradient id="paint3_linear" x1="35.885" y1="-805.358" x2="-57.532" y2="1240.49" gradientUnits="userSpaceOnUse">
<stop stop-color="#ABC1DA" stop-opacity="0"/>
<stop offset="1" stop-color="#ABC1DA"/>
</linearGradient>
<linearGradient id="paint4_linear" x1="104.068" y1="183.7" x2="192.498" y2="183.7" gradientUnits="userSpaceOnUse">
<stop stop-color="#896E67" stop-opacity="0"/>
<stop offset="1" stop-color="#896E67"/>
</linearGradient>
<linearGradient id="paint5_linear" x1="721.058" y1="206.648" x2="856.171" y2="558.407" gradientUnits="userSpaceOnUse">
<stop stop-color="#ABC1DA" stop-opacity="0"/>
<stop offset="1" stop-color="#ABC1DA"/>
</linearGradient>
<linearGradient id="paint6_linear" x1="673.11" y1="287.67" x2="752" y2="287.67" gradientUnits="userSpaceOnUse">
<stop stop-color="#896E67" stop-opacity="0"/>
<stop offset="1" stop-color="#896E67"/>
</linearGradient>
</defs>
</svg>
