<?xml version="1.0" encoding="UTF-8"?>
<svg xmlns="http://www.w3.org/2000/svg" xmlns:xlink="http://www.w3.org/1999/xlink" width="94pt" height="25pt" viewBox="0 0 94 25" version="1.1">
<defs>
<clipPath id="clip1">
  <path d="M 91 7 L 93.789062 7 L 93.789062 15 L 91 15 Z M 91 7 "/>
</clipPath>
<clipPath id="clip2">
  <path d="M 90 16 L 93.789062 16 L 93.789062 20 L 90 20 Z M 90 16 "/>
</clipPath>
<linearGradient id="linear0" gradientUnits="userSpaceOnUse" x1="-1.52907" y1="19.9284" x2="34.1035" y2="42.3637" gradientTransform="matrix(0.562874,0,0,0.568182,0,0)">
<stop offset="0" style="stop-color:rgb(93.333333%,33.72549%,27.843137%);stop-opacity:1;"/>
<stop offset="1" style="stop-color:rgb(51.764706%,26.27451%,24.313725%);stop-opacity:1;"/>
</linearGradient>
<linearGradient id="linear1" gradientUnits="userSpaceOnUse" x1="31.1523" y1="2.73675" x2="-0.0910241" y2="24.2565" gradientTransform="matrix(0.562874,0,0,0.568182,0,0)">
<stop offset="0" style="stop-color:rgb(93.333333%,33.72549%,27.843137%);stop-opacity:1;"/>
<stop offset="1" style="stop-color:rgb(51.764706%,26.27451%,24.313725%);stop-opacity:1;"/>
</linearGradient>
<linearGradient id="linear2" gradientUnits="userSpaceOnUse" x1="32.2039" y1="43.3394" x2="31.2476" y2="3.16939" gradientTransform="matrix(0.562874,0,0,0.568182,0,0)">
<stop offset="0" style="stop-color:rgb(93.333333%,33.72549%,27.843137%);stop-opacity:1;"/>
<stop offset="1" style="stop-color:rgb(51.764706%,26.27451%,24.313725%);stop-opacity:1;"/>
</linearGradient>
</defs>
<g id="surface1">
<path style=" stroke:none;fill-rule:nonzero;fill:rgb(26.27451%,25.882353%,25.882353%);fill-opacity:1;" d="M 31.070312 13.335938 L 34.191406 7.035156 L 36.257812 7.035156 L 32.492188 14.652344 L 29.621094 14.652344 L 25.859375 7.035156 L 27.945312 7.035156 Z M 31.070312 13.335938 "/>
<path style=" stroke:none;fill-rule:nonzero;fill:rgb(26.27451%,25.882353%,25.882353%);fill-opacity:1;" d="M 41.390625 8.460938 L 39.898438 11.292969 L 42.910156 11.292969 L 41.476562 8.460938 Z M 42.835938 7.035156 L 46.730469 14.652344 L 44.609375 14.652344 L 43.695312 12.820312 L 39.117188 12.820312 L 38.191406 14.652344 L 36.082031 14.652344 L 39.976562 7.035156 Z M 42.835938 7.035156 "/>
<path style=" stroke:none;fill-rule:nonzero;fill:rgb(26.27451%,25.882353%,25.882353%);fill-opacity:1;" d="M 54.960938 9.648438 C 54.960938 9.347656 54.898438 9.140625 54.765625 9.027344 C 54.636719 8.914062 54.402344 8.855469 54.058594 8.855469 L 50.199219 8.855469 L 50.199219 10.570312 L 54.101562 10.570312 C 54.421875 10.570312 54.644531 10.511719 54.773438 10.398438 C 54.898438 10.285156 54.960938 10.085938 54.960938 9.800781 Z M 56.84375 14.652344 L 55.027344 14.652344 L 55.027344 13.46875 C 55.027344 13.09375 54.929688 12.820312 54.730469 12.644531 C 54.53125 12.46875 54.21875 12.382812 53.796875 12.382812 L 50.230469 12.382812 L 50.230469 14.652344 L 48.414062 14.652344 L 48.414062 7.035156 L 54.015625 7.035156 C 54.5 7.035156 54.917969 7.078125 55.265625 7.167969 C 55.613281 7.253906 55.902344 7.394531 56.125 7.589844 C 56.351562 7.785156 56.515625 8.035156 56.617188 8.347656 C 56.71875 8.65625 56.769531 9.03125 56.769531 9.472656 L 56.769531 10 C 56.769531 10.429688 56.726562 10.769531 56.648438 11.019531 C 56.570312 11.269531 56.410156 11.46875 56.167969 11.625 C 56.378906 11.703125 56.546875 11.851562 56.664062 12.066406 C 56.785156 12.285156 56.84375 12.617188 56.84375 13.074219 Z M 56.84375 14.652344 "/>
<path style=" stroke:none;fill-rule:nonzero;fill:rgb(26.27451%,25.882353%,25.882353%);fill-opacity:1;" d="M 66.992188 7.035156 L 66.992188 8.550781 L 61.074219 8.550781 L 61.074219 9.953125 L 66.804688 9.953125 L 66.804688 11.480469 L 61.074219 11.480469 L 61.074219 13.128906 L 66.992188 13.128906 L 66.992188 14.652344 L 59.269531 14.652344 L 59.269531 7.035156 Z M 66.992188 7.035156 "/>
<path style=" stroke:none;fill-rule:nonzero;fill:rgb(26.27451%,25.882353%,25.882353%);fill-opacity:1;" d="M 72.101562 7.035156 L 76.527344 12.25 L 76.527344 7.035156 L 78.34375 7.035156 L 78.34375 14.652344 L 76.179688 14.652344 L 71.210938 8.957031 L 71.210938 14.652344 L 69.40625 14.652344 L 69.40625 7.035156 Z M 72.101562 7.035156 "/>
<path style=" stroke:none;fill-rule:nonzero;fill:rgb(26.27451%,25.882353%,25.882353%);fill-opacity:1;" d="M 86.726562 13.046875 C 86.9375 12.992188 87.109375 12.898438 87.230469 12.769531 C 87.355469 12.644531 87.4375 12.472656 87.480469 12.253906 C 87.523438 12.039062 87.546875 11.765625 87.546875 11.4375 L 87.546875 10.164062 C 87.546875 9.871094 87.523438 9.621094 87.476562 9.410156 C 87.429688 9.203125 87.339844 9.035156 87.214844 8.90625 C 87.089844 8.777344 86.917969 8.683594 86.710938 8.625 C 86.5 8.566406 86.230469 8.539062 85.902344 8.539062 L 82.664062 8.539062 L 82.664062 13.128906 L 85.902344 13.128906 C 86.238281 13.128906 86.511719 13.101562 86.726562 13.046875 Z M 87.671875 7.175781 C 88.074219 7.28125 88.398438 7.449219 88.648438 7.6875 C 88.898438 7.925781 89.078125 8.238281 89.1875 8.625 C 89.296875 9.015625 89.351562 9.488281 89.351562 10.054688 L 89.351562 11.523438 C 89.351562 12.132812 89.304688 12.636719 89.203125 13.039062 C 89.109375 13.441406 88.941406 13.761719 88.710938 14 C 88.476562 14.238281 88.167969 14.40625 87.78125 14.503906 C 87.390625 14.605469 86.910156 14.652344 86.339844 14.652344 L 80.847656 14.652344 L 80.847656 7.023438 L 86.1875 7.023438 C 86.773438 7.023438 87.269531 7.074219 87.671875 7.175781 Z M 87.671875 7.175781 "/>
<g clip-path="url(#clip1)" clip-rule="nonzero">
<path style=" stroke:none;fill-rule:nonzero;fill:rgb(26.27451%,25.882353%,25.882353%);fill-opacity:1;" d="M 91.984375 7.035156 L 93.789062 7.035156 L 93.789062 14.652344 L 91.984375 14.652344 Z M 91.984375 7.035156 "/>
</g>
<path style=" stroke:none;fill-rule:nonzero;fill:rgb(26.27451%,25.882353%,25.882353%);fill-opacity:1;" d="M 31.304688 16.800781 L 31.304688 19.480469 L 30.777344 19.480469 L 30.777344 16.800781 L 29.824219 16.800781 L 29.824219 16.3125 L 32.257812 16.3125 L 32.257812 16.800781 Z M 31.304688 16.800781 "/>
<path style=" stroke:none;fill-rule:nonzero;fill:rgb(26.27451%,25.882353%,25.882353%);fill-opacity:1;" d="M 37.769531 17.789062 C 37.878906 17.695312 37.933594 17.546875 37.933594 17.339844 C 37.933594 17.132812 37.878906 16.988281 37.765625 16.914062 C 37.65625 16.835938 37.457031 16.796875 37.175781 16.796875 L 36.5 16.796875 L 36.5 17.929688 L 37.160156 17.929688 C 37.460938 17.929688 37.664062 17.882812 37.769531 17.789062 Z M 38.476562 17.339844 C 38.476562 17.863281 38.25 18.191406 37.796875 18.328125 L 38.621094 19.480469 L 37.945312 19.480469 L 37.195312 18.414062 L 36.5 18.414062 L 36.5 19.480469 L 35.972656 19.480469 L 35.972656 16.3125 L 37.136719 16.3125 C 37.617188 16.3125 37.960938 16.394531 38.167969 16.558594 C 38.371094 16.71875 38.476562 16.980469 38.476562 17.339844 Z M 38.476562 17.339844 "/>
<path style=" stroke:none;fill-rule:nonzero;fill:rgb(26.27451%,25.882353%,25.882353%);fill-opacity:1;" d="M 44.179688 18.265625 L 43.609375 16.960938 L 43.039062 18.265625 Z M 42.824219 18.757812 L 42.507812 19.480469 L 41.945312 19.480469 L 43.324219 16.3125 L 43.890625 16.3125 L 45.273438 19.480469 L 44.707031 19.480469 L 44.394531 18.757812 Z M 42.824219 18.757812 "/>
<path style=" stroke:none;fill-rule:nonzero;fill:rgb(26.27451%,25.882353%,25.882353%);fill-opacity:1;" d="M 51.199219 16.3125 L 51.730469 16.3125 L 51.730469 19.480469 L 51.152344 19.480469 L 49.378906 17.167969 L 49.378906 19.480469 L 48.847656 19.480469 L 48.847656 16.3125 L 49.378906 16.3125 L 51.199219 18.675781 Z M 51.199219 16.3125 "/>
<path style=" stroke:none;fill-rule:nonzero;fill:rgb(26.27451%,25.882353%,25.882353%);fill-opacity:1;" d="M 56.6875 16.730469 C 56.535156 16.730469 56.40625 16.761719 56.308594 16.824219 C 56.210938 16.886719 56.160156 16.984375 56.160156 17.113281 C 56.160156 17.242188 56.210938 17.339844 56.308594 17.40625 C 56.40625 17.472656 56.617188 17.546875 56.9375 17.625 C 57.261719 17.703125 57.503906 17.816406 57.664062 17.957031 C 57.828125 18.097656 57.910156 18.308594 57.910156 18.585938 C 57.910156 18.859375 57.808594 19.085938 57.601562 19.257812 C 57.394531 19.429688 57.125 19.515625 56.789062 19.515625 C 56.296875 19.515625 55.863281 19.34375 55.484375 19.003906 L 55.816406 18.601562 C 56.132812 18.878906 56.460938 19.015625 56.800781 19.015625 C 56.972656 19.015625 57.109375 18.980469 57.207031 18.90625 C 57.308594 18.832031 57.359375 18.734375 57.359375 18.613281 C 57.359375 18.488281 57.3125 18.394531 57.21875 18.324219 C 57.125 18.257812 56.960938 18.195312 56.730469 18.140625 C 56.5 18.085938 56.324219 18.035156 56.207031 17.984375 C 56.085938 17.941406 55.980469 17.878906 55.886719 17.804688 C 55.703125 17.660156 55.609375 17.445312 55.609375 17.152344 C 55.609375 16.859375 55.714844 16.632812 55.925781 16.472656 C 56.136719 16.316406 56.398438 16.234375 56.707031 16.234375 C 56.910156 16.234375 57.109375 16.269531 57.304688 16.335938 C 57.503906 16.402344 57.671875 16.496094 57.816406 16.617188 L 57.535156 17.019531 C 57.441406 16.933594 57.316406 16.867188 57.15625 16.8125 C 57 16.757812 56.84375 16.730469 56.6875 16.730469 Z M 56.6875 16.730469 "/>
<path style=" stroke:none;fill-rule:nonzero;fill:rgb(26.27451%,25.882353%,25.882353%);fill-opacity:1;" d="M 61.707031 19.480469 L 61.707031 16.3125 L 62.234375 16.3125 L 62.234375 18.972656 L 63.667969 18.972656 L 63.667969 19.480469 Z M 61.707031 19.480469 "/>
<path style=" stroke:none;fill-rule:nonzero;fill:rgb(26.27451%,25.882353%,25.882353%);fill-opacity:1;" d="M 69.183594 18.265625 L 68.613281 16.960938 L 68.046875 18.265625 Z M 67.832031 18.757812 L 67.515625 19.480469 L 66.949219 19.480469 L 68.332031 16.3125 L 68.898438 16.3125 L 70.28125 19.480469 L 69.714844 19.480469 L 69.402344 18.757812 Z M 67.832031 18.757812 "/>
<path style=" stroke:none;fill-rule:nonzero;fill:rgb(26.27451%,25.882353%,25.882353%);fill-opacity:1;" d="M 74.792969 16.800781 L 74.792969 19.480469 L 74.265625 19.480469 L 74.265625 16.800781 L 73.3125 16.800781 L 73.3125 16.3125 L 75.746094 16.3125 L 75.746094 16.800781 Z M 74.792969 16.800781 "/>
<path style=" stroke:none;fill-rule:nonzero;fill:rgb(26.27451%,25.882353%,25.882353%);fill-opacity:1;" d="M 79.460938 16.3125 L 79.988281 16.3125 L 79.988281 19.480469 L 79.460938 19.480469 Z M 79.460938 16.3125 "/>
<path style=" stroke:none;fill-rule:nonzero;fill:rgb(26.27451%,25.882353%,25.882353%);fill-opacity:1;" d="M 86.234375 17.058594 C 86.023438 16.835938 85.757812 16.726562 85.449219 16.726562 C 85.136719 16.726562 84.875 16.835938 84.660156 17.058594 C 84.445312 17.285156 84.339844 17.554688 84.339844 17.875 C 84.339844 18.191406 84.445312 18.460938 84.660156 18.6875 C 84.875 18.910156 85.136719 19.019531 85.449219 19.019531 C 85.757812 19.019531 86.023438 18.910156 86.234375 18.6875 C 86.449219 18.460938 86.554688 18.191406 86.554688 17.875 C 86.554688 17.554688 86.449219 17.285156 86.234375 17.058594 Z M 86.625 19.042969 C 86.304688 19.355469 85.914062 19.511719 85.449219 19.511719 C 84.980469 19.511719 84.589844 19.355469 84.273438 19.042969 C 83.957031 18.730469 83.796875 18.339844 83.796875 17.875 C 83.796875 17.40625 83.957031 17.015625 84.273438 16.703125 C 84.589844 16.390625 84.980469 16.234375 85.449219 16.234375 C 85.914062 16.234375 86.304688 16.390625 86.625 16.703125 C 86.941406 17.015625 87.097656 17.40625 87.097656 17.875 C 87.097656 18.339844 86.941406 18.730469 86.625 19.042969 Z M 86.625 19.042969 "/>
<g clip-path="url(#clip2)" clip-rule="nonzero">
<path style=" stroke:none;fill-rule:nonzero;fill:rgb(26.27451%,25.882353%,25.882353%);fill-opacity:1;" d="M 93.257812 16.3125 L 93.789062 16.3125 L 93.789062 19.480469 L 93.214844 19.480469 L 91.4375 17.167969 L 91.4375 19.480469 L 90.90625 19.480469 L 90.90625 16.3125 L 91.4375 16.3125 L 93.257812 18.675781 Z M 93.257812 16.3125 "/>
</g>
<path style=" stroke:none;fill-rule:evenodd;fill:url(#linear0);" d="M 14.40625 25 C 12.695312 22.882812 10.5625 21.046875 8.046875 19.648438 C 5.527344 18.246094 2.855469 17.40625 0.167969 17.074219 C 1.257812 15.519531 2.503906 14.058594 3.886719 12.703125 C 5.597656 14.253906 7.5 15.636719 9.597656 16.804688 C 11.699219 17.972656 13.875 18.859375 16.082031 19.492188 C 15.6875 21.394531 15.128906 23.238281 14.40625 25 Z M 14.40625 25 "/>
<path style=" stroke:none;fill-rule:evenodd;fill:url(#linear1);" d="M 0.167969 17.074219 L 0 8.484375 Z M 3.886719 12.703125 C 2.453125 11.40625 1.148438 9.996094 0 8.484375 C 0.574219 9.242188 1.1875 9.972656 1.835938 10.675781 C 1.1875 9.972656 0.574219 9.242188 0 8.484375 C 2.675781 8.046875 5.3125 7.101562 7.773438 5.601562 C 10.234375 4.101562 12.289062 2.183594 13.917969 0 L 21.371094 4.148438 L 13.917969 0 C 14.707031 1.730469 15.339844 3.550781 15.808594 5.4375 C 13.625 6.160156 11.484375 7.128906 9.433594 8.378906 C 7.382812 9.628906 5.535156 11.089844 3.886719 12.703125 Z M 3.886719 12.703125 "/>
<path style=" stroke:none;fill-rule:evenodd;fill:rgb(82.352941%,23.921569%,23.529412%);fill-opacity:1;" d="M 0.167969 17.074219 L 0 8.484375 C 1.148438 9.996094 2.453125 11.40625 3.886719 12.703125 C 2.503906 14.058594 1.257812 15.519531 0.167969 17.074219 Z M 0.167969 17.074219 "/>
<path style=" stroke:none;fill-rule:nonzero;fill:url(#linear2);" d="M 14.40625 25 L 21.691406 20.558594 C 19.8125 20.382812 17.9375 20.023438 16.082031 19.492188 C 16.554688 17.222656 16.792969 14.867188 16.746094 12.449219 C 16.699219 10.03125 16.371094 7.6875 15.808594 5.4375 C 17.640625 4.832031 19.5 4.398438 21.371094 4.148438 C 20.410156 6.703125 19.902344 9.484375 19.960938 12.382812 C 20.015625 15.285156 20.632812 18.042969 21.691406 20.558594 Z M 14.40625 25 "/>
<path style=" stroke:none;fill-rule:nonzero;fill:rgb(56.862745%,21.960784%,21.960784%);fill-opacity:1;" d="M 14.40625 25 C 15.128906 23.238281 15.6875 21.394531 16.082031 19.492188 C 17.9375 20.023438 19.8125 20.382812 21.691406 20.558594 Z M 14.40625 25 "/>
<path style=" stroke:none;fill-rule:nonzero;fill:rgb(84.313725%,23.921569%,23.921569%);fill-opacity:1;" d="M 15.808594 5.4375 C 15.339844 3.550781 14.707031 1.730469 13.917969 0 L 21.371094 4.148438 C 19.5 4.398438 17.640625 4.832031 15.808594 5.4375 Z M 15.808594 5.4375 "/>
</g>
</svg>
